aileron_black-italic.sfdir

StartChar: exclam
Encoding: 33 33 250
Width: 311
Flags: MW
HStem: -14 178<97 145.5> 670 20G<164 326 326 326>
VStem: 28 186<64 86.5> 28 298
LayerCount: 2
Fore
SplineSet
213 210 m 1xd0
 75 210 l 1
 164 690 l 1
 326 690 l 1
 213 210 l 1xd0
132 164 m 0xe0
 183 164 214 135 214 88 c 0
 214 40 181 -14 110 -14 c 0
 59 -14 28 15 28 62 c 0
 28 111 62 164 132 164 c 0xe0
EndSplineSet
EndChar

StartChar: quotedbl
Encoding: 34 34 257
Width: 419
Flags: MW
HStem: 439 296<101 163 45 241 235 235 235 241 291 353>
VStem: 45 386<439 735>
LayerCount: 2
Fore
SplineSet
163 439 m 1
 45 439 l 1
 101 735 l 1
 241 735 l 1
 163 439 l 1
353 439 m 1
 235 439 l 1
 291 735 l 1
 431 735 l 1
 353 439 l 1
EndSplineSet
EndChar

StartChar: numbersign
Encoding: 35 35 252
Width: 662
Flags: MW
HStem: 0 21G<65 167 65 65 254 356 254 254> 201 96<77 143 60 181 283 332 77 245 472 550> 393 96<140 218 123 256 140 320 358 407 547 613> 670 20G<334 436 436 436 523 625 625 625>
VStem: 60 570<201 489>
LayerCount: 2
Fore
SplineSet
509 393 m 1
 472 297 l 1
 567 297 l 1
 550 201 l 1
 434 201 l 1
 356 0 l 1
 254 0 l 1
 332 201 l 1
 245 201 l 1
 167 0 l 1
 65 0 l 1
 143 201 l 1
 60 201 l 1
 77 297 l 1
 181 297 l 1
 218 393 l 1
 123 393 l 1
 140 489 l 1
 256 489 l 1
 334 690 l 1
 436 690 l 1
 358 489 l 1
 445 489 l 1
 523 690 l 1
 625 690 l 1
 547 489 l 1
 630 489 l 1
 613 393 l 1
 509 393 l 1
407 393 m 1
 320 393 l 1
 283 297 l 1
 370 297 l 1
 407 393 l 1
EndSplineSet
EndChar

StartChar: dollar
Encoding: 36 36 285
Width: 662
Flags: MW
HStem: -8 21G<234 234> 487 293<374 650 374 480>
VStem: 31 170<201 201> 103 166<485.5 522.5 485.5 546.5> 429 173<156 190.5> 480 170<487 487>
LayerCount: 2
Fore
SplineSet
436 565 m 1xd4
 408 406 l 1
 540 347 602 298 602 190 c 0
 602 65 491 -9 333 -14 c 1
 320 -90 l 1
 220 -90 l 1
 234 -8 l 1
 91 13 40 94 31 201 c 1
 201 201 l 1
 204 158 224 131 257 118 c 1xe8
 286 282 l 1
 165 329 103 387 103 489 c 0
 103 604 202 690 360 703 c 1
 374 780 l 1
 474 780 l 1
 460 699 l 1
 578 679 643 597 650 487 c 1
 480 487 l 1
 481 521 463 549 436 565 c 1xd4
269 501 m 0x98
 269 470 285 451 313 436 c 1
 338 578 l 1
 296 570 269 544 269 501 c 0x98
379 244 m 1
 355 110 l 1
 402 117 429 137 429 175 c 0
 429 206 414 227 379 244 c 1
EndSplineSet
EndChar

StartChar: ampersand
Encoding: 38 38 313
Width: 687
Flags: MW
HStem: -14 132<256.5 296.5 256.5 307.5> 280 140<355 423 366 423 603 671> 572 132<355.5 406.5> 674 20G<508 508>
VStem: 1 193<157.5 204.5> 102 187<463 512 463 554.5>
LayerCount: 2
Fore
SplineSet
695 420 m 1xe8
 671 280 l 1
 579 280 l 1
 532 13 l 1
 453 -3 361 -14 254 -14 c 0
 109 -14 1 25 1 144 c 0xe8
 1 265 86 336 204 354 c 1
 141 373 102 425 102 487 c 0
 102 622 214 704 409 704 c 0xe4
 448 704 481 701 508 694 c 1xd8
 485 563 l 1
 445 571 422 572 391 572 c 0
 320 572 289 541 289 483 c 0
 289 443 315 423 350 421 c 0xe4
 368 420 390 420 406 420 c 2
 423 420 l 1
 437 497 l 1
 617 497 l 1
 603 420 l 1
 695 420 l 1xe8
194 183 m 0
 194 132 231 118 282 118 c 0
 311 118 332 119 371 125 c 1
 399 280 l 1
 366 280 l 2
 344 280 334 280 314 279 c 0
 239 276 194 245 194 183 c 0
EndSplineSet
EndChar

StartChar: quotesingle
Encoding: 39 39 258
Width: 229
Flags: MW
HStem: 439 296<101 163 45 241>
VStem: 45 196
LayerCount: 2
Fore
SplineSet
163 439 m 1
 45 439 l 1
 101 735 l 1
 241 735 l 1
 163 439 l 1
EndSplineSet
EndChar

StartChar: parenleft
Encoding: 40 40 266
Width: 403
Flags: MW
HStem: -80 860<217 458 217 458>
VStem: 124 108<169 316 169 318.5>
LayerCount: 2
Fore
SplineSet
306 -80 m 1
 217 -80 l 1
 157 -8 124 90 124 231 c 0
 124 406 191 623 369 780 c 1
 458 780 l 1
 293 593 232 399 232 233 c 0
 232 105 257 4 306 -80 c 1
EndSplineSet
EndChar

StartChar: parenright
Encoding: 41 41 267
Width: 403
Flags: MW
HStem: -80 860<-25 216 -25 216>
VStem: 201 108<384 531>
LayerCount: 2
Fore
SplineSet
127 780 m 1
 216 780 l 1
 276 708 309 610 309 469 c 0
 309 294 242 77 64 -80 c 1
 -25 -80 l 1
 140 107 201 301 201 467 c 0
 201 595 176 696 127 780 c 1
EndSplineSet
EndChar

StartChar: asterisk
Encoding: 42 42 244
Width: 560
Flags: MW
HStem: 66 409<170 374 318 318>
VStem: 79 404<275 275>
LayerCount: 2
Fore
SplineSet
335 331 m 1
 467 386 l 1
 483 275 l 1
 345 246 l 1
 424 134 l 1
 318 66 l 1
 267 188 l 1
 170 66 l 1
 88 134 l 1
 207 246 l 1
 79 275 l 1
 133 386 l 1
 247 331 l 1
 258 475 l 1
 374 475 l 1
 335 331 l 1
EndSplineSet
EndChar

StartChar: plus
Encoding: 43 43 307
Width: 662
Flags: MW
HStem: 273 88<125 284 109 300 400 559 125 384>
VStem: 109 466<273 361>
LayerCount: 2
Fore
SplineSet
559 273 m 1
 384 273 l 1
 350 76 l 1
 250 76 l 1
 284 273 l 1
 109 273 l 1
 125 361 l 1
 300 361 l 1
 334 558 l 1
 434 558 l 1
 400 361 l 1
 575 361 l 1
 559 273 l 1
EndSplineSet
EndChar

StartChar: hyphen
Encoding: 45 45 271
Width: 314
Flags: MW
HStem: 235 96<40 274 24 290>
VStem: 24 266<235 331>
LayerCount: 2
Fore
SplineSet
274 235 m 1
 24 235 l 1
 40 331 l 1
 290 331 l 1
 274 235 l 1
EndSplineSet
EndChar

StartChar: period
Encoding: 46 46 253
Width: 283
Flags: MW
HStem: -14 200<73.5 108.5>
VStem: -11 204<71.5 100.5>
LayerCount: 2
Fore
SplineSet
109 186 m 0
 155 186 193 160 193 109 c 0
 193 34 144 -14 73 -14 c 0
 28 -14 -11 12 -11 63 c 0
 -11 138 38 186 109 186 c 0
EndSplineSet
EndChar

StartChar: slash
Encoding: 47 47 260
Width: 346
Flags: MW
HStem: -30 750<-71 417 -71 417>
VStem: -71 488
LayerCount: 2
Fore
SplineSet
34 -30 m 1
 -71 -30 l 1
 312 720 l 1
 417 720 l 1
 34 -30 l 1
EndSplineSet
EndChar

StartChar: zero
Encoding: 48 48 233
Width: 662
Flags: MW
HStem: -14 132<287 368.5 287 441> 572 132<323.5 405>
VStem: 45 190<195.5 287.5 195.5 352> 457 190<405 495>
LayerCount: 2
Fore
SplineSet
379 704 m 0
 561 704 647 600 647 436 c 0
 647 247 569 -14 313 -14 c 0
 131 -14 45 90 45 254 c 0
 45 450 126 704 379 704 c 0
313 118 m 0
 424 118 457 354 457 456 c 0
 457 534 431 572 379 572 c 0
 268 572 235 341 235 234 c 0
 235 157 261 118 313 118 c 0
EndSplineSet
EndChar

StartChar: one
Encoding: 49 49 234
Width: 662
Flags: MW
HStem: 0 21G<270 450 270 270> 670 20G<493 571 571 571>
VStem: 129 442<392 690>
LayerCount: 2
Fore
SplineSet
571 690 m 1
 450 0 l 1
 270 0 l 1
 358 502 l 1
 129 392 l 1
 157 553 l 1
 345 651 l 2
 394 676 442 690 493 690 c 2
 571 690 l 1
EndSplineSet
EndChar

StartChar: two
Encoding: 50 50 235
Width: 662
Flags: MW
HStem: 0 140<313 543> 574 132<360 407>
VStem: 452 191<490 530.5>
LayerCount: 2
Fore
SplineSet
313 140 m 1
 568 140 l 1
 543 0 l 1
 8 0 l 1
 22 78 l 1
 275 282 l 2
 406 388 452 441 452 510 c 0
 452 551 428 574 386 574 c 0
 334 574 302 541 283 469 c 1
 280 459 l 1
 100 459 l 1
 103 469 l 1
 144 621 238 706 424 706 c 0
 566 706 643 642 643 535 c 0
 643 445 599 376 421 229 c 2
 313 140 l 1
EndSplineSet
EndChar

StartChar: three
Encoding: 51 51 236
Width: 662
Flags: MW
HStem: -14 132<274.5 338.5 274.5 379.5> -14 233<195.5 212 32 379.5> 292.5 117.5 572 132<360.5 408.5>
VStem: 31 181<209 219> 416 190<187 239.5> 453 192<498.5 531>
LayerCount: 2
Fore
SplineSet
485 363 m 1x9c
 565 345 606 304 606 234 c 0
 606 89 476 -14 283 -14 c 0x9c
 108 -14 21 71 31 209 c 1
 32 219 l 1x5c
 212 219 l 1
 212 209 l 1
 213 161 240 118 309 118 c 0
 368 118 416 159 416 215 c 0
 416 264 379 289 316 292 c 2xbc
 289 293 l 1
 309 409 l 1
 336 411 l 2
 412 417 453 460 453 513 c 0
 453 549 430 572 387 572 c 0
 334 572 304 529 292 484 c 1
 290 474 l 1
 110 474 l 1
 112 484 l 1
 145 600 229 704 428 704 c 0
 579 704 645 631 645 545 c 0xba
 645 452 595 387 485 363 c 1x9c
EndSplineSet
EndChar

StartChar: four
Encoding: 52 52 237
Width: 662
Flags: MW
HStem: 0 21G<315 495 315 315> 154 140<230 342 548 606> 670 20G<428 624 624 624>
VStem: 18 612<154 294>
LayerCount: 2
Fore
SplineSet
606 154 m 1
 522 154 l 1
 495 0 l 1
 315 0 l 1
 342 154 l 1
 18 154 l 1
 35 253 l 1
 428 690 l 1
 624 690 l 1
 548 294 l 1
 630 294 l 1
 606 154 l 1
368 294 m 1
 408 496 l 1
 391 472 376 453 363 439 c 2
 230 294 l 1
 368 294 l 1
EndSplineSet
EndChar

StartChar: five
Encoding: 53 53 238
Width: 662
Flags: MW
HStem: -14 132<270.5 335 270.5 368> 338 132<314 476> 550 140<319 319 319 632>
VStem: 47 180<194 204 194 204> 416 192<215.5 275.5>
LayerCount: 2
Fore
SplineSet
319 550 m 1
 271 399 l 1
 305 445 l 1
 340 463 378 470 416 470 c 0
 536 470 608 400 608 280 c 0
 608 86 452 -14 284 -14 c 0
 128 -14 36 47 47 194 c 1
 47 204 l 1
 227 204 l 1
 227 194 l 1
 223 147 246 118 295 118 c 0
 375 118 416 181 416 250 c 0
 416 301 390 338 337 338 c 0
 291 338 262 318 238 276 c 1
 72 276 l 1
 199 690 l 1
 656 690 l 1
 632 550 l 1
 319 550 l 1
EndSplineSet
EndChar

StartChar: six
Encoding: 54 54 239
Width: 662
Flags: MW
HStem: -14 132<281.5 341.5 281.5 365.5> 330 132<313 488> 572 132<361.5 416>
VStem: 52 178<176.5 242 176.5 371> 418 193<212.5 271> 464 181<494 504 504 504>
LayerCount: 2
Fore
SplineSet
428 704 m 0xf4
 582 704 651 627 645 504 c 1
 644 494 l 1
 464 494 l 1
 464 504 l 1
 458 552 437 572 395 572 c 0xf4
 328 572 281 508 250 364 c 1
 293 426 l 1
 335 455 373 462 421 462 c 0
 555 462 611 381 611 283 c 0xf8
 611 90 446 -14 285 -14 c 0
 131 -14 52 76 52 226 c 0
 52 516 213 704 428 704 c 0xf4
341 330 m 0xf8
 285 330 230 282 230 202 c 0
 230 151 257 118 306 118 c 0
 377 118 418 180 418 245 c 0
 418 297 391 330 341 330 c 0xf8
EndSplineSet
EndChar

StartChar: seven
Encoding: 55 55 240
Width: 662
Flags: MW
HStem: 0 21G<48 245 48 48> 550 140<126 449 101 687>
VStem: 48 639
LayerCount: 2
Fore
SplineSet
687 690 m 1
 669 590 l 1
 245 0 l 1
 48 0 l 1
 449 550 l 1
 101 550 l 1
 126 690 l 1
 687 690 l 1
EndSplineSet
EndChar

StartChar: eight
Encoding: 56 56 241
Width: 662
Flags: MW
HStem: -15 132<278.5 343.5 278.5 369> 297 129<347 361> 572 132<369 410.5>
VStem: 34 190<166 218> 124 183<465.5 513 465.5 544> 415 186<191 244.5> 454 186<486 532.5>
LayerCount: 2
Fore
SplineSet
497 366 m 1xf4
 553 345 601 299 601 223 c 0
 601 58 459 -15 279 -15 c 0
 127 -15 34 36 34 158 c 0xf4
 34 278 118 340 200 366 c 1
 157 383 124 417 124 480 c 0
 124 608 233 704 418 704 c 0
 565 704 640 635 640 538 c 0xea
 640 434 569 387 497 366 c 1xf4
365 426 m 0xea
 413 426 454 457 454 514 c 0
 454 551 430 572 391 572 c 0
 347 572 307 541 307 485 c 0
 307 446 329 426 365 426 c 0xea
304 117 m 0xf4
 383 117 415 161 415 221 c 0
 415 268 387 297 335 297 c 0
 277 297 224 257 224 189 c 0
 224 143 253 117 304 117 c 0xf4
EndSplineSet
EndChar

StartChar: nine
Encoding: 57 57 242
Width: 662
Flags: MW
HStem: -14 132<270 324.5 270 365.5> 228 132<198 373> 572 132<344.5 404.5>
VStem: 41 181<186 196> 75 193<419 477.5 419 503.5> 456 178<448 513.5>
LayerCount: 2
Fore
SplineSet
401 704 m 0xec
 555 704 634 614 634 464 c 0
 634 174 473 -14 258 -14 c 0
 104 -14 35 63 41 186 c 1
 42 196 l 1
 222 196 l 1
 222 186 l 1
 228 138 249 118 291 118 c 0xf4
 358 118 405 182 436 326 c 1
 393 264 l 1
 351 235 313 228 265 228 c 0
 131 228 75 309 75 407 c 0
 75 600 240 704 401 704 c 0xec
345 360 m 0
 401 360 456 408 456 488 c 0
 456 539 429 572 380 572 c 0
 309 572 268 510 268 445 c 0
 268 393 295 360 345 360 c 0
EndSplineSet
EndChar

StartChar: colon
Encoding: 58 58 247
Width: 283
Flags: MW
HStem: -14 21G<63.5 121.5> -14 200<86.5 121.5> 348 200<150.5 185.5> 528 20G<150.5 209>
VStem: 2 204<71.5 100.5> 66 204<433.5 462.5>
LayerCount: 2
Fore
SplineSet
186 548 m 0x94
 232 548 270 522 270 471 c 0
 270 396 221 348 150 348 c 0xa4
 105 348 66 374 66 425 c 0
 66 500 115 548 186 548 c 0x94
122 186 m 0x58
 168 186 206 160 206 109 c 0
 206 34 157 -14 86 -14 c 0
 41 -14 2 12 2 63 c 0
 2 138 51 186 122 186 c 0x58
EndSplineSet
EndChar

StartChar: semicolon
Encoding: 59 59 259
Width: 283
Flags: MW
HStem: -124 296<32 38 -100 199> 348 200<150.5 185.5> 528 20G<150.5 209>
VStem: 66 204<433.5 462.5>
LayerCount: 2
Fore
SplineSet
186 548 m 0xb0
 232 548 270 522 270 471 c 0
 270 396 221 348 150 348 c 0xd0
 105 348 66 374 66 425 c 0
 66 500 115 548 186 548 c 0xb0
196 152 m 1
 38 -124 l 1
 -100 -124 l 1
 32 172 l 1
 199 172 l 1
 196 152 l 1
EndSplineSet
EndChar

StartChar: less
Encoding: 60 60 298
Width: 662
Flags: MW
HStem: 20 490<534 620>
VStem: 94 526<197 510>
LayerCount: 2
Fore
SplineSet
599 392 m 1
 222 265 l 1
 555 139 l 1
 534 20 l 1
 94 197 l 1
 118 333 l 1
 620 510 l 1
 599 392 l 1
EndSplineSet
EndChar

StartChar: equal
Encoding: 61 61 293
Width: 662
Flags: MW
HStem: 173 88<87 562 72 577> 373 88<122 597 107 612>
VStem: 72 540<173 461>
LayerCount: 2
Fore
SplineSet
597 373 m 1
 107 373 l 1
 122 461 l 1
 612 461 l 1
 597 373 l 1
562 173 m 1
 72 173 l 1
 87 261 l 1
 577 261 l 1
 562 173 l 1
EndSplineSet
EndChar

StartChar: greater
Encoding: 62 62 294
Width: 662
Flags: MW
HStem: 20 490<22 108>
VStem: 22 526<20 333>
LayerCount: 2
Fore
SplineSet
548 333 m 1
 524 197 l 1
 22 20 l 1
 43 138 l 1
 420 265 l 1
 87 391 l 1
 108 510 l 1
 548 333 l 1
EndSplineSet
EndChar

StartChar: question
Encoding: 63 63 255
Width: 640
Flags: MW
HStem: -14 178<276 324.5> 572 132<359 401>
VStem: 207 186<64 86.5> 440 192<496 533.5>
LayerCount: 2
Fore
SplineSet
418 704 m 0
 555 704 632 645 632 543 c 0
 632 449 594 402 490 328 c 0
 433 287 410 263 394 210 c 1
 248 210 l 1
 265 291 291 327 342 373 c 0
 417 440 440 469 440 515 c 0
 440 552 421 572 381 572 c 0
 337 572 306 541 291 474 c 1
 111 474 l 1
 140 618 257 704 418 704 c 0
311 164 m 0
 362 164 393 135 393 88 c 0
 393 40 360 -14 289 -14 c 0
 238 -14 207 15 207 62 c 0
 207 111 241 164 311 164 c 0
EndSplineSet
EndChar

StartChar: at
Encoding: 64 64 315
Width: 930
Flags: MW
HStem: -134 96<343.5 472.5> 68 96<668 707 668 708> 74 122<337 447.5> 368 122<371 481.5> 606 96<402 578>
VStem: 34 108<168.5 373 168.5 381.5> 237 164<233.5 288.5 233.5 314.5> 496 145<209 319> 773 108<284 424.5>
LayerCount: 2
Fore
SplineSet
692 472 m 1xbe80
 660 339 l 2
 643 267 641 248 641 229 c 0
 641 189 654 164 682 164 c 0
 732 164 773 226 773 342 c 0
 773 507 666 606 490 606 c 0
 314 606 142 488 142 258 c 0
 142 79 244 -38 443 -38 c 0
 529 -38 605 -17 666 27 c 1
 703 -57 l 1
 618 -112 516 -134 429 -134 c 0
 250 -134 34 -31 34 251 c 0
 34 512 240 702 494 702 c 0
 749 702 881 530 881 352 c 0
 881 144 773 68 643 68 c 0
 565 68 513 101 491 167 c 1xdf80
 460 104 l 1
 431 81 401 74 372 74 c 0
 302 74 237 113 237 243 c 0
 237 386 315 490 427 490 c 0
 466 490 493 477 504 462 c 1
 521 409 l 1
 541 472 l 1
 692 472 l 1xbe80
435 196 m 0xbf80
 460 196 473 219 480 248 c 2
 496 319 l 2
 502 347 494 368 469 368 c 0
 432 368 401 322 401 255 c 0
 401 212 414 196 435 196 c 0xbf80
EndSplineSet
EndChar

StartChar: A
Encoding: 65 65 1
Width: 707
GlyphClass: 2
Flags: MW
HStem: 0 21G<-43 148 -43 -43 479 479 479 675> 179 140<304 433 304 453 236 433> 523 167<404 404> 670 20G<321 554 554 554>
VStem: -43 718<0 0>
LayerCount: 2
Fore
SplineSet
453 179 m 1xd8
 236 179 l 1
 148 0 l 1
 -43 0 l 1
 321 690 l 1
 554 690 l 1
 675 0 l 1
 479 0 l 1
 453 179 l 1xd8
433 319 m 1
 404 523 l 1xe8
 304 319 l 1
 433 319 l 1
EndSplineSet
Position2: "'cpsp' Capital Spacing in Latin lookup 0 subtable" dx=5 dy=0 dh=10 dv=0
EndChar

StartChar: B
Encoding: 66 66 12
Width: 672
GlyphClass: 2
Flags: MW
HStem: 0 140<226 296> 288 130<275 344 252 356> 550 140<298 298 298 379>
VStem: 447 190<200 245> 469 194<497.5 512>
LayerCount: 2
Fore
SplineSet
533 373 m 1xf0
 604 349 637 295 637 222 c 0xf0
 637 83 504 16 399 4 c 0
 363 0 340 0 296 0 c 2
 21 0 l 1
 143 690 l 1
 426 690 l 2
 463 690 479 690 514 686 c 0
 612 674 663 612 663 536 c 0xe8
 663 459 620 400 533 373 c 1xf0
298 550 m 1
 275 418 l 1
 356 418 l 2
 372 418 387 419 401 421 c 0
 441 427 469 448 469 497 c 0
 469 527 452 543 424 547 c 0
 411 549 395 550 379 550 c 2xe8
 298 550 l 1
368 141 m 0xf0
 404 143 447 174 447 226 c 0
 447 264 421 284 389 287 c 0
 376 288 360 288 344 288 c 2
 252 288 l 1
 226 140 l 1
 323 140 l 2
 339 140 354 140 368 141 c 0xf0
EndSplineSet
Position2: "'cpsp' Capital Spacing in Latin lookup 0 subtable" dx=5 dy=0 dh=10 dv=0
EndChar

StartChar: C
Encoding: 67 67 13
Width: 767
GlyphClass: 2
Flags: MW
HStem: -14 132<338.5 406 338.5 438.5> 572 132<397 486.5>
VStem: 63 189<222.5 377.5 222.5 405.5> 564 181<453 463 463 463>
LayerCount: 2
Fore
SplineSet
466 704 m 0
 663 704 755 599 745 463 c 1
 744 453 l 1
 564 453 l 1
 564 463 l 1
 562 537 523 572 450 572 c 0
 344 572 252 472 252 283 c 0
 252 162 306 118 371 118 c 0
 441 118 494 161 522 237 c 1
 526 247 l 1
 706 247 l 1
 703 237 l 1
 657 71 525 -14 352 -14 c 0
 180 -14 63 84 63 271 c 0
 63 540 251 704 466 704 c 0
EndSplineSet
Position2: "'cpsp' Capital Spacing in Latin lookup 0 subtable" dx=5 dy=0 dh=10 dv=0
EndChar

StartChar: D
Encoding: 68 68 18
Width: 742
GlyphClass: 2
Flags: MW
HStem: 0 140<226 281> 550 140<298 358 298 298>
VStem: 540 190<328 444>
LayerCount: 2
Fore
SplineSet
490 686 m 0
 627 670 730 581 730 397 c 0
 730 196 612 26 370 3 c 0
 334 0 318 0 281 0 c 2
 21 0 l 1
 143 690 l 1
 394 690 l 2
 430 690 456 690 490 686 c 0
352 142 m 0
 481 154 540 264 540 392 c 0
 540 496 497 541 423 548 c 0
 400 550 384 550 358 550 c 2
 298 550 l 1
 226 140 l 1
 287 140 l 2
 313 140 329 140 352 142 c 0
EndSplineSet
Position2: "'cpsp' Capital Spacing in Latin lookup 0 subtable" dx=5 dy=0 dh=10 dv=0
EndChar

StartChar: E
Encoding: 69 69 22
Width: 628
GlyphClass: 2
Flags: MW
HStem: 0 140<226 550> 276 140<275 569 250 594> 550 140<298 298 298 637>
VStem: 21 641
AnchorPoint: "Anchor-0" 269 0 basechar 0
LayerCount: 2
Fore
SplineSet
298 550 m 1
 275 416 l 1
 594 416 l 1
 569 276 l 1
 250 276 l 1
 226 140 l 1
 575 140 l 1
 550 0 l 1
 21 0 l 1
 143 690 l 1
 662 690 l 1
 637 550 l 1
 298 550 l 1
EndSplineSet
Position2: "'cpsp' Capital Spacing in Latin lookup 0 subtable" dx=5 dy=0 dh=10 dv=0
EndChar

StartChar: F
Encoding: 70 70 31
Width: 604
GlyphClass: 2
Flags: MW
HStem: 0 21G<21 201 21 21> 276 140<275 559 250 584> 550 140<298 298 298 637>
VStem: 21 641
LayerCount: 2
Fore
SplineSet
298 550 m 1
 275 416 l 1
 584 416 l 1
 559 276 l 1
 250 276 l 1
 201 0 l 1
 21 0 l 1
 143 690 l 1
 662 690 l 1
 637 550 l 1
 298 550 l 1
EndSplineSet
Position2: "'cpsp' Capital Spacing in Latin lookup 0 subtable" dx=5 dy=0 dh=10 dv=0
EndChar

StartChar: H
Encoding: 72 72 36
Width: 762
GlyphClass: 2
Flags: MW
HStem: 0 21G<21 201 21 21 477 657 477 477> 268 140<273 524 248 549> 670 20G<143 323 323 323 599 779 779 779>
VStem: 21 758<0 690>
LayerCount: 2
Fore
SplineSet
779 690 m 1
 657 0 l 1
 477 0 l 1
 524 268 l 1
 248 268 l 1
 201 0 l 1
 21 0 l 1
 143 690 l 1
 323 690 l 1
 273 408 l 1
 549 408 l 1
 599 690 l 1
 779 690 l 1
EndSplineSet
Position2: "'cpsp' Capital Spacing in Latin lookup 0 subtable" dx=5 dy=0 dh=10 dv=0
EndChar

StartChar: I
Encoding: 73 73 38
Width: 306
GlyphClass: 2
Flags: MW
HStem: 0 21G<21 201 21 21> 670 20G<143 323 323 323>
VStem: 21 302
LayerCount: 2
Fore
SplineSet
201 0 m 1
 21 0 l 1
 143 690 l 1
 323 690 l 1
 201 0 l 1
EndSplineSet
Position2: "'cpsp' Capital Spacing in Latin lookup 0 subtable" dx=5 dy=0 dh=10 dv=0
EndChar

StartChar: J
Encoding: 74 74 47
Width: 635
GlyphClass: 2
Flags: MW
HStem: -14 132<247.5 298 247.5 338.5> 670 20G<456 636 636 636>
VStem: 15.78 185.72
LayerCount: 2
Fore
SplineSet
636 690 m 1
 567 299 l 2
 562 267 558 245 546 194 c 0
 518 73 433 -14 244 -14 c 0
 77 -14 -2 84 19 234 c 2
 23 264 l 1
 203 264 l 1
 200 234 l 2
 190 144 222 118 273 118 c 0
 323 118 354 150 369 205 c 0
 375 228 379 250 383 271 c 2
 456 690 l 1
 636 690 l 1
EndSplineSet
Position2: "'cpsp' Capital Spacing in Latin lookup 0 subtable" dx=5 dy=0 dh=10 dv=0
EndChar

StartChar: K
Encoding: 75 75 48
Width: 715
GlyphClass: 2
Flags: MW
HStem: 0 21G<21 201 21 21 447 670 447 447> 670 20G<143 323 323 323 586 801 801 801>
VStem: 21 780<0 690>
AnchorPoint: "Anchor-0" 306 0 basechar 0
LayerCount: 2
Fore
SplineSet
436 357 m 1
 670 0 l 1
 447 0 l 1
 296 266 l 1
 238 212 l 1
 201 0 l 1
 21 0 l 1
 143 690 l 1
 323 690 l 1
 269 385 l 1
 586 690 l 1
 801 690 l 1
 436 357 l 1
EndSplineSet
Position2: "'cpsp' Capital Spacing in Latin lookup 0 subtable" dx=5 dy=0 dh=10 dv=0
EndChar

StartChar: L
Encoding: 76 76 50
Width: 616
GlyphClass: 2
Flags: MW
HStem: 0 152<228 550> 670 20G<143 323 323 323>
VStem: 21 556<0 152>
AnchorPoint: "Anchor-0" 280 0 basechar 0
LayerCount: 2
Fore
SplineSet
577 152 m 1
 550 0 l 1
 21 0 l 1
 143 690 l 1
 323 690 l 1
 228 152 l 1
 577 152 l 1
EndSplineSet
Position2: "'cpsp' Capital Spacing in Latin lookup 0 subtable" dx=5 dy=0 dh=10 dv=0
EndChar

StartChar: M
Encoding: 77 77 56
Width: 915
GlyphClass: 2
Flags: MW
HStem: 0 21G<21 201 21 21 311 520 311 311 630 810 630 630> 506 184<289 289 721 721> 670 20G<143 436 436 436 632 932 932 932>
VStem: 300 144
LayerCount: 2
Fore
SplineSet
932 690 m 1xb0
 810 0 l 1
 630 0 l 1
 721 506 l 1
 520 0 l 1
 311 0 l 1
 289 506 l 1xd0
 201 0 l 1
 21 0 l 1
 143 690 l 1
 436 690 l 1
 452 194 l 1
 632 690 l 1
 932 690 l 1xb0
EndSplineSet
Position2: "'cpsp' Capital Spacing in Latin lookup 0 subtable" dx=5 dy=0 dh=10 dv=0
EndChar

StartChar: N
Encoding: 78 78 57
Width: 786
GlyphClass: 2
Flags: MW
HStem: 0 21G<21 201 21 21 446 681 446 446> 670 20G<143 367 367 367 623 803 803 803>
VStem: 21 782<0 690>
AnchorPoint: "Anchor-0" 356 0 basechar 0
LayerCount: 2
Fore
SplineSet
803 690 m 1
 681 0 l 1
 446 0 l 1
 281 457 l 1
 201 0 l 1
 21 0 l 1
 143 690 l 1
 367 690 l 1
 540 213 l 1
 623 690 l 1
 803 690 l 1
EndSplineSet
Position2: "'cpsp' Capital Spacing in Latin lookup 0 subtable" dx=5 dy=0 dh=10 dv=0
EndChar

StartChar: P
Encoding: 80 80 73
Width: 649
GlyphClass: 2
Flags: MW
HStem: 0 21G<21 201 21 21> 242 140<269 324 244 339> 550 140<299 368 299 299>
VStem: 477 190<453.5 504>
LayerCount: 2
Fore
SplineSet
501 685 m 0
 587 675 667 615 667 505 c 0
 667 346 549 260 433 247 c 0
 395 243 367 242 324 242 c 2
 244 242 l 1
 201 0 l 1
 21 0 l 1
 143 690 l 1
 393 690 l 2
 436 690 464 689 501 685 c 0
387 383 m 0
 443 388 477 423 477 484 c 0
 477 524 455 546 417 549 c 0
 404 550 387 550 368 550 c 2
 299 550 l 1
 269 382 l 1
 339 382 l 2
 358 382 373 382 387 383 c 0
EndSplineSet
Position2: "'cpsp' Capital Spacing in Latin lookup 0 subtable" dx=5 dy=0 dh=10 dv=0
EndChar

StartChar: Q
Encoding: 81 81 75
Width: 798
GlyphClass: 2
Flags: MW
HStem: -14 132<342 392> 6 112<342 544.5> 572 132<390.5 508>
VStem: 64 190<229.5 344.5 229.5 410> 596 190<349.5 460.5>
LayerCount: 2
Fore
SplineSet
786 415 m 0xb8
 786 284 735 173 658 122 c 1
 689 111 718 93 751 66 c 1
 665 -48 l 1
 601 -9 566 6 523 6 c 0x78
 495 6 478 3 450 -5 c 0
 428 -11 405 -14 379 -14 c 0
 178 -14 64 104 64 275 c 0
 64 545 237 704 471 704 c 0
 672 704 786 586 786 415 c 0xb8
254 280 m 0
 254 179 299 118 385 118 c 0
 534 118 596 281 596 410 c 0
 596 511 551 572 465 572 c 0
 316 572 254 409 254 280 c 0
EndSplineSet
Position2: "'cpsp' Capital Spacing in Latin lookup 0 subtable" dx=5 dy=0 dh=10 dv=0
EndChar

StartChar: S
Encoding: 83 83 80
Width: 627
GlyphClass: 2
Flags: MW
HStem: -14 132<271 325.5 271 359.5> 572 132<339.5 392.5>
VStem: 88 193<480.5 523 480.5 538.5> 398 193<170 207.5> 443 180<477 477>
AnchorPoint: "Anchor-0" 265 0 basechar 0
LayerCount: 2
Fore
SplineSet
380 704 m 0xe8
 562 704 630 605 623 477 c 1
 443 477 l 1xe8
 445 534 422 572 363 572 c 0
 316 572 281 547 281 499 c 0
 281 462 313 436 411 412 c 0
 537 381 591 315 591 228 c 0
 591 67 440 -14 279 -14 c 0
 112 -14 -1 56 15 211 c 1
 195 211 l 1
 195 146 244 118 298 118 c 0
 353 118 398 148 398 192 c 0xf0
 398 223 370 254 298 273 c 0
 165 307 88 356 88 460 c 0
 88 617 229 704 380 704 c 0xe8
EndSplineSet
Position2: "'cpsp' Capital Spacing in Latin lookup 0 subtable" dx=5 dy=0 dh=10 dv=0
EndChar

StartChar: T
Encoding: 84 84 85
Width: 632
GlyphClass: 2
Flags: MW
HStem: 0 21G<191 371 191 191> 550 140<89 288 63 717 468 691 468 468>
VStem: 63 654<550 690>
AnchorPoint: "Anchor-0" 281 0 basechar 0
LayerCount: 2
Fore
SplineSet
691 550 m 1
 468 550 l 1
 371 0 l 1
 191 0 l 1
 288 550 l 1
 63 550 l 1
 89 690 l 1
 717 690 l 1
 691 550 l 1
EndSplineSet
Position2: "'cpsp' Capital Spacing in Latin lookup 0 subtable" dx=5 dy=0 dh=10 dv=0
EndChar

StartChar: V
Encoding: 86 86 99
Width: 742
GlyphClass: 2
Flags: MW
HStem: 0 21G<228 461 228 228> 0 139<371 371 371 461> 670 20G<107 303 303 303 634 825 825 825>
VStem: 107 718<690 690>
LayerCount: 2
Fore
SplineSet
461 0 m 1xb0
 228 0 l 1
 107 690 l 1
 303 690 l 1
 371 139 l 1x70
 634 690 l 1
 825 690 l 1
 461 0 l 1xb0
EndSplineSet
Position2: "'cpsp' Capital Spacing in Latin lookup 0 subtable" dx=5 dy=0 dh=10 dv=0
EndChar

StartChar: X
Encoding: 88 88 105
Width: 704
GlyphClass: 2
Flags: MW
HStem: 0 21G<-70 147 -70 -70 447 652 447 447> 670 20G<69 272 272 272 555 762 762 762>
VStem: -70 832<0 690>
LayerCount: 2
Fore
SplineSet
453 343 m 1
 652 0 l 1
 447 0 l 1
 324 231 l 1
 147 0 l 1
 -70 0 l 1
 247 352 l 1
 69 690 l 1
 272 690 l 1
 375 462 l 1
 555 690 l 1
 762 690 l 1
 453 343 l 1
EndSplineSet
Position2: "'cpsp' Capital Spacing in Latin lookup 0 subtable" dx=5 dy=0 dh=10 dv=0
EndChar

StartChar: Y
Encoding: 89 89 106
Width: 683
GlyphClass: 2
Flags: MW
HStem: 0 21G<220 400 220 220> 670 20G<99 291 291 291 566 765 765 765>
VStem: 99 666<690 690>
LayerCount: 2
Fore
SplineSet
446 259 m 1
 400 0 l 1
 220 0 l 1
 267 265 l 1
 99 690 l 1
 291 690 l 1
 386 414 l 1
 566 690 l 1
 765 690 l 1
 446 259 l 1
EndSplineSet
Position2: "'cpsp' Capital Spacing in Latin lookup 0 subtable" dx=5 dy=0 dh=10 dv=0
EndChar

StartChar: Z
Encoding: 90 90 111
Width: 648
GlyphClass: 2
Flags: MW
HStem: 0 140<255 571> 550 140<156 442 131 689>
VStem: 6 683
LayerCount: 2
Fore
SplineSet
664 551 m 1
 255 140 l 1
 596 140 l 1
 571 0 l 1
 6 0 l 1
 30 136 l 1
 442 550 l 1
 131 550 l 1
 156 690 l 1
 689 690 l 1
 664 551 l 1
EndSplineSet
Position2: "'cpsp' Capital Spacing in Latin lookup 0 subtable" dx=5 dy=0 dh=10 dv=0
EndChar

StartChar: bracketleft
Encoding: 91 91 264
Width: 410
Flags: MW
HStem: -80 96<158 314> 684 96<276 449 276 276>
VStem: 41 425
LayerCount: 2
Fore
SplineSet
193 780 m 1
 466 780 l 1
 449 684 l 1
 276 684 l 1
 158 16 l 1
 331 16 l 1
 314 -80 l 1
 41 -80 l 1
 193 780 l 1
EndSplineSet
EndChar

StartChar: backslash
Encoding: 92 92 245
Width: 346
Flags: MW
HStem: -30 750<61 285 61 180>
VStem: 61 224
LayerCount: 2
Fore
SplineSet
285 -30 m 1
 180 -30 l 1
 61 720 l 1
 166 720 l 1
 285 -30 l 1
EndSplineSet
EndChar

StartChar: bracketright
Encoding: 93 93 265
Width: 410
Flags: MW
HStem: -80 96<-16 157 -16 240 -33 157> 684 96<119 275 102 392>
VStem: -33 425
LayerCount: 2
Fore
SplineSet
240 -80 m 1
 -33 -80 l 1
 -16 16 l 1
 157 16 l 1
 275 684 l 1
 102 684 l 1
 119 780 l 1
 392 780 l 1
 240 -80 l 1
EndSplineSet
EndChar

StartChar: asciicircum
Encoding: 94 94 314
Width: 662
Flags: MW
HStem: 215 401<85 439 85 439 428 439 321 538 428 428>
VStem: 85 453<215 215>
LayerCount: 2
Fore
SplineSet
428 215 m 1
 364 518 l 1
 196 215 l 1
 85 215 l 1
 321 616 l 1
 439 616 l 1
 538 215 l 1
 428 215 l 1
EndSplineSet
EndChar

StartChar: underscore
Encoding: 95 95 261
Width: 500
Flags: MW
HStem: -88 96<58 442 42 458>
VStem: 42 416<-88 8>
LayerCount: 2
Fore
SplineSet
442 -88 m 1
 42 -88 l 1
 58 8 l 1
 458 8 l 1
 442 -88 l 1
EndSplineSet
EndChar

StartChar: grave
Encoding: 96 96 333
Width: 300
Flags: MW
HStem: 569 125<112 139 -21 208 112 112>
VStem: -21 229<569 694>
LayerCount: 2
Fore
SplineSet
208 569 m 1
 112 569 l 1
 -21 694 l 1
 139 694 l 1
 208 569 l 1
EndSplineSet
EndChar

StartChar: b
Encoding: 98 98 126
Width: 679
GlyphClass: 2
Flags: MW
HStem: -14 122<323 369 282 450.5> 0 108<8 369> 426 122<345 517.5> 715 20G<138 318 318 318>
VStem: 471 190<255 349>
LayerCount: 2
Fore
SplineSet
451 548 m 0xb8
 584 548 661 477 661 337 c 0
 661 155 556 -14 345 -14 c 0
 301 -14 251 -4 227 12 c 1
 201 72 l 1xb8
 188 0 l 1
 8 0 l 1x78
 138 735 l 1
 318 735 l 1
 268 455 l 1
 320 515 l 1
 353 537 397 548 451 548 c 0xb8
327 108 m 0
 411 108 471 202 471 308 c 0
 471 390 433 426 378 426 c 0
 312 426 257 384 237 274 c 1
 238 285 l 1
 236 274 l 1
 232 251 l 1
 230 242 l 1
 233 251 l 1
 221 179 237 108 327 108 c 0
EndSplineSet
EndChar

StartChar: d
Encoding: 100 100 132
Width: 679
GlyphClass: 2
Flags: MW
HStem: -14 122<162.5 335> 0 108<274.5 577 274.5 397> 426 122<311 357 229.5 398> 715 20G<527 707 707 707>
VStem: 19 190<185 279 185 288>
LayerCount: 2
Fore
SplineSet
707 735 m 1x78
 577 0 l 1
 397 0 l 1
 411 78 l 1x78
 360 19 l 1
 327 -3 283 -14 229 -14 c 0xb8
 96 -14 19 57 19 197 c 0
 19 379 124 548 335 548 c 0
 379 548 429 538 453 522 c 1
 479 463 l 1
 527 735 l 1
 707 735 l 1x78
443 260 m 2
 447 283 l 2
 459 355 443 426 353 426 c 0
 269 426 209 332 209 226 c 0
 209 144 247 108 302 108 c 0
 368 108 423 150 443 260 c 2
EndSplineSet
EndChar

StartChar: f
Encoding: 102 102 145
Width: 349
GlyphClass: 2
Flags: MW
HStem: 0 21G<14 194 14 14> 418 112<59 88 40 107 286 376> 632 114<365.5 443>
VStem: 14 429
LayerCount: 2
Fore
SplineSet
296 574 m 0
 292 560 289 547 287 535 c 2
 286 530 l 1
 395 530 l 1
 376 418 l 1
 267 418 l 1
 194 0 l 1
 14 0 l 1
 88 418 l 1
 40 418 l 1
 59 530 l 1
 107 530 l 1
 108 534 l 2
 111 550 116 574 121 592 c 0
 149 702 219 754 324 754 c 0
 385 754 416 751 443 746 c 1
 422 629 l 1
 410 631 399 632 389 632 c 0
 342 632 307 612 296 574 c 0
EndSplineSet
EndChar

StartChar: h
Encoding: 104 104 150
Width: 643
GlyphClass: 2
Flags: MW
HStem: 0 21G<8 188 8 8 368 548 368 368> 426 122<326.5 508.5> 528 20G<429.5 508.5> 720 20G<138 318 318 318>
VStem: 426 189<341.5 450.5>
LayerCount: 2
Fore
SplineSet
454 548 m 0xb8
 563 548 615 490 615 411 c 0
 615 383 611 353 603 308 c 2
 548 0 l 1
 368 0 l 1
 416 268 l 2
 422 303 426 332 426 351 c 0
 426 396 408 426 355 426 c 0xd8
 298 426 253 369 231 248 c 1
 188 0 l 1
 8 0 l 1
 138 740 l 1
 318 740 l 1
 268 458 l 1
 328 517 l 1
 365 537 405 548 454 548 c 0xb8
EndSplineSet
EndChar

StartChar: i
Encoding: 105 105 152
Width: 290
GlyphClass: 2
Flags: MW
HStem: 0 21G<8 188 8 8> 514 20G<103 283 283 283> 575 176<195 243.5>
VStem: 126 186<652 674.5>
LayerCount: 2
Fore
SplineSet
230 751 m 0
 281 751 312 723 312 676 c 0
 312 628 279 575 208 575 c 0
 157 575 126 603 126 650 c 0
 126 699 160 751 230 751 c 0
188 0 m 1
 8 0 l 1
 103 534 l 1
 283 534 l 1
 188 0 l 1
EndSplineSet
EndChar

StartChar: j
Encoding: 106 106 161
Width: 270
GlyphClass: 2
Flags: MW
HStem: -210 125<-125 -9.5> 514 20G<86 266 266 266> 575 176<172 226>
VStem: 104 190<643.5 682.5>
LayerCount: 2
Fore
SplineSet
205 751 m 0
 263 751 294 723 294 678 c 0
 294 609 259 575 193 575 c 0
 135 575 104 603 104 648 c 0
 104 717 139 751 205 751 c 0
266 534 m 1
 175 16 l 2
 172 -4 166 -30 161 -48 c 0
 137 -148 68 -210 -87 -210 c 0
 -108 -210 -129 -209 -146 -206 c 1
 -125 -85 l 1
 -60 -92 -29 -79 -16 -33 c 0
 -12 -19 -8 0 -5 15 c 2
 86 534 l 1
 266 534 l 1
EndSplineSet
EndChar

StartChar: k
Encoding: 107 107 162
Width: 641
GlyphClass: 2
Flags: MW
HStem: 0 21G<8 188 8 8 389 608 389 389> 514 20G<470 681 681 681> 715 20G<138 318 318 318>
VStem: 8 673<0 534>
AnchorPoint: "Anchor-0" 276 0 basechar 0
LayerCount: 2
Fore
SplineSet
411 285 m 1
 608 0 l 1
 389 0 l 1
 268 200 l 1
 215 155 l 1
 188 0 l 1
 8 0 l 1
 138 735 l 1
 318 735 l 1
 243 311 l 1
 470 534 l 1
 681 534 l 1
 411 285 l 1
EndSplineSet
EndChar

StartChar: m
Encoding: 109 109 170
Width: 966
GlyphClass: 2
Flags: MW
HStem: 0 21G<8 188 8 8 350 530 350 350 692 872 692 692> 426 108<102 366> 426 122<320 486.5>
VStem: 749 191<343 451>
LayerCount: 2
Fore
SplineSet
775 548 m 0xb0
 891 548 940 487 940 415 c 0
 940 388 935 356 927 312 c 2
 872 0 l 1
 692 0 l 1
 740 272 l 2
 744 296 749 331 749 355 c 0
 749 400 730 426 692 426 c 0
 642 426 595 369 580 282 c 2
 530 0 l 1
 350 0 l 1
 398 272 l 2
 402 300 407 333 407 355 c 0
 407 400 388 426 344 426 c 0
 296 426 254 373 238 282 c 2
 188 0 l 1
 8 0 l 1
 102 534 l 1
 282 534 l 1
 269 460 l 1xd0
 322 517 l 1
 359 537 394 548 443 548 c 0
 530 548 579 507 593 452 c 1
 644 509 l 1
 687 540 726 548 775 548 c 0xb0
EndSplineSet
EndChar

StartChar: o
Encoding: 111 111 177
Width: 639
GlyphClass: 2
Flags: MW
HStem: -14 122<269 341 269 394.5> 426 122<299 371>
VStem: 23 190<193 278.5 193 310> 427 190<255.5 341>
LayerCount: 2
Fore
SplineSet
355 548 m 0
 528 548 617 451 617 310 c 0
 617 138 504 -14 285 -14 c 0
 112 -14 23 83 23 224 c 0
 23 396 136 548 355 548 c 0
298 108 m 0
 384 108 427 205 427 306 c 0
 427 376 400 426 342 426 c 0
 256 426 213 329 213 228 c 0
 213 158 240 108 298 108 c 0
EndSplineSet
EndChar

StartChar: p
Encoding: 112 112 187
Width: 679
GlyphClass: 2
Flags: MW
HStem: -14 122<323 369 282 450.5> 426 108<103 405.5> 426 122<345 517.5>
VStem: 471 190<255 349>
LayerCount: 2
Fore
SplineSet
451 548 m 0xb0
 584 548 661 477 661 337 c 0
 661 155 556 -14 345 -14 c 0
 301 -14 251 -4 227 12 c 1
 201 72 l 1
 153 -196 l 1
 -27 -196 l 1
 103 534 l 1
 283 534 l 1
 269 456 l 1xd0
 320 515 l 1
 353 537 397 548 451 548 c 0xb0
327 108 m 0xd0
 411 108 471 202 471 308 c 0
 471 390 433 426 378 426 c 0
 312 426 257 384 237 274 c 2
 233 251 l 2
 221 179 237 108 327 108 c 0xd0
EndSplineSet
EndChar

StartChar: q
Encoding: 113 113 189
Width: 679
GlyphClass: 2
Flags: MW
HStem: -14 122<162.5 335> 426 108<311 672> 426 122<311 357 229.5 398>
VStem: 19 190<185 279 185 288>
LayerCount: 2
Fore
SplineSet
672 534 m 1xd0
 542 -196 l 1
 362 -196 l 1
 411 78 l 1
 360 19 l 1
 327 -3 283 -14 229 -14 c 0
 96 -14 19 57 19 197 c 0
 19 379 124 548 335 548 c 0
 379 548 429 538 453 522 c 1
 479 462 l 1xb0
 492 534 l 1
 672 534 l 1xd0
443 260 m 2
 447 283 l 2
 459 355 443 426 353 426 c 0
 269 426 209 332 209 226 c 0
 209 144 247 108 302 108 c 0
 368 108 423 150 443 260 c 2
EndSplineSet
EndChar

StartChar: r
Encoding: 114 114 190
Width: 416
GlyphClass: 2
Flags: MW
HStem: 0 21G<8 188 8 8> 400.12 129.88 400.12 147.88 525 20G<468 468>
VStem: 8 460
AnchorPoint: "Anchor-0" 98 0 basechar 0
LayerCount: 2
Fore
SplineSet
428 548 m 0xa8
 445 548 456 547 468 545 c 1x98
 443 398 l 1xa8
 347 408 258 389 223 196 c 2
 188 0 l 1
 8 0 l 1
 101 530 l 1
 281 530 l 1xc8
 263 425 l 1
 315 501 l 1
 349 533 394 548 428 548 c 0xa8
EndSplineSet
EndChar

StartChar: t
Encoding: 116 116 200
Width: 395
GlyphClass: 2
Flags: MW
HStem: -14 123.24 -14 126<151.5 351> 418 112<49 110 29 129 310 406>
VStem: 29 397<418 530> 58 190<54.5 169.5>
AnchorPoint: "Anchor-0" 172 0 basechar 0
LayerCount: 2
Fore
SplineSet
290 418 m 1xb0
 255 221 l 2
 250 194 248 179 248 160 c 0xa8
 248 114 279 103 351 112 c 1x70
 331 -1 l 1
 289 -10 250 -14 206 -14 c 0
 97 -14 58 20 58 89 c 0
 58 114 61 144 70 195 c 2
 110 418 l 1
 29 418 l 1
 49 530 l 1
 129 530 l 1
 154 668 l 1xa8
 334 668 l 1
 310 530 l 1
 426 530 l 1
 406 418 l 1
 290 418 l 1xb0
EndSplineSet
EndChar

StartChar: v
Encoding: 118 118 214
Width: 584
GlyphClass: 2
Flags: MW
HStem: 0 21G<145 344 145 145> 0 152<273 273 273 344 145 273> 514 20G<31 231 231 231 450 647 647 647>
VStem: 31 616<534 534>
LayerCount: 2
Fore
SplineSet
647 534 m 1xb0
 344 0 l 1
 145 0 l 1
 31 534 l 1
 231 534 l 1
 273 152 l 1x70
 450 534 l 1
 647 534 l 1xb0
EndSplineSet
EndChar

StartChar: w
Encoding: 119 119 215
Width: 844
GlyphClass: 2
Flags: MW
HStem: 0 21G<106 307 106 106 443 644 443 443> 0 159<580 580 580 644 443 580> 514 20G<31 229 229 229 713 907 907 907>
VStem: 440.5 137.5
LayerCount: 2
Fore
SplineSet
907 534 m 1xb0
 644 0 l 1
 443 0 l 1
 438 363 l 1
 307 0 l 1
 106 0 l 1
 31 534 l 1
 229 534 l 1
 235 161 l 1
 362 530 l 1
 576 530 l 1
 580 159 l 1x70
 713 534 l 1
 907 534 l 1xb0
EndSplineSet
EndChar

StartChar: x
Encoding: 120 120 220
Width: 579
GlyphClass: 2
Flags: MW
HStem: 0 21G<-59 148 -59 -59 323 533 323 323> 514 20G<42 252 252 252 418 625 625 625>
VStem: -59 684<0 534>
LayerCount: 2
Fore
SplineSet
381 266 m 1
 533 0 l 1
 323 0 l 1
 257 147 l 1
 148 0 l 1
 -59 0 l 1
 180 266 l 1
 42 534 l 1
 252 534 l 1
 306 386 l 1
 418 534 l 1
 625 534 l 1
 381 266 l 1
EndSplineSet
EndChar

StartChar: y
Encoding: 121 121 221
Width: 584
GlyphClass: 2
Flags: MW
HStem: -210 116<45.5 73.5 44.5 120.5> 514 20G<31 231 231 231 450 647 647 647>
VStem: -15 662
LayerCount: 2
Fore
SplineSet
647 534 m 1
 344 0 l 2
 256 -155 181 -210 60 -210 c 0
 31 -210 9 -208 -15 -204 c 1
 4 -90 l 1
 20 -93 35 -94 54 -94 c 0
 93 -94 124 -76 146 -33 c 1
 150 -24 l 1
 31 534 l 1
 231 534 l 1
 273 151 l 1
 450 534 l 1
 647 534 l 1
EndSplineSet
EndChar

StartChar: z
Encoding: 122 122 226
Width: 543
GlyphClass: 2
Flags: MW
HStem: 0 112<215 472> 418 112<95 322 76 556>
VStem: -21 577<0 530>
LayerCount: 2
Fore
SplineSet
537 420 m 1
 215 112 l 1
 491 112 l 1
 472 0 l 1
 -21 0 l 1
 -3 105 l 1
 322 418 l 1
 76 418 l 1
 95 530 l 1
 556 530 l 1
 537 420 l 1
EndSplineSet
EndChar

StartChar: bar
Encoding: 124 124 316
Width: 333
Flags: MW
HStem: -200 1000<17 309 17 309>
VStem: 17 292
LayerCount: 2
Fore
SplineSet
133 -200 m 1
 17 -200 l 1
 193 800 l 1
 309 800 l 1
 133 -200 l 1
EndSplineSet
EndChar

StartChar: braceright
Encoding: 125 125 263
Width: 430
Flags: MW
HStem: -80 96<26 48 48 60 9 48> 684 96<161 166 144 212>
VStem: 125 100<155 208> 166 102<432 443> 227 102<656.5 666>
LayerCount: 2
Fore
SplineSet
268 443 m 0xd0
 268 421 282 401 340 398 c 1xd0
 324 302 l 1
 241 297 225 272 225 155 c 0
 224 -28 187 -80 60 -80 c 2
 9 -80 l 1
 26 16 l 1
 48 16 l 2
 102 16 125 31 125 145 c 0xe0
 125 271 145 332 233 349 c 1
 187 361 166 387 166 427 c 0xd0
 166 459 172 496 196 555 c 0
 222 620 227 632 227 652 c 0
 227 680 208 684 166 684 c 2
 144 684 l 1
 161 780 l 1
 212 780 l 2
 296 780 329 731 329 675 c 0xc8
 329 638 323 620 293 545 c 0
 274 497 268 463 268 443 c 0xd0
EndSplineSet
EndChar

StartChar: asciitilde
Encoding: 126 126 290
Width: 662
Flags: MW
HStem: 223 107<425.5 452 425.5 469.5> 299 107<207 234>
VStem: 70 521<223 406>
LayerCount: 2
Fore
SplineSet
495 406 m 1x60
 591 406 l 1
 569 281 512 223 427 223 c 0
 384 223 355 238 308 264 c 0
 263 290 244 299 224 299 c 0
 190 299 175 273 166 223 c 1
 70 223 l 1
 92 349 149 406 234 406 c 0x60
 279 406 309 390 353 365 c 0
 394 341 414 330 437 330 c 0xa0
 467 330 485 349 495 406 c 1x60
EndSplineSet
EndChar

StartChar: exclamdown
Encoding: 161 161 251
Width: 280
Flags: MW
HStem: 370 178<134.5 183>
VStem: 66 186<447.5 470>
LayerCount: 2
Fore
SplineSet
148 370 m 0
 97 370 66 399 66 446 c 0
 66 494 99 548 170 548 c 0
 221 548 252 519 252 472 c 0
 252 423 218 370 148 370 c 0
67 324 m 1
 205 324 l 1
 116 -156 l 1
 -46 -156 l 1
 67 324 l 1
EndSplineSet
EndChar

StartChar: cent
Encoding: 162 162 283
Width: 662
Flags: MW
HStem: -10 21G<236 236> 326 294<441 448 348 615 441 441>
VStem: 42 190<193 255 193 302.5> 441 174<326 345.5>
LayerCount: 2
Fore
SplineSet
410 406 m 1
 359 121 l 1
 384 135 404 160 416 196 c 1
 593 196 l 1
 550 71 466 0 336 -12 c 1
 322 -90 l 1
 222 -90 l 1
 236 -10 l 1
 122 6 42 76 42 215 c 0
 42 390 158 525 334 542 c 1
 348 620 l 1
 448 620 l 1
 434 539 l 1
 559 519 615 435 615 326 c 1
 441 326 l 1
 441 365 430 391 410 406 c 1
232 213 m 0
 232 173 243 144 260 127 c 1
 310 408 l 1
 260 377 232 297 232 213 c 0
EndSplineSet
EndChar

StartChar: sterling
Encoding: 163 163 287
Width: 630
Flags: MW
HStem: 0 140<222 535> 289 88<65 114 65 138 50 114 319 484 319 319> 572 132<338 385>
VStem: 99 186<459 502.5 459 534> 140 179<258.5 266.5> 428 180<493 493>
LayerCount: 2
Fore
SplineSet
319 289 m 1xec
 319 285 l 2
 319 232 290 172 222 140 c 1
 560 140 l 1
 535 0 l 1
 -10 0 l 1
 12 124 l 1
 112 141 140 205 140 263 c 0
 140 270 139 279 138 289 c 1
 50 289 l 1
 65 377 l 1xec
 114 377 l 1
 105 405 99 435 99 469 c 0
 99 599 199 704 373 704 c 0
 552 704 601 596 608 493 c 1
 428 493 l 1
 427 537 405 572 365 572 c 0
 311 572 285 526 285 479 c 0
 285 439 293 412 305 377 c 1xf4
 499 377 l 1
 484 289 l 1
 319 289 l 1xec
EndSplineSet
EndChar

StartChar: currency
Encoding: 164 164 284
Width: 662
Flags: MW
HStem: 121 94<303 335> 387 94
VStem: 155 102<275 306.5> 413 102<295 327>
LayerCount: 2
Fore
SplineSet
561 445 m 1
 499 391 l 1
 509 368 515 341 515 313 c 0
 515 277 500 234 473 198 c 1
 515 146 l 1
 455 95 l 1
 412 145 l 1
 385 130 353 121 317 121 c 0
 276 121 242 133 216 153 c 1
 156 104 l 1
 111 159 l 1
 171 211 l 1
 160 234 155 261 155 289 c 0
 155 324 168 367 194 402 c 1
 153 453 l 1
 218 508 l 1
 259 460 l 1
 286 474 317 482 353 481 c 0
 393 480 427 468 453 448 c 1
 516 500 l 1
 561 445 l 1
326 215 m 0
 388 215 413 267 413 308 c 0
 413 355 390 387 344 387 c 0
 282 387 257 335 257 294 c 0
 257 247 280 215 326 215 c 0
EndSplineSet
EndChar

StartChar: yen
Encoding: 165 165 288
Width: 662
Flags: MW
HStem: 0 227<184 224 74 364 184 184> 131 96<74 207 57 224 404 537> 284 96<101 206 101 234 84 206 477 564> 670 20G<89 275 275 275 522 703 703 703>
VStem: 57 646<131 690>
LayerCount: 2
Fore
SplineSet
477 380 m 1xb8
 581 380 l 1
 564 284 l 1
 414 284 l 1
 404 227 l 1
 554 227 l 1xb8
 537 131 l 1
 387 131 l 1x78
 364 0 l 1
 184 0 l 1xb8
 207 131 l 1
 57 131 l 1x78
 74 227 l 1
 224 227 l 1
 234 284 l 1
 84 284 l 1
 101 380 l 1
 206 380 l 1
 89 690 l 1
 275 690 l 1
 347 390 l 1
 522 690 l 1
 703 690 l 1
 477 380 l 1xb8
EndSplineSet
EndChar

StartChar: brokenbar
Encoding: 166 166 317
Width: 317
Flags: MW
HStem: 670 20G<174 274 274 274>
VStem: 24 250
LayerCount: 2
Fore
SplineSet
214 350 m 1
 114 350 l 1
 174 690 l 1
 274 690 l 1
 214 350 l 1
124 -160 m 1
 24 -160 l 1
 84 180 l 1
 184 180 l 1
 124 -160 l 1
EndSplineSet
EndChar

StartChar: section
Encoding: 167 167 324
Width: 662
Flags: MW
HStem: -174 112<245 282 245 336.5> 526 178<421 448.5 297.5 598 421 421> 592 112<353.5 387.5>
VStem: 19 177<6 6> 36 186<276 302 276 307> 134 186<505.5 540.5 502.5 560> 332 186<-26 17> 433 186<217.5 250>
LayerCount: 2
Fore
SplineSet
619 242 m 0xa5
 619 183 580 119 500 81 c 1
 512 60 518 36 518 12 c 0
 518 -101 415 -174 258 -174 c 0
 124 -174 32 -114 19 6 c 1
 196 6 l 1xd2
 199 -35 226 -62 264 -62 c 0
 300 -62 332 -48 332 -4 c 0
 332 38 303 65 196 102 c 0
 94 137 36 187 36 273 c 0xca
 36 341 70 408 147 448 c 1
 138 469 134 492 134 519 c 0
 134 601 219 704 376 704 c 0
 521 704 585 631 598 526 c 1
 421 526 l 1xc6
 419 571 401 592 374 592 c 0
 333 592 320 555 320 526 c 0
 320 479 348 463 431 438 c 0
 558 399 619 343 619 242 c 0xa5
308 214 m 0xc9
 344 202 375 188 402 172 c 1
 420 183 433 203 433 232 c 0
 433 268 407 288 336 314 c 0
 303 326 274 338 249 351 c 1
 228 336 222 311 222 293 c 0
 222 259 251 234 308 214 c 0xc9
EndSplineSet
EndChar

StartChar: dieresis
Encoding: 168 168 331
Width: 300
Flags: MW
HStem: 569 146<29.5 53.5 229.5 253.5>
VStem: -34 150<626.5 657.5> 166 150<626.5 657.5>
LayerCount: 2
Fore
SplineSet
49 715 m 0
 91 715 116 694 116 654 c 0
 116 599 73 569 34 569 c 0
 -10 569 -34 591 -34 630 c 0
 -34 685 10 715 49 715 c 0
249 715 m 0
 291 715 316 694 316 654 c 0
 316 599 273 569 234 569 c 0
 190 569 166 591 166 630 c 0
 166 685 210 715 249 715 c 0
EndSplineSet
EndChar

StartChar: copyright
Encoding: 169 169 318
Width: 860
Flags: MW
HStem: -49 98<340.5 519.5 340.5 551> 126 102<413.5 453.5 413.5 497> 480 102<407 455> 663 96<340.5 519.5>
VStem: 16 108<265.5 445 265.5 473.5> 209 154<311 395 311 423> 503 147<394 394> 736 108<265.5 445>
LayerCount: 2
Fore
SplineSet
430 759 m 0
 672 759 844 592 844 355 c 0
 844 118 672 -49 430 -49 c 0
 188 -49 16 118 16 355 c 0
 16 592 188 759 430 759 c 0
430 663 m 0
 251 663 124 535 124 355 c 0
 124 176 251 49 430 49 c 0
 609 49 736 176 736 355 c 0
 736 535 609 663 430 663 c 0
439 582 m 0
 568 582 641 507 650 394 c 1
 503 394 l 1
 499 448 477 480 433 480 c 0
 381 480 363 434 363 356 c 0
 363 266 390 228 437 228 c 0
 470 228 499 251 502 314 c 1
 649 314 l 1
 633 200 562 126 432 126 c 0
 300 126 209 211 209 355 c 0
 209 491 300 582 439 582 c 0
EndSplineSet
EndChar

StartChar: guillemotleft
Encoding: 171 171 272
Width: 679
Flags: MW
HStem: 82 332<275 342 217 416 275 457 515 582>
VStem: 109 547<248 414>
LayerCount: 2
Fore
SplineSet
240 238 m 1
 342 82 l 1
 217 82 l 1
 109 248 l 1
 275 414 l 1
 416 414 l 1
 240 238 l 1
480 238 m 1
 582 82 l 1
 457 82 l 1
 349 248 l 1
 515 414 l 1
 656 414 l 1
 480 238 l 1
EndSplineSet
EndChar

StartChar: logicalnot
Encoding: 172 172 300
Width: 662
Flags: MW
HStem: 302 96<145 440 128 557>
VStem: 128 429<302 398>
LayerCount: 2
Fore
SplineSet
517 172 m 1
 417 172 l 1
 440 302 l 1
 128 302 l 1
 145 398 l 1
 557 398 l 1
 517 172 l 1
EndSplineSet
EndChar

StartChar: registered
Encoding: 174 174 323
Width: 486
Flags: MW
HStem: 344 56<182.5 281 182.5 287.5> 523 46<225 230 216 236> 622 45<234 244 234 234> 708 56<205 303.5>
VStem: 28 61<493 581.5 493 594> 253 61 279 63<594.5 605.5> 397 61<526.5 615>
LayerCount: 2
Fore
SplineSet
270 764 m 0xfb
 389 764 458 678 458 578 c 0
 458 449 359 344 216 344 c 0
 97 344 28 430 28 530 c 0
 28 658 127 764 270 764 c 0xfb
226 400 m 0
 336 400 397 477 397 576 c 0
 397 654 347 708 260 708 c 0
 150 708 89 631 89 532 c 0
 89 454 139 400 226 400 c 0
276 666 m 0
 318 662 342 641 342 609 c 0xfb
 342 580 322 560 288 553 c 1
 307 547 314 532 314 507 c 0
 314 488 316 474 326 453 c 1
 258 453 l 1
 254 466 252 483 253 498 c 0
 254 514 247 523 230 523 c 2
 216 523 l 1
 204 453 l 1xfd
 144 453 l 1
 182 667 l 1
 249 667 l 2
 259 667 267 667 276 666 c 0
256 570 m 0
 270 573 279 585 279 599 c 0
 279 612 272 619 263 621 c 0
 256 622 252 622 244 622 c 2
 234 622 l 1
 225 569 l 1
 236 569 l 2
 244 569 249 569 256 570 c 0
EndSplineSet
EndChar

StartChar: macron
Encoding: 175 175 335
Width: 300
Flags: MW
HStem: 583 96<8 292 -8 308>
VStem: -8 316<583 679>
LayerCount: 2
Fore
SplineSet
292 583 m 1
 -8 583 l 1
 8 679 l 1
 308 679 l 1
 292 583 l 1
EndSplineSet
EndChar

StartChar: degree
Encoding: 176 176 321
Width: 325
Flags: MW
HStem: 479 88<206.5 233.5 206.5 252.5> 661 88<214.5 241.5>
VStem: 82 95<596 624 596 646.5> 271 95<604 632>
LayerCount: 2
Fore
SplineSet
238 749 m 0
 318 749 366 698 366 627 c 0
 366 536 293 479 212 479 c 0
 130 479 82 530 82 601 c 0
 82 692 155 749 238 749 c 0
230 661 m 0
 199 661 177 638 177 610 c 0
 177 582 195 567 218 567 c 0
 249 567 271 590 271 618 c 0
 271 646 253 661 230 661 c 0
EndSplineSet
EndChar

StartChar: plusminus
Encoding: 177 177 308
Width: 662
Flags: MW
HStem: 0 88<98 482 82 498> 270 96<147 280 130 297 397 530 147 380>
VStem: 82 465<0 366>
LayerCount: 2
Fore
SplineSet
547 366 m 1
 530 270 l 1
 380 270 l 1
 354 126 l 1
 254 126 l 1
 280 270 l 1
 130 270 l 1
 147 366 l 1
 297 366 l 1
 322 508 l 1
 422 508 l 1
 397 366 l 1
 547 366 l 1
98 88 m 1
 498 88 l 1
 482 0 l 1
 82 0 l 1
 98 88 l 1
EndSplineSet
EndChar

StartChar: acute
Encoding: 180 180 326
Width: 300
Flags: MW
HStem: 569 125<85 358 85 358>
VStem: 85 273<569 694>
LayerCount: 2
Fore
SplineSet
181 569 m 1
 85 569 l 1
 198 694 l 1
 358 694 l 1
 181 569 l 1
EndSplineSet
EndChar

StartChar: paragraph
Encoding: 182 182 322
Width: 621
Flags: MW
HStem: 594 96<411 524 411 411>
VStem: 78 563<442.5 690>
LayerCount: 2
Fore
SplineSet
641 690 m 1
 499 -110 l 1
 399 -110 l 1
 524 594 l 1
 411 594 l 1
 286 -110 l 1
 186 -110 l 1
 262 320 l 1
 244 320 223 320 206 321 c 0
 121 326 78 404 78 481 c 0
 78 566 135 681 271 689 c 0
 289 690 310 690 328 690 c 2
 641 690 l 1
EndSplineSet
EndChar

StartChar: periodcentered
Encoding: 183 183 254
Width: 280
Flags: MW
HStem: 205 200<131.5 166.5>
VStem: 47 204<290.5 319.5>
LayerCount: 2
Fore
SplineSet
167 405 m 0
 213 405 251 379 251 328 c 0
 251 253 202 205 131 205 c 0
 86 205 47 231 47 282 c 0
 47 357 96 405 167 405 c 0
EndSplineSet
EndChar

StartChar: cedilla
Encoding: 184 184 329
Width: 300
Flags: MW
HStem: -210 69<93 116 87 154> -88 97<68 220>
VStem: 160 109<-121.5 -100.5>
LayerCount: 2
Fore
SplineSet
220 9 m 1
 185 -42 l 1
 240 -50 269 -73 269 -111 c 0
 269 -179 196 -210 112 -210 c 0
 74 -210 45 -208 26 -203 c 1
 39 -134 l 1
 61 -140 78 -141 96 -141 c 0
 136 -141 160 -131 160 -112 c 0
 160 -89 120 -84 68 -88 c 1
 132 9 l 1
 220 9 l 1
EndSplineSet
EndChar

StartChar: guillemotright
Encoding: 187 187 273
Width: 691
Flags: MW
HStem: 82 332<90 157 16 215 90 256 330 397>
VStem: 16 547<82 248>
LayerCount: 2
Fore
SplineSet
323 248 m 1
 157 82 l 1
 16 82 l 1
 192 258 l 1
 90 414 l 1
 215 414 l 1
 323 248 l 1
563 248 m 1
 397 82 l 1
 256 82 l 1
 432 258 l 1
 330 414 l 1
 455 414 l 1
 563 248 l 1
EndSplineSet
EndChar

StartChar: questiondown
Encoding: 191 191 256
Width: 510
Flags: MW
HStem: -170 132<150 192 150 213.5> 370 178<226.5 275>
VStem: -81 192<0.5 38> 158 186<447.5 470>
LayerCount: 2
Fore
SplineSet
240 370 m 0
 189 370 158 399 158 446 c 0
 158 494 191 548 262 548 c 0
 313 548 344 519 344 472 c 0
 344 423 310 370 240 370 c 0
133 -170 m 0
 -4 -170 -81 -111 -81 -9 c 0
 -81 85 -43 132 61 206 c 0
 118 247 141 271 157 324 c 1
 303 324 l 1
 286 243 260 207 209 161 c 0
 134 94 111 65 111 19 c 0
 111 -18 130 -38 170 -38 c 0
 214 -38 245 -7 260 60 c 1
 440 60 l 1
 411 -84 294 -170 133 -170 c 0
EndSplineSet
EndChar

StartChar: Agrave
Encoding: 192 192 6
Width: 707
GlyphClass: 2
Flags: MW
HStem: 0 21G<-43 148 -43 -43 479 479 479 675> 179 140<304 433 304 453 236 433> 523 167<404 404> 670 20G<321 554 554 554> 735 125<411 411 411 438 278 507>
VStem: -43 718<0 0>
LayerCount: 2
Fore
SplineSet
411 735 m 1xdc
 278 860 l 1
 438 860 l 1
 507 735 l 1
 411 735 l 1xdc
453 179 m 1
 236 179 l 1
 148 0 l 1
 -43 0 l 1
 321 690 l 1
 554 690 l 1
 675 0 l 1
 479 0 l 1
 453 179 l 1
433 319 m 1
 404 523 l 1xec
 304 319 l 1
 433 319 l 1
EndSplineSet
Position2: "'cpsp' Capital Spacing in Latin lookup 0 subtable" dx=5 dy=0 dh=10 dv=0
EndChar

StartChar: Aacute
Encoding: 193 193 2
Width: 707
GlyphClass: 2
Flags: MW
HStem: 0 21G<-43 148 -43 -43 479 479 479 675> 179 140<304 433 304 453 236 433> 523 167<404 404> 670 20G<321 554 554 554> 735 125<392 665 392 665>
VStem: -43 718<0 0>
LayerCount: 2
Fore
SplineSet
488 735 m 1xdc
 392 735 l 1
 505 860 l 1
 665 860 l 1
 488 735 l 1xdc
453 179 m 1
 236 179 l 1
 148 0 l 1
 -43 0 l 1
 321 690 l 1
 554 690 l 1
 675 0 l 1
 479 0 l 1
 453 179 l 1
433 319 m 1
 404 523 l 1xec
 304 319 l 1
 433 319 l 1
EndSplineSet
Position2: "'cpsp' Capital Spacing in Latin lookup 0 subtable" dx=5 dy=0 dh=10 dv=0
EndChar

StartChar: Acircumflex
Encoding: 194 194 4
Width: 707
GlyphClass: 2
Flags: MW
HStem: 0 21G<-43 148 -43 -43 479 479 479 675> 179 140<304 433 304 453 236 433> 523 167<404 404> 670 20G<321 554 554 554> 735 125<394 413 310 543 479 479 479 543 394 583>
VStem: -43 718<0 0>
LayerCount: 2
Fore
SplineSet
413 735 m 1xdc
 310 735 l 1
 394 860 l 1
 543 860 l 1
 583 735 l 1
 479 735 l 1
 460 807 l 1
 413 735 l 1xdc
453 179 m 1
 236 179 l 1
 148 0 l 1
 -43 0 l 1
 321 690 l 1
 554 690 l 1
 675 0 l 1
 479 0 l 1
 453 179 l 1
433 319 m 1
 404 523 l 1xec
 304 319 l 1
 433 319 l 1
EndSplineSet
Position2: "'cpsp' Capital Spacing in Latin lookup 0 subtable" dx=5 dy=0 dh=10 dv=0
EndChar

StartChar: Atilde
Encoding: 195 195 10
Width: 707
GlyphClass: 2
Flags: MW
HStem: 0 21G<-43 148 -43 -43 479 479 479 675> 179 140<304 433 304 453 236 433> 523 167<404 404> 670 20G<321 554 554 554> 739 134<539 562> 742 134<356 379 283 399>
VStem: -43 718<0 0>
LayerCount: 2
Fore
SplineSet
402 773 m 0xd6
 391 773 383 764 379 742 c 1
 283 742 l 1
 300 835 325 876 387 876 c 0xd6
 411 876 430 873 471 855 c 0
 494 845 507 842 518 842 c 0
 529 842 535 851 539 873 c 1
 635 873 l 1
 618 780 593 739 531 739 c 0xda
 509 739 491 741 447 760 c 0
 426 769 414 773 402 773 c 0xd6
453 179 m 1xda
 236 179 l 1
 148 0 l 1
 -43 0 l 1
 321 690 l 1
 554 690 l 1
 675 0 l 1
 479 0 l 1
 453 179 l 1xda
433 319 m 1
 404 523 l 1xea
 304 319 l 1
 433 319 l 1
EndSplineSet
Position2: "'cpsp' Capital Spacing in Latin lookup 0 subtable" dx=5 dy=0 dh=10 dv=0
EndChar

StartChar: Adieresis
Encoding: 196 196 5
Width: 707
GlyphClass: 2
Flags: MW
HStem: 0 21G<-43 148 -43 -43 479 479 479 675> 179 140<304 433 304 453 236 433> 523 167<404 404> 670 20G<321 554 554 554> 722 146<343.5 367.5 543.5 567.5>
VStem: 280 150<779.5 810.5> 480 150<779.5 810.5>
LayerCount: 2
Fore
SplineSet
348 722 m 0xde
 304 722 280 744 280 783 c 0
 280 838 324 868 363 868 c 0
 405 868 430 847 430 807 c 0
 430 752 387 722 348 722 c 0xde
548 722 m 0
 504 722 480 744 480 783 c 0
 480 838 524 868 563 868 c 0
 605 868 630 847 630 807 c 0
 630 752 587 722 548 722 c 0
453 179 m 1
 236 179 l 1
 148 0 l 1
 -43 0 l 1
 321 690 l 1
 554 690 l 1
 675 0 l 1
 479 0 l 1
 453 179 l 1
433 319 m 1
 404 523 l 1xee
 304 319 l 1
 433 319 l 1
EndSplineSet
Position2: "'cpsp' Capital Spacing in Latin lookup 0 subtable" dx=5 dy=0 dh=10 dv=0
EndChar

StartChar: Aring
Encoding: 197 197 9
Width: 707
GlyphClass: 2
Flags: MW
HStem: 0 21G<-43 148 -43 -43 479 479 479 675> 179 140<304 433 304 453 236 433> 523 167<404 404> 670 20G<321 554 554 554> 722 66<446 466.5 446 486> 866 66<457.5 478>
VStem: 341 84<809 832 809 849> 499 84<822 845>
LayerCount: 2
Fore
SplineSet
445 722 m 0xdf
 383 722 341 762 341 814 c 0
 341 884 396 932 478 932 c 0
 540 932 583 892 583 840 c 0
 583 770 527 722 445 722 c 0xdf
469 866 m 0
 446 866 425 846 425 818 c 0
 425 800 437 788 455 788 c 0
 478 788 499 808 499 836 c 0
 499 854 487 866 469 866 c 0
453 179 m 1
 236 179 l 1
 148 0 l 1
 -43 0 l 1
 321 690 l 1
 554 690 l 1
 675 0 l 1
 479 0 l 1
 453 179 l 1
433 319 m 1
 404 523 l 1xef
 304 319 l 1
 433 319 l 1
EndSplineSet
Position2: "'cpsp' Capital Spacing in Latin lookup 0 subtable" dx=5 dy=0 dh=10 dv=0
EndChar

StartChar: AE
Encoding: 198 198 11
Width: 997
GlyphClass: 2
Flags: MW
HStem: 0 140<612 919> 209 140<330 436 238 445> 276 140<628 938 620 963> 550 140<636 636 636 1006>
VStem: 429.5 186.5 450.5 181.5
LayerCount: 2
Fore
SplineSet
636 550 m 1xb4
 628 416 l 1xb4
 963 416 l 1
 938 276 l 1
 620 276 l 1xb8
 612 140 l 1
 944 140 l 1
 919 0 l 1
 423 0 l 1
 436 209 l 1
 238 209 l 1xd8
 102 0 l 1
 -89 0 l 1
 392 690 l 1
 1031 690 l 1
 1006 550 l 1
 636 550 l 1xb4
445 349 m 1xd4
 456 543 l 1
 330 349 l 1
 445 349 l 1xd4
EndSplineSet
Position2: "'cpsp' Capital Spacing in Latin lookup 0 subtable" dx=5 dy=0 dh=10 dv=0
EndChar

StartChar: Ccedilla
Encoding: 199 199 16
Width: 767
GlyphClass: 2
Flags: MW
HStem: -210 69<262 285 256 323> -88 206<237 406> -9 21G<289 289> 572 132<397 486.5>
VStem: 63 189<222.5 377.5 222.5 405.5> 329 109<-121.5 -100.5> 564 181<453 463 463 463>
LayerCount: 2
Fore
SplineSet
466 704 m 0xba
 663 704 755 599 745 463 c 1
 744 453 l 1
 564 453 l 1
 564 463 l 1
 562 537 523 572 450 572 c 0
 344 572 252 472 252 283 c 0
 252 162 306 118 371 118 c 0
 441 118 494 161 522 237 c 1
 526 247 l 1
 706 247 l 1
 703 237 l 1
 659 78 536 -7 374 -14 c 1
 354 -42 l 1
 409 -50 438 -73 438 -111 c 0
 438 -179 365 -210 281 -210 c 0
 243 -210 214 -208 195 -203 c 1
 208 -134 l 1
 230 -140 247 -141 265 -141 c 0
 305 -141 329 -131 329 -112 c 0
 329 -89 289 -84 237 -88 c 1xde
 289 -9 l 1
 152 12 63 108 63 271 c 0
 63 540 251 704 466 704 c 0xba
EndSplineSet
Position2: "'cpsp' Capital Spacing in Latin lookup 0 subtable" dx=5 dy=0 dh=10 dv=0
EndChar

StartChar: Ecircumflex
Encoding: 202 202 25
Width: 628
GlyphClass: 2
Flags: MW
HStem: 0 140<226 550> 276 140<275 569 250 594> 550 140<298 298 298 637> 735 125<359 378 275 508 444 444 444 508 359 548>
VStem: 21 641
AnchorPoint: "Anchor-0" 269 0 basechar 0
LayerCount: 2
Fore
SplineSet
378 735 m 1
 275 735 l 1
 359 860 l 1
 508 860 l 1
 548 735 l 1
 444 735 l 1
 425 807 l 1
 378 735 l 1
298 550 m 1
 275 416 l 1
 594 416 l 1
 569 276 l 1
 250 276 l 1
 226 140 l 1
 575 140 l 1
 550 0 l 1
 21 0 l 1
 143 690 l 1
 662 690 l 1
 637 550 l 1
 298 550 l 1
EndSplineSet
Position2: "'cpsp' Capital Spacing in Latin lookup 0 subtable" dx=5 dy=0 dh=10 dv=0
EndChar

StartChar: Edieresis
Encoding: 203 203 26
Width: 628
GlyphClass: 2
Flags: MW
HStem: 0 140<226 550> 276 140<275 569 250 594> 550 140<298 298 298 637> 722 146<308.5 332.5 508.5 532.5>
VStem: 245 150<779.5 810.5> 445 150<779.5 810.5>
AnchorPoint: "Anchor-0" 269 0 basechar 0
LayerCount: 2
Fore
SplineSet
313 722 m 0
 269 722 245 744 245 783 c 0
 245 838 289 868 328 868 c 0
 370 868 395 847 395 807 c 0
 395 752 352 722 313 722 c 0
513 722 m 0
 469 722 445 744 445 783 c 0
 445 838 489 868 528 868 c 0
 570 868 595 847 595 807 c 0
 595 752 552 722 513 722 c 0
298 550 m 1
 275 416 l 1
 594 416 l 1
 569 276 l 1
 250 276 l 1
 226 140 l 1
 575 140 l 1
 550 0 l 1
 21 0 l 1
 143 690 l 1
 662 690 l 1
 637 550 l 1
 298 550 l 1
EndSplineSet
Position2: "'cpsp' Capital Spacing in Latin lookup 0 subtable" dx=5 dy=0 dh=10 dv=0
EndChar

StartChar: Igrave
Encoding: 204 204 44
Width: 306
GlyphClass: 2
Flags: MW
HStem: 0 21G<21 201 21 21> 670 20G<143 323 323 323> 735 125<206 233 73 302 206 206>
VStem: 21 302
LayerCount: 2
Fore
SplineSet
302 735 m 1
 206 735 l 1
 73 860 l 1
 233 860 l 1
 302 735 l 1
201 0 m 1
 21 0 l 1
 143 690 l 1
 323 690 l 1
 201 0 l 1
EndSplineSet
Position2: "'cpsp' Capital Spacing in Latin lookup 0 subtable" dx=5 dy=0 dh=10 dv=0
EndChar

StartChar: Iacute
Encoding: 205 205 40
Width: 306
GlyphClass: 2
Flags: MW
HStem: 0 21G<21 201 21 21> 670 20G<143 323 323 323> 735 125<187 460 187 460>
VStem: 21 439
LayerCount: 2
Fore
SplineSet
283 735 m 1
 187 735 l 1
 300 860 l 1
 460 860 l 1
 283 735 l 1
201 0 m 1
 21 0 l 1
 143 690 l 1
 323 690 l 1
 201 0 l 1
EndSplineSet
Position2: "'cpsp' Capital Spacing in Latin lookup 0 subtable" dx=5 dy=0 dh=10 dv=0
EndChar

StartChar: Icircumflex
Encoding: 206 206 41
Width: 306
GlyphClass: 2
Flags: MW
HStem: 0 21G<21 201 21 21> 670 20G<143 323 323 323> 735 125<189 208 105 338 274 274 274 338 189 378>
VStem: 21 357
LayerCount: 2
Fore
SplineSet
208 735 m 1
 105 735 l 1
 189 860 l 1
 338 860 l 1
 378 735 l 1
 274 735 l 1
 255 807 l 1
 208 735 l 1
143 690 m 1
 323 690 l 1
 201 0 l 1
 21 0 l 1
 143 690 l 1
EndSplineSet
Position2: "'cpsp' Capital Spacing in Latin lookup 0 subtable" dx=5 dy=0 dh=10 dv=0
EndChar

StartChar: Idieresis
Encoding: 207 207 42
Width: 306
GlyphClass: 2
Flags: MW
HStem: 0 21G<21 201 21 21> 670 20G<143 323 323 323> 722 146<138.5 162.5 338.5 362.5>
VStem: 75 150<779.5 810.5> 275 150<779.5 810.5>
LayerCount: 2
Fore
SplineSet
158 868 m 0
 200 868 225 847 225 807 c 0
 225 752 182 722 143 722 c 0
 99 722 75 744 75 783 c 0
 75 838 119 868 158 868 c 0
358 868 m 0
 400 868 425 847 425 807 c 0
 425 752 382 722 343 722 c 0
 299 722 275 744 275 783 c 0
 275 838 319 868 358 868 c 0
201 0 m 1
 21 0 l 1
 143 690 l 1
 323 690 l 1
 201 0 l 1
EndSplineSet
Position2: "'cpsp' Capital Spacing in Latin lookup 0 subtable" dx=5 dy=0 dh=10 dv=0
EndChar

StartChar: Ntilde
Encoding: 209 209 62
Width: 786
GlyphClass: 2
Flags: MW
HStem: 0 21G<21 201 21 21 446 681 446 446> 670 20G<143 367 367 367 623 803 803 803> 739 134<579 602> 742 134<396 419 323 439>
VStem: 21 782<0 690>
AnchorPoint: "Anchor-0" 356 0 basechar 0
LayerCount: 2
Fore
SplineSet
442 773 m 0xd8
 431 773 423 764 419 742 c 1
 323 742 l 1
 340 835 365 876 427 876 c 0xd8
 451 876 470 873 511 855 c 0
 534 845 547 842 558 842 c 0
 569 842 575 851 579 873 c 1
 675 873 l 1
 658 780 633 739 571 739 c 0xe8
 549 739 531 741 487 760 c 0
 466 769 454 773 442 773 c 0xd8
803 690 m 1xe8
 681 0 l 1
 446 0 l 1
 281 457 l 1
 201 0 l 1
 21 0 l 1
 143 690 l 1
 367 690 l 1
 540 213 l 1
 623 690 l 1
 803 690 l 1xe8
EndSplineSet
Position2: "'cpsp' Capital Spacing in Latin lookup 0 subtable" dx=5 dy=0 dh=10 dv=0
EndChar

StartChar: Ograve
Encoding: 210 210 67
Width: 808
GlyphClass: 2
Flags: MW
HStem: -14 132<353 470.5 353 507> 572 132<391.5 509> 735 125<470 470 470 497 337 566>
VStem: 65 190<239.5 354.5 239.5 415> 607 190<335.5 450.5>
LayerCount: 2
Fore
SplineSet
470 735 m 1
 337 860 l 1
 497 860 l 1
 566 735 l 1
 470 735 l 1
467 704 m 0
 678 704 797 576 797 405 c 0
 797 145 619 -14 395 -14 c 0
 184 -14 65 114 65 285 c 0
 65 545 243 704 467 704 c 0
401 118 m 0
 540 118 607 271 607 400 c 0
 607 501 557 572 461 572 c 0
 322 572 255 419 255 290 c 0
 255 189 305 118 401 118 c 0
EndSplineSet
Position2: "'cpsp' Capital Spacing in Latin lookup 0 subtable" dx=5 dy=0 dh=10 dv=0
EndChar

StartChar: Oacute
Encoding: 211 211 64
Width: 808
GlyphClass: 2
Flags: MW
HStem: -14 132<353 470.5 353 507> 572 132<391.5 509> 735 125<451 724 451 724>
VStem: 65 190<239.5 354.5 239.5 415> 607 190<335.5 450.5>
LayerCount: 2
Fore
SplineSet
547 735 m 1
 451 735 l 1
 564 860 l 1
 724 860 l 1
 547 735 l 1
467 704 m 0
 678 704 797 576 797 405 c 0
 797 145 619 -14 395 -14 c 0
 184 -14 65 114 65 285 c 0
 65 545 243 704 467 704 c 0
401 118 m 0
 540 118 607 271 607 400 c 0
 607 501 557 572 461 572 c 0
 322 572 255 419 255 290 c 0
 255 189 305 118 401 118 c 0
EndSplineSet
Position2: "'cpsp' Capital Spacing in Latin lookup 0 subtable" dx=5 dy=0 dh=10 dv=0
EndChar

StartChar: Ocircumflex
Encoding: 212 212 65
Width: 808
GlyphClass: 2
Flags: MW
HStem: -14 132<353 470.5 353 507> 572 132<391.5 509> 735 125<453 472 369 602 538 538 538 602 453 642>
VStem: 65 190<239.5 354.5 239.5 415> 607 190<335.5 450.5>
LayerCount: 2
Fore
SplineSet
472 735 m 1
 369 735 l 1
 453 860 l 1
 602 860 l 1
 642 735 l 1
 538 735 l 1
 519 807 l 1
 472 735 l 1
467 704 m 0
 678 704 797 576 797 405 c 0
 797 145 619 -14 395 -14 c 0
 184 -14 65 114 65 285 c 0
 65 545 243 704 467 704 c 0
401 118 m 0
 540 118 607 271 607 400 c 0
 607 501 557 572 461 572 c 0
 322 572 255 419 255 290 c 0
 255 189 305 118 401 118 c 0
EndSplineSet
Position2: "'cpsp' Capital Spacing in Latin lookup 0 subtable" dx=5 dy=0 dh=10 dv=0
EndChar

StartChar: Otilde
Encoding: 213 213 71
Width: 808
GlyphClass: 2
Flags: MW
HStem: -14 132<353 470.5 353 507> 572 132<391.5 509> 739 134<598 621> 742 134<415 438 342 458>
VStem: 65 190<239.5 354.5 239.5 415> 607 190<335.5 450.5>
LayerCount: 2
Fore
SplineSet
461 773 m 0xdc
 450 773 442 764 438 742 c 1
 342 742 l 1
 359 835 384 876 446 876 c 0xdc
 470 876 489 873 530 855 c 0
 553 845 566 842 577 842 c 0
 588 842 594 851 598 873 c 1
 694 873 l 1
 677 780 652 739 590 739 c 0xec
 568 739 550 741 506 760 c 0
 485 769 473 773 461 773 c 0xdc
467 704 m 0xec
 678 704 797 576 797 405 c 0
 797 145 619 -14 395 -14 c 0
 184 -14 65 114 65 285 c 0
 65 545 243 704 467 704 c 0xec
401 118 m 0
 540 118 607 271 607 400 c 0
 607 501 557 572 461 572 c 0
 322 572 255 419 255 290 c 0
 255 189 305 118 401 118 c 0
EndSplineSet
Position2: "'cpsp' Capital Spacing in Latin lookup 0 subtable" dx=5 dy=0 dh=10 dv=0
EndChar

StartChar: Odieresis
Encoding: 214 214 66
Width: 808
GlyphClass: 2
Flags: MW
HStem: -14 132<353 470.5 353 507> 572 132<391.5 509> 722 146<402.5 426.5 602.5 626.5>
VStem: 65 190<239.5 354.5 239.5 415> 339 150<779.5 810.5> 539 150<779.5 810.5> 607 190<335.5 450.5>
LayerCount: 2
Fore
SplineSet
407 722 m 0xfc
 363 722 339 744 339 783 c 0
 339 838 383 868 422 868 c 0
 464 868 489 847 489 807 c 0
 489 752 446 722 407 722 c 0xfc
607 722 m 0
 563 722 539 744 539 783 c 0
 539 838 583 868 622 868 c 0
 664 868 689 847 689 807 c 0
 689 752 646 722 607 722 c 0
467 704 m 0xda
 678 704 797 576 797 405 c 0
 797 145 619 -14 395 -14 c 0
 184 -14 65 114 65 285 c 0
 65 545 243 704 467 704 c 0xda
401 118 m 0
 540 118 607 271 607 400 c 0
 607 501 557 572 461 572 c 0
 322 572 255 419 255 290 c 0
 255 189 305 118 401 118 c 0
EndSplineSet
Position2: "'cpsp' Capital Spacing in Latin lookup 0 subtable" dx=5 dy=0 dh=10 dv=0
EndChar

StartChar: multiply
Encoding: 215 215 302
Width: 662
Flags: MW
HStem: 523 20G<234 234> 528 20G<517 517>
VStem: 96 488<190 467>
LayerCount: 2
Fore
SplineSet
415 323 m 1x60
 529 185 l 1
 446 115 l 1
 332 253 l 1
 163 109 l 1
 96 190 l 1
 265 334 l 1
 151 473 l 1
 234 543 l 1xa0
 348 404 l 1
 517 548 l 1
 584 467 l 1
 415 323 l 1x60
EndSplineSet
EndChar

StartChar: Oslash
Encoding: 216 216 70
Width: 803
GlyphClass: 2
Flags: MW
HStem: -14 132<374.5 469.5 374.5 506> 572 132<390.5 483>
VStem: 64 190<285.5 354.5 285.5 415> 606 190<335.5 407>
LayerCount: 2
Fore
SplineSet
831 633 m 1
 753 566 l 1
 781 520 796 465 796 405 c 0
 796 145 618 -14 394 -14 c 0
 295 -14 216 14 160 62 c 1
 71 -13 l 1
 13 57 l 1
 102 133 l 1
 77 177 64 229 64 285 c 0
 64 545 242 704 466 704 c 0
 561 704 637 678 692 634 c 1
 773 703 l 1
 831 633 l 1
254 290 m 0
 254 281 254 272 255 263 c 1
 566 527 l 1
 542 556 506 572 460 572 c 0
 321 572 254 419 254 290 c 0
606 400 m 0
 606 414 605 427 603 439 c 1
 287 171 l 1
 311 138 349 118 400 118 c 0
 539 118 606 271 606 400 c 0
EndSplineSet
Position2: "'cpsp' Capital Spacing in Latin lookup 0 subtable" dx=5 dy=0 dh=10 dv=0
EndChar

StartChar: Udieresis
Encoding: 220 220 93
Width: 719
GlyphClass: 2
Flags: MW
HStem: -14 132<325 391.5 325 448.5> 670 20G<143 323 323 323 575 755 755 755> 722 146<354.5 378.5 554.5 578.5>
VStem: 63 180<181 206.5> 291 150<779.5 810.5> 491 150<779.5 810.5>
LayerCount: 2
Fore
SplineSet
374 868 m 0
 416 868 441 847 441 807 c 0
 441 752 398 722 359 722 c 0
 315 722 291 744 291 783 c 0
 291 838 335 868 374 868 c 0
574 868 m 0
 616 868 641 847 641 807 c 0
 641 752 598 722 559 722 c 0
 515 722 491 744 491 783 c 0
 491 838 535 868 574 868 c 0
755 690 m 1
 691 323 l 2
 683 278 679 257 669 216 c 0
 636 81 554 -14 343 -14 c 0
 152 -14 63 74 63 188 c 0
 63 225 67 257 80 333 c 2
 143 690 l 1
 323 690 l 1
 249 270 l 2
 245 248 243 231 243 212 c 0
 243 150 294 118 356 118 c 0
 427 118 472 144 493 229 c 0
 496 241 498 251 501 270 c 2
 575 690 l 1
 755 690 l 1
EndSplineSet
Position2: "'cpsp' Capital Spacing in Latin lookup 0 subtable" dx=5 dy=0 dh=10 dv=0
EndChar

StartChar: Yacute
Encoding: 221 221 107
Width: 683
GlyphClass: 2
Flags: MW
HStem: 0 21G<220 400 220 220> 670 20G<99 291 291 291 566 765 765 765> 735 125<386 659 386 659>
VStem: 99 666<690 690>
LayerCount: 2
Fore
SplineSet
482 735 m 1
 386 735 l 1
 499 860 l 1
 659 860 l 1
 482 735 l 1
446 259 m 1
 400 0 l 1
 220 0 l 1
 267 265 l 1
 99 690 l 1
 291 690 l 1
 386 414 l 1
 566 690 l 1
 765 690 l 1
 446 259 l 1
EndSplineSet
Position2: "'cpsp' Capital Spacing in Latin lookup 0 subtable" dx=5 dy=0 dh=10 dv=0
EndChar

StartChar: Thorn
Encoding: 222 222 74
Width: 648
GlyphClass: 2
Flags: MW
HStem: 0 21G<21 201 21 21> 174 140<257 321 232 327> 462 140<307 353 283 396> 670 20G<143 323 323 323>
VStem: 463 190<402.5 486.5>
LayerCount: 2
Fore
SplineSet
503 597 m 0
 588 587 653 537 653 436 c 0
 653 421 652 405 649 388 c 0
 625 255 532 191 430 179 c 0
 392 175 364 174 321 174 c 2
 232 174 l 1
 201 0 l 1
 21 0 l 1
 143 690 l 1
 323 690 l 1
 307 602 l 1
 396 602 l 2
 439 602 467 601 503 597 c 0
461 388 m 0
 462 394 463 400 463 405 c 0
 463 440 440 458 400 461 c 0
 388 462 372 462 353 462 c 2
 283 462 l 1
 257 314 l 1
 327 314 l 2
 346 314 362 314 375 315 c 0
 421 319 452 341 461 388 c 0
EndSplineSet
Position2: "'cpsp' Capital Spacing in Latin lookup 0 subtable" dx=5 dy=0 dh=10 dv=0
EndChar

StartChar: germandbls
Encoding: 223 223 199
Width: 645
GlyphClass: 2
Flags: MW
HStem: -4 132<361.5 390 356 472.5> 0 21G<8 188 8 8> 622 132<359.5 415.5>
VStem: 353 186<374.5 404 374.5 414.5> 438 190<168.5 198> 461 190<562.5 582>
LayerCount: 2
Fore
SplineSet
419 754 m 0x64
 571 754 651 680 651 583 c 0xa4
 651 542 639 507 604 462 c 1
 562 443 539 422 539 386 c 0xb0
 539 363 550 337 575 309 c 0
 619 260 628 221 628 178 c 0
 628 78 552 -4 393 -4 c 0
 330 -4 295 0 257 8 c 1
 281 141 l 1
 323 130 345 128 367 128 c 0
 413 128 438 150 438 187 c 0xa8
 438 209 428 231 407 257 c 0
 372 302 353 335 353 385 c 0xb0
 353 444 386 481 445 514 c 1
 457 535 461 548 461 563 c 0
 461 601 439 622 392 622 c 0
 327 622 290 578 265 438 c 2
 188 0 l 1
 8 0 l 1
 84 430 l 1
 120 645 191 754 419 754 c 0x64
EndSplineSet
EndChar

StartChar: aacute
Encoding: 225 225 116
Width: 589
GlyphClass: 2
Flags: MW
HStem: -14 21G<120 186> 0 108<235 500 235 324> 229.29 98.71 426 122<301 341> 569 125<296 569 296 569>
VStem: 12 186<138 181.5 138 189.5> 325 175 373 182<383.5 390>
LayerCount: 2
Fore
SplineSet
392 569 m 1xae
 296 569 l 1
 409 694 l 1
 569 694 l 1
 392 569 l 1xae
343 548 m 0xbd
 499 548 555 484 555 399 c 0
 555 368 550 337 540 281 c 2xad
 514 135 l 2
 507 95 503 59 500 0 c 1
 324 0 l 1
 326 79 l 1x6e
 294 22 l 1xae
 257 -2 210 -14 162 -14 c 0
 78 -14 12 33 12 129 c 0
 12 250 137 339 368 328 c 1
 369 332 l 2
 371 343 373 359 373 377 c 0
 373 403 360 426 322 426 c 0
 280 426 249 399 238 353 c 1
 68 352 l 1
 91 477 208 548 343 548 c 0xbd
251 108 m 0x6e
 287 108 334 135 344 191 c 2
 350 227 l 1
 258 238 198 209 198 154 c 0
 198 122 219 108 251 108 c 0x6e
EndSplineSet
EndChar

StartChar: atilde
Encoding: 227 227 124
Width: 589
GlyphClass: 2
Flags: MW
HStem: -14 21G<120 186> 0 108<235 500 235 324> 229.29 98.71 426 122<301 341> 569 103<423 426.5 415.5 465> 569 134<442 465> 572 134<259 282 186 302>
VStem: 12 186<138 181.5 138 189.5> 325 175 373 182<383.5 390>
LayerCount: 2
Fore
SplineSet
305 603 m 0xb380
 294 603 286 594 282 572 c 1
 186 572 l 1
 203 665 228 706 290 706 c 0xb380
 314 706 333 703 374 685 c 0
 397 675 410 672 421 672 c 0xb980
 432 672 438 681 442 703 c 1
 538 703 l 1
 521 610 496 569 434 569 c 0xb580
 412 569 394 571 350 590 c 0
 329 599 317 603 305 603 c 0xb380
343 548 m 0xb140
 499 548 555 484 555 399 c 0
 555 368 550 337 540 281 c 2xb140
 514 135 l 2
 507 95 503 59 500 0 c 1
 324 0 l 1
 326 79 l 1x7180
 294 22 l 1xb180
 257 -2 210 -14 162 -14 c 0
 78 -14 12 33 12 129 c 0
 12 250 137 339 368 328 c 1
 369 332 l 2
 371 343 373 359 373 377 c 0
 373 403 360 426 322 426 c 0
 280 426 249 399 238 353 c 1
 68 352 l 1
 91 477 208 548 343 548 c 0xb140
251 108 m 0x7180
 287 108 334 135 344 191 c 2
 350 227 l 1
 258 238 198 209 198 154 c 0
 198 122 219 108 251 108 c 0x7180
EndSplineSet
EndChar

StartChar: adieresis
Encoding: 228 228 119
Width: 589
GlyphClass: 2
Flags: MW
HStem: -14 21G<120 186> 0 108<235 500 235 324> 229.29 98.71 426 122<301 341> 569 146<245.5 269.5 445.5 469.5>
VStem: 12 186<138 181.5 138 189.5> 182 150<626.5 657.5> 325 175 373 182<383.5 390> 382 150<626.5 657.5>
LayerCount: 2
Fore
SplineSet
250 569 m 0xba40
 206 569 182 591 182 630 c 0
 182 685 226 715 265 715 c 0
 307 715 332 694 332 654 c 0
 332 599 289 569 250 569 c 0xba40
450 569 m 0
 406 569 382 591 382 630 c 0
 382 685 426 715 465 715 c 0
 507 715 532 694 532 654 c 0
 532 599 489 569 450 569 c 0
343 548 m 0xb480
 499 548 555 484 555 399 c 0
 555 368 550 337 540 281 c 2xb480
 514 135 l 2
 507 95 503 59 500 0 c 1
 324 0 l 1
 326 79 l 1x75
 294 22 l 1xb5
 257 -2 210 -14 162 -14 c 0
 78 -14 12 33 12 129 c 0
 12 250 137 339 368 328 c 1
 369 332 l 2
 371 343 373 359 373 377 c 0
 373 403 360 426 322 426 c 0
 280 426 249 399 238 353 c 1
 68 352 l 1
 91 477 208 548 343 548 c 0xb480
251 108 m 0x75
 287 108 334 135 344 191 c 2
 350 227 l 1
 258 238 198 209 198 154 c 0
 198 122 219 108 251 108 c 0x75
EndSplineSet
EndChar

StartChar: aring
Encoding: 229 229 123
Width: 589
GlyphClass: 2
Flags: MW
HStem: -14 21G<120 186> 0 108<235 500 235 324> 229.29 98.71 426 122<301 341> 567 66<352 378 352 394.5> 715 66<358 384>
VStem: 12 186<138 181.5 138 189.5> 247 84<653.5 672 653.5 694> 325 175 373 182<383.5 390> 405 84<676 694.5>
LayerCount: 2
Fore
SplineSet
353 567 m 0xbf20
 287 567 247 601 247 659 c 0
 247 729 300 781 385 781 c 0
 449 781 489 747 489 689 c 0
 489 619 436 567 353 567 c 0xbf20
375 715 m 0
 341 715 331 681 331 663 c 0
 331 644 343 633 361 633 c 0
 395 633 405 667 405 685 c 0
 405 704 393 715 375 715 c 0
343 548 m 0xb740
 499 548 555 484 555 399 c 0
 555 368 550 337 540 281 c 2xb740
 514 135 l 2
 507 95 503 59 500 0 c 1
 324 0 l 1
 326 79 l 1x7680
 294 22 l 1xb680
 257 -2 210 -14 162 -14 c 0
 78 -14 12 33 12 129 c 0
 12 250 137 339 368 328 c 1
 369 332 l 2
 371 343 373 359 373 377 c 0
 373 403 360 426 322 426 c 0
 280 426 249 399 238 353 c 1
 68 352 l 1
 91 477 208 548 343 548 c 0xb740
251 108 m 0x7720
 287 108 334 135 344 191 c 2
 350 227 l 1
 258 238 198 209 198 154 c 0
 198 122 219 108 251 108 c 0x7720
EndSplineSet
EndChar

StartChar: ae
Encoding: 230 230 125
Width: 985
GlyphClass: 2
Flags: MW
HStem: -14 122<145 290 627.5 676.5> 222 110<375 375 598 779> 422 122<309 352 702.5 730.5>
VStem: 12 188<136 175 136 179.5> 779 183<332 332>
LayerCount: 2
Fore
SplineSet
944 222 m 1
 572 222 l 1
 572 215 571 209 571 203 c 0
 571 129 604 108 651 108 c 0
 702 108 738 134 752 175 c 1
 929 175 l 1
 877 54 765 -14 628 -14 c 0
 531 -14 461 22 427 96 c 1
 359 23 l 1
 313 -3 256 -14 207 -14 c 0
 83 -14 12 40 12 127 c 0
 12 232 101 332 336 332 c 2
 390 332 l 1
 393 349 394 358 394 366 c 0
 394 405 374 422 330 422 c 0
 288 422 249 395 238 348 c 1
 68 348 l 1
 91 473 214 544 349 544 c 0
 458 544 507 504 525 455 c 1
 579 516 659 544 746 544 c 0
 892 544 962 444 962 328 c 0
 962 294 955 255 944 222 c 1
706 422 m 0
 660 422 622 397 598 332 c 1
 779 332 l 1
 781 394 755 422 706 422 c 0
372 205 m 2
 375 222 l 1
 361 223 348 223 336 223 c 0
 242 223 200 200 200 150 c 0
 200 122 222 108 263 108 c 0
 317 108 362 146 372 205 c 2
EndSplineSet
EndChar

StartChar: ccedilla
Encoding: 231 231 130
Width: 606
GlyphClass: 2
Flags: MW
HStem: -210 69<187 210 181 248> -88 196<162 311.5> -10 21G<214 214> 422 122<297.5 363>
VStem: 21 190<179 267 179 308.5> 254 109<-121.5 -100.5> 420 174<326 358.5>
AnchorPoint: "Anchor-0" 262 0 basechar 0
LayerCount: 2
Fore
SplineSet
286 108 m 0xde
 337 108 375 138 395 196 c 1
 572 196 l 1
 527 66 438 -5 299 -13 c 1
 279 -42 l 1
 334 -50 363 -73 363 -111 c 0
 363 -179 290 -210 206 -210 c 0
 168 -210 139 -208 120 -203 c 1
 133 -134 l 1
 155 -140 172 -141 190 -141 c 0
 230 -141 254 -131 254 -112 c 0
 254 -89 214 -84 162 -88 c 1xde
 214 -10 l 1xbe
 100 7 21 77 21 215 c 0
 21 402 154 544 351 544 c 0
 520 544 594 451 594 326 c 1
 420 326 l 1
 420 391 388 422 338 422 c 0
 257 422 211 321 211 213 c 0
 211 145 243 108 286 108 c 0xde
EndSplineSet
EndChar

StartChar: eacute
Encoding: 233 233 137
Width: 612
GlyphClass: 2
Flags: MW
HStem: -14 122<257.5 306.5 257.5 342.5> 222 110<201 405 222 405 222 571> 426 122<307 356.5> 569 125<309 582 309 582>
VStem: 21 180<171 207 207 222 171 312.5> 406 183<342 368>
AnchorPoint: "Anchor-0" 261 0 basechar 0
LayerCount: 2
Fore
SplineSet
405 569 m 1
 309 569 l 1
 422 694 l 1
 582 694 l 1
 405 569 l 1
201 222 m 1
 201 207 l 2
 201 135 234 108 281 108 c 0
 332 108 368 134 382 175 c 1
 559 175 l 1
 517 54 415 -14 270 -14 c 0
 136 -14 21 46 21 209 c 0
 21 416 161 548 345 548 c 0xfc
 515 548 589 444 589 327 c 0
 589 294 582 255 571 222 c 1
 201 222 l 1
330 426 m 0
 284 426 245 391 222 332 c 1
 405 332 l 1
 406 338 406 341 406 343 c 0
 406 393 383 426 330 426 c 0
EndSplineSet
EndChar

StartChar: edieresis
Encoding: 235 235 140
Width: 612
GlyphClass: 2
Flags: MW
HStem: -14 122<257.5 306.5 257.5 342.5> 222 110<201 405 222 405 222 571> 426 122<307 356.5> 569 146<258.5 282.5 458.5 482.5>
VStem: 21 180<171 207 207 222 171 312.5> 195 150<626.5 657.5> 395 150<626.5 657.5> 406 183<342 368>
AnchorPoint: "Anchor-0" 261 0 basechar 0
LayerCount: 2
Fore
SplineSet
263 569 m 0xf6
 219 569 195 591 195 630 c 0
 195 685 239 715 278 715 c 0
 320 715 345 694 345 654 c 0
 345 599 302 569 263 569 c 0xf6
463 569 m 0
 419 569 395 591 395 630 c 0
 395 685 439 715 478 715 c 0
 520 715 545 694 545 654 c 0
 545 599 502 569 463 569 c 0
201 222 m 1xe9
 201 207 l 2
 201 135 234 108 281 108 c 0
 332 108 368 134 382 175 c 1
 559 175 l 1
 517 54 415 -14 270 -14 c 0
 136 -14 21 46 21 209 c 0
 21 416 161 548 345 548 c 0
 515 548 589 444 589 327 c 0
 589 294 582 255 571 222 c 1
 201 222 l 1xe9
330 426 m 0
 284 426 245 391 222 332 c 1
 405 332 l 1
 406 338 406 341 406 343 c 0
 406 393 383 426 330 426 c 0
EndSplineSet
EndChar

StartChar: igrave
Encoding: 236 236 157
Width: 290
GlyphClass: 2
Flags: MW
HStem: 0 21G<8 188 8 8> 514 20G<103 283 283 283> 569 125<174 201 41 270 174 174>
VStem: 8 275
LayerCount: 2
Fore
SplineSet
270 569 m 1
 174 569 l 1
 41 694 l 1
 201 694 l 1
 270 569 l 1
188 0 m 1
 8 0 l 1
 103 534 l 1
 283 534 l 1
 188 0 l 1
EndSplineSet
EndChar

StartChar: iacute
Encoding: 237 237 154
Width: 290
GlyphClass: 2
Flags: MW
HStem: 0 21G<8 188 8 8> 514 20G<103 283 283 283> 569 125<147 420 147 420>
VStem: 8 412
LayerCount: 2
Fore
SplineSet
243 569 m 1
 147 569 l 1
 260 694 l 1
 420 694 l 1
 243 569 l 1
188 0 m 1
 8 0 l 1
 103 534 l 1
 283 534 l 1
 188 0 l 1
EndSplineSet
EndChar

StartChar: icircumflex
Encoding: 238 238 155
Width: 290
GlyphClass: 2
Flags: MW
HStem: 0 21G<8 188 8 8> 514 20G<103 283 283 283> 569 125<153 172 69 302 238 238 238 302 153 342> 645 49<219 219>
VStem: 8 334
LayerCount: 2
Fore
SplineSet
172 569 m 1xe8
 69 569 l 1
 153 694 l 1
 302 694 l 1
 342 569 l 1
 238 569 l 1xe8
 219 645 l 1xd8
 172 569 l 1xe8
103 534 m 1
 283 534 l 1
 188 0 l 1
 8 0 l 1
 103 534 l 1
EndSplineSet
EndChar

StartChar: idieresis
Encoding: 239 239 156
Width: 290
GlyphClass: 2
Flags: MW
HStem: 0 21G<8 188 8 8> 514 20G<103 283 283 283> 569 146<96.5 120.5 296.5 320.5>
VStem: 33 150<626.5 657.5> 233 150<626.5 657.5>
LayerCount: 2
Fore
SplineSet
116 715 m 0
 158 715 183 694 183 654 c 0
 183 599 140 569 101 569 c 0
 57 569 33 591 33 630 c 0
 33 685 77 715 116 715 c 0
316 715 m 0
 358 715 383 694 383 654 c 0
 383 599 340 569 301 569 c 0
 257 569 233 591 233 630 c 0
 233 685 277 715 316 715 c 0
188 0 m 1
 8 0 l 1
 103 534 l 1
 283 534 l 1
 188 0 l 1
EndSplineSet
EndChar

StartChar: eth
Encoding: 240 240 133
Width: 670
GlyphClass: 2
Flags: MW
HStem: -14 132<272 358 272 413.5> 416 132<298 347.5 222.5 383> 675 20G<319 319> 676 20G<657 657> 725 20G<476 476>
VStem: 22 186<187.5 260 187.5 294.5> 443 186<288 339.5>
LayerCount: 2
Fore
SplineSet
669 626 m 1xde
 589 612 l 1xde
 617 544 629 461 629 381 c 0
 629 195 539 -14 288 -14 c 0
 117 -14 22 80 22 211 c 0
 22 378 117 548 328 548 c 0
 367 548 392 541 425 519 c 1
 463 457 l 1
 461 500 454 542 432 583 c 1
 314 562 l 1
 302 632 l 1
 383 647 l 1
 365 663 344 679 319 695 c 1xee
 476 745 l 1
 507 730 532 706 553 677 c 1
 657 696 l 1
 669 626 l 1xde
301 118 m 0
 415 118 443 243 443 311 c 0
 443 368 411 416 355 416 c 0
 241 416 208 296 208 224 c 0
 208 151 243 118 301 118 c 0
EndSplineSet
EndChar

StartChar: ntilde
Encoding: 241 241 176
Width: 643
GlyphClass: 2
Flags: MW
HStem: 0 21G<8 188 8 8 368 548 368 368> 426 108<102 381.5> 528 20G<429.5 508.5> 569 103<447 450.5 439.5 489> 569 134<466 489> 572 134<283 306 210 326>
VStem: 8 607<0 450.5> 426 189<341.5 450.5>
AnchorPoint: "Anchor-0" 275 0 basechar 0
LayerCount: 2
Fore
SplineSet
329 603 m 0xc6
 318 603 310 594 306 572 c 1
 210 572 l 1
 227 665 252 706 314 706 c 0xc6
 338 706 357 703 398 685 c 0
 421 675 434 672 445 672 c 0xd2
 456 672 462 681 466 703 c 1
 562 703 l 1
 545 610 520 569 458 569 c 0xca
 436 569 418 571 374 590 c 0
 353 599 341 603 329 603 c 0xc6
454 548 m 0xa9
 563 548 615 490 615 411 c 0
 615 383 611 353 603 308 c 2
 548 0 l 1
 368 0 l 1
 416 268 l 2
 422 303 426 332 426 351 c 0
 426 396 408 426 355 426 c 0
 298 426 253 369 231 248 c 1
 188 0 l 1
 8 0 l 1
 102 534 l 1
 282 534 l 1
 268 458 l 1xc9
 328 517 l 1
 365 537 405 548 454 548 c 0xa9
EndSplineSet
EndChar

StartChar: oacute
Encoding: 243 243 178
Width: 639
GlyphClass: 2
Flags: MW
HStem: -14 122<269 341 269 394.5> 426 122<299 371> 569 125<319 592 319 592>
VStem: 23 190<193 278.5 193 310> 427 190<255.5 341>
LayerCount: 2
Fore
SplineSet
415 569 m 1
 319 569 l 1
 432 694 l 1
 592 694 l 1
 415 569 l 1
355 548 m 0xd8
 528 548 617 451 617 310 c 0
 617 138 504 -14 285 -14 c 0
 112 -14 23 83 23 224 c 0
 23 396 136 548 355 548 c 0xd8
298 108 m 0
 384 108 427 205 427 306 c 0
 427 376 400 426 342 426 c 0
 256 426 213 329 213 228 c 0
 213 158 240 108 298 108 c 0
EndSplineSet
EndChar

StartChar: otilde
Encoding: 245 245 185
Width: 639
GlyphClass: 2
Flags: MW
HStem: -14 122<269 341 269 394.5> 426 122<299 371> 569 103<446 449.5 438.5 488> 569 134<465 488> 572 134<282 305 209 325>
VStem: 23 190<193 278.5 193 310> 427 190<255.5 341>
LayerCount: 2
Fore
SplineSet
328 603 m 0xce
 317 603 309 594 305 572 c 1
 209 572 l 1
 226 665 251 706 313 706 c 0xce
 337 706 356 703 397 685 c 0
 420 675 433 672 444 672 c 0xe6
 455 672 461 681 465 703 c 1
 561 703 l 1
 544 610 519 569 457 569 c 0xd6
 435 569 417 571 373 590 c 0
 352 599 340 603 328 603 c 0xce
355 548 m 0xc6
 528 548 617 451 617 310 c 0
 617 138 504 -14 285 -14 c 0
 112 -14 23 83 23 224 c 0
 23 396 136 548 355 548 c 0xc6
298 108 m 0
 384 108 427 205 427 306 c 0
 427 376 400 426 342 426 c 0
 256 426 213 329 213 228 c 0
 213 158 240 108 298 108 c 0
EndSplineSet
EndChar

StartChar: odieresis
Encoding: 246 246 180
Width: 639
GlyphClass: 2
Flags: MW
HStem: -14 122<269 341 269 394.5> 426 122<299 371> 569 146<268.5 292.5 468.5 492.5>
VStem: 23 190<193 278.5 193 310> 205 150<626.5 657.5> 405 150<626.5 657.5> 427 190<255.5 341>
LayerCount: 2
Fore
SplineSet
273 569 m 0xec
 229 569 205 591 205 630 c 0
 205 685 249 715 288 715 c 0
 330 715 355 694 355 654 c 0
 355 599 312 569 273 569 c 0xec
473 569 m 0
 429 569 405 591 405 630 c 0
 405 685 449 715 488 715 c 0
 530 715 555 694 555 654 c 0
 555 599 512 569 473 569 c 0
355 548 m 0xd2
 528 548 617 451 617 310 c 0
 617 138 504 -14 285 -14 c 0
 112 -14 23 83 23 224 c 0
 23 396 136 548 355 548 c 0xd2
298 108 m 0
 384 108 427 205 427 306 c 0
 427 376 400 426 342 426 c 0
 256 426 213 329 213 228 c 0
 213 158 240 108 298 108 c 0
EndSplineSet
EndChar

StartChar: divide
Encoding: 247 247 291
Width: 662
Flags: MW
HStem: 269 96<105 579 89 595> 425 160<364 386>
VStem: 228 162<118 140> 294 162<494 516>
LayerCount: 2
Fore
SplineSet
389 585 m 0xd0
 429 585 456 557 456 520 c 0
 456 468 411 425 361 425 c 0
 321 425 294 453 294 490 c 0
 294 542 339 585 389 585 c 0xd0
579 269 m 1
 89 269 l 1
 105 365 l 1
 595 365 l 1
 579 269 l 1
323 209 m 0xa0
 363 209 390 181 390 144 c 0
 390 92 345 49 295 49 c 0
 255 49 228 77 228 114 c 0
 228 166 273 209 323 209 c 0xa0
EndSplineSet
EndChar

StartChar: oslash
Encoding: 248 248 184
Width: 642
GlyphClass: 2
Flags: MW
HStem: -14 122<288 344 288 398.5> 426 122<304.5 359>
VStem: 27 190<239 239 239 310> 431 190<300 300>
LayerCount: 2
Fore
SplineSet
658 493 m 1
 591 436 l 1
 611 400 621 358 621 310 c 0
 621 138 508 -14 289 -14 c 0
 217 -14 159 3 117 33 c 1
 38 -34 l 1
 -20 37 l 1
 56 101 l 1
 37 136 27 178 27 224 c 0
 27 396 140 548 359 548 c 0
 430 548 486 532 528 503 c 1
 600 564 l 1
 658 493 l 1
346 426 m 0
 263 426 220 336 217 239 c 1
 405 399 l 1
 391 416 372 426 346 426 c 0
302 108 m 0
 386 108 429 201 431 300 c 1
 240 138 l 1
 254 119 274 108 302 108 c 0
EndSplineSet
EndChar

StartChar: ucircumflex
Encoding: 251 251 207
Width: 639
GlyphClass: 2
Flags: MW
HStem: -14 21G<130.5 209.5> 0 108<257.5 537 257.5 357> 514 20G<91 271 271 271 451 631 631 631> 569 125<341 360 257 490 426 426 426 490 341 530> 645 49<407 407>
VStem: 24 189<83.5 192.5> 24 607<83.5 534>
LayerCount: 2
Fore
SplineSet
360 569 m 1x72
 257 569 l 1
 341 694 l 1
 490 694 l 1
 530 569 l 1
 426 569 l 1x72
 407 645 l 1x6a
 360 569 l 1x72
631 534 m 1
 537 0 l 1
 357 0 l 1
 371 76 l 1x72
 311 17 l 1
 274 -3 234 -14 185 -14 c 0xb4
 76 -14 24 44 24 123 c 0
 24 151 28 181 36 226 c 2
 91 534 l 1
 271 534 l 1
 223 266 l 2
 217 231 213 202 213 183 c 0
 213 138 231 108 284 108 c 0x74
 341 108 386 165 408 286 c 1
 451 534 l 1
 631 534 l 1
EndSplineSet
EndChar

StartChar: udieresis
Encoding: 252 252 208
Width: 639
GlyphClass: 2
Flags: MW
HStem: -14 21G<130.5 209.5> 0 108<257.5 537 257.5 357> 514 20G<91 271 271 271 451 631 631 631> 569 146<284.5 308.5 484.5 508.5>
VStem: 24 189<83.5 192.5> 221 150<626.5 657.5> 421 150<626.5 657.5>
LayerCount: 2
Fore
SplineSet
289 569 m 0x76
 245 569 221 591 221 630 c 0
 221 685 265 715 304 715 c 0
 346 715 371 694 371 654 c 0
 371 599 328 569 289 569 c 0x76
489 569 m 0
 445 569 421 591 421 630 c 0
 421 685 465 715 504 715 c 0
 546 715 571 694 571 654 c 0
 571 599 528 569 489 569 c 0
631 534 m 1
 537 0 l 1
 357 0 l 1
 371 76 l 1x76
 311 17 l 1
 274 -3 234 -14 185 -14 c 0xbe
 76 -14 24 44 24 123 c 0
 24 151 28 181 36 226 c 2
 91 534 l 1
 271 534 l 1
 223 266 l 2
 217 231 213 202 213 183 c 0
 213 138 231 108 284 108 c 0x7e
 341 108 386 165 408 286 c 1
 451 534 l 1
 631 534 l 1
EndSplineSet
EndChar

StartChar: thorn
Encoding: 254 254 188
Width: 681
GlyphClass: 2
Flags: MW
HStem: -14 122<323 369 282 450.5> 426 122<345 517.5> 715 20G<139 319 319 319>
VStem: 475 186<250 349>
LayerCount: 2
Fore
SplineSet
451 548 m 0
 584 548 661 467 661 327 c 0
 661 145 556 -14 345 -14 c 0
 301 -14 251 -4 227 12 c 1
 201 72 l 1
 153 -196 l 1
 -27 -196 l 1
 139 735 l 1
 319 735 l 1
 269 456 l 1
 320 515 l 1
 353 537 397 548 451 548 c 0
327 108 m 0
 411 108 475 192 475 308 c 0
 475 390 438 426 378 426 c 0
 312 426 257 384 237 274 c 2
 233 251 l 2
 221 179 237 108 327 108 c 0
EndSplineSet
EndChar

StartChar: ydieresis
Encoding: 255 255 224
Width: 584
GlyphClass: 2
Flags: MW
HStem: -210 116<45.5 73.5 44.5 120.5> 514 20G<31 231 231 231 450 647 647 647> 569 146<231.5 255.5 431.5 455.5>
VStem: 168 150<626.5 657.5> 368 150<626.5 657.5>
LayerCount: 2
Fore
SplineSet
236 569 m 0
 192 569 168 591 168 630 c 0
 168 685 212 715 251 715 c 0
 293 715 318 694 318 654 c 0
 318 599 275 569 236 569 c 0
436 569 m 0
 392 569 368 591 368 630 c 0
 368 685 412 715 451 715 c 0
 493 715 518 694 518 654 c 0
 518 599 475 569 436 569 c 0
647 534 m 1
 344 0 l 2
 256 -155 181 -210 60 -210 c 0
 31 -210 9 -208 -15 -204 c 1
 4 -90 l 1
 20 -93 35 -94 54 -94 c 0
 93 -94 124 -76 146 -33 c 1
 150 -24 l 1
 31 534 l 1
 231 534 l 1
 273 151 l 1
 450 534 l 1
 647 534 l 1
EndSplineSet
EndChar

StartChar: amacron
Encoding: 257 257 121
Width: 589
GlyphClass: 2
Flags: MW
HStem: -14 21G<120 186> 0 108<235 500 235 324> 229.29 98.71 426 122<301 341> 583 96<219 503 203 519>
VStem: 12 186<138 181.5 138 189.5> 325 175 373 182<383.5 390>
LayerCount: 2
Fore
SplineSet
503 583 m 1xbe
 203 583 l 1
 219 679 l 1
 519 679 l 1
 503 583 l 1xbe
343 548 m 0xbd
 499 548 555 484 555 399 c 0
 555 368 550 337 540 281 c 2xbd
 514 135 l 2
 507 95 503 59 500 0 c 1
 324 0 l 1
 326 79 l 1x7e
 294 22 l 1xbe
 257 -2 210 -14 162 -14 c 0
 78 -14 12 33 12 129 c 0
 12 250 137 339 368 328 c 1
 369 332 l 2
 371 343 373 359 373 377 c 0
 373 403 360 426 322 426 c 0
 280 426 249 399 238 353 c 1
 68 352 l 1
 91 477 208 548 343 548 c 0xbd
251 108 m 0x7e
 287 108 334 135 344 191 c 2
 350 227 l 1
 258 238 198 209 198 154 c 0
 198 122 219 108 251 108 c 0x7e
EndSplineSet
EndChar

StartChar: Abreve
Encoding: 258 258 3
Width: 707
GlyphClass: 2
Flags: MW
HStem: 0 21G<-43 148 -43 -43 479 479 479 675> 179 140<304 433 304 453 236 433> 523 167<404 404> 670 20G<321 554 554 554> 728 132<396 425 335 481.5>
VStem: 332.21 92.79
LayerCount: 2
Fore
SplineSet
446 728 m 0xdc
 346 728 323 793 335 860 c 1
 425 860 l 1
 421 832 430 813 460 813 c 0
 490 813 507 829 515 860 c 1
 605 860 l 1
 589 769 517 728 446 728 c 0xdc
453 179 m 1
 236 179 l 1
 148 0 l 1
 -43 0 l 1
 321 690 l 1
 554 690 l 1
 675 0 l 1
 479 0 l 1
 453 179 l 1
433 319 m 1
 404 523 l 1xec
 304 319 l 1
 433 319 l 1
EndSplineSet
Position2: "'cpsp' Capital Spacing in Latin lookup 0 subtable" dx=5 dy=0 dh=10 dv=0
EndChar

StartChar: abreve
Encoding: 259 259 117
Width: 589
GlyphClass: 2
Flags: MW
HStem: -14 21G<120 186> 0 108<235 500 235 324> 229.29 98.71 426 122<301 341> 567 85<348 378 348 384.5> 567 129<299 328 238 384.5>
VStem: 12 186<138 181.5 138 189.5> 235.21 92.79 325 175 373 182<383.5 390>
LayerCount: 2
Fore
SplineSet
349 567 m 0xa740
 249 567 226 629 238 696 c 1
 328 696 l 1xa740
 324 671 333 652 363 652 c 0xab40
 393 652 410 668 418 696 c 1
 508 696 l 1
 492 605 420 567 349 567 c 0xa740
343 548 m 0xb740
 499 548 555 484 555 399 c 0
 555 368 550 337 540 281 c 2xa740
 514 135 l 2
 507 95 503 59 500 0 c 1
 324 0 l 1
 326 79 l 1x6680
 294 22 l 1xa680
 257 -2 210 -14 162 -14 c 0
 78 -14 12 33 12 129 c 0
 12 250 137 339 368 328 c 1
 369 332 l 2
 371 343 373 359 373 377 c 0
 373 403 360 426 322 426 c 0
 280 426 249 399 238 353 c 1
 68 352 l 1
 91 477 208 548 343 548 c 0xb740
251 108 m 0x6740
 287 108 334 135 344 191 c 2
 350 227 l 1
 258 238 198 209 198 154 c 0
 198 122 219 108 251 108 c 0x6740
EndSplineSet
EndChar

StartChar: Aogonek
Encoding: 260 260 8
Width: 707
GlyphClass: 2
Flags: MW
HStem: 0 21G<-43 148 -43 -43 583.5 602 602 675> 179 140<304 433 304 453 236 433> 523 167<404 404> 670 20G<321 554 554 554>
VStem: 367 177<-173 -65>
LayerCount: 2
Fore
SplineSet
544 -82 m 0xd8
 544 -111 560 -121 579 -121 c 0
 593 -121 608 -117 625 -106 c 1
 612 -173 l 1
 578 -202 527 -223 468 -223 c 0
 409 -223 367 -201 367 -145 c 0
 367 -82 405 -34 478 4 c 1
 453 179 l 1
 236 179 l 1
 148 0 l 1
 -43 0 l 1
 321 690 l 1
 554 690 l 1
 675 0 l 1
 602 0 l 2
 565 0 544 -48 544 -82 c 0xd8
433 319 m 1
 404 523 l 1xe8
 304 319 l 1
 433 319 l 1
EndSplineSet
Position2: "'cpsp' Capital Spacing in Latin lookup 0 subtable" dx=5 dy=0 dh=10 dv=0
EndChar

StartChar: aogonek
Encoding: 261 261 122
Width: 589
GlyphClass: 2
Flags: MW
HStem: -14 21G<120 186> -14 122<120 269> 0 21G<428.5 447 447 500> 229.29 98.71 426 122<301 341>
VStem: 12 186<138 181.5 138 189.5> 212 177<-173 -65> 325 175 373 182<383.5 390>
LayerCount: 2
Fore
SplineSet
343 548 m 0x9c80
 499 548 555 484 555 399 c 0
 555 368 550 337 540 281 c 2x3c80
 514 135 l 2
 507 95 503 59 500 0 c 1
 447 0 l 2
 410 0 389 -48 389 -82 c 0
 389 -111 405 -121 424 -121 c 0
 438 -121 453 -117 470 -106 c 1
 457 -173 l 1x3d
 423 -202 372 -223 313 -223 c 0
 254 -223 212 -201 212 -145 c 0x3e
 212 -82 251 -33 324 5 c 1
 326 79 l 1
 294 22 l 1x9d
 257 -2 210 -14 162 -14 c 0
 78 -14 12 33 12 129 c 0
 12 250 137 339 368 328 c 1
 369 332 l 2
 371 343 373 359 373 377 c 0
 373 403 360 426 322 426 c 0
 280 426 249 399 238 353 c 1
 68 352 l 1
 91 477 208 548 343 548 c 0x9c80
251 108 m 0x5d
 287 108 334 135 344 191 c 2
 350 227 l 1
 258 238 198 209 198 154 c 0
 198 122 219 108 251 108 c 0x5d
EndSplineSet
EndChar

StartChar: cacute
Encoding: 263 263 128
Width: 606
GlyphClass: 2
Flags: MW
HStem: -14 122<264.5 311.5 264.5 349.5> 422 122<297.5 363> 569 125<308 581 308 581>
VStem: 21 190<179 267 179 308.5> 420 174<326 358.5>
AnchorPoint: "Anchor-0" 262 0 basechar 0
LayerCount: 2
Fore
SplineSet
404 569 m 1
 308 569 l 1
 421 694 l 1
 581 694 l 1
 404 569 l 1
351 544 m 0xd8
 520 544 594 451 594 326 c 1
 420 326 l 1
 420 391 388 422 338 422 c 0
 257 422 211 321 211 213 c 0
 211 145 243 108 286 108 c 0
 337 108 375 138 395 196 c 1
 572 196 l 1
 524 58 427 -14 272 -14 c 0
 128 -14 21 54 21 215 c 0
 21 402 154 544 351 544 c 0xd8
EndSplineSet
EndChar

StartChar: Cdotaccent
Encoding: 266 266 17
Width: 767
GlyphClass: 2
Flags: MW
HStem: -14 132<338.5 406 338.5 438.5> 572 132<397 486.5> 722 176<463 511.5>
VStem: 63 189<222.5 377.5 222.5 405.5> 394 186<799 821.5> 564 181<453 463 463 463>
LayerCount: 2
Fore
SplineSet
498 898 m 0xf8
 549 898 580 870 580 823 c 0
 580 775 547 722 476 722 c 0
 425 722 394 750 394 797 c 0
 394 846 428 898 498 898 c 0xf8
466 704 m 0xd4
 663 704 755 599 745 463 c 1
 744 453 l 1
 564 453 l 1
 564 463 l 1
 562 537 523 572 450 572 c 0
 344 572 252 472 252 283 c 0
 252 162 306 118 371 118 c 0
 441 118 494 161 522 237 c 1
 526 247 l 1
 706 247 l 1
 703 237 l 1
 657 71 525 -14 352 -14 c 0
 180 -14 63 84 63 271 c 0
 63 540 251 704 466 704 c 0xd4
EndSplineSet
Position2: "'cpsp' Capital Spacing in Latin lookup 0 subtable" dx=5 dy=0 dh=10 dv=0
EndChar

StartChar: ccaron
Encoding: 269 269 129
Width: 606
GlyphClass: 2
Flags: MW
HStem: -14 122<264.5 311.5 264.5 349.5> 422 122<297.5 363> 569 125<288 288 288 352 418 437>
VStem: 21 190<179 267 179 308.5> 420 174<326 358.5>
AnchorPoint: "Anchor-0" 262 0 basechar 0
LayerCount: 2
Fore
SplineSet
288 569 m 1
 248 694 l 1
 352 694 l 1
 371 622 l 1
 418 694 l 1
 521 694 l 1
 437 569 l 1
 288 569 l 1
286 108 m 0
 337 108 375 138 395 196 c 1
 572 196 l 1
 524 58 427 -14 272 -14 c 0
 128 -14 21 54 21 215 c 0
 21 402 154 544 351 544 c 0
 520 544 594 451 594 326 c 1
 420 326 l 1
 420 391 388 422 338 422 c 0xf8
 257 422 211 321 211 213 c 0
 211 145 243 108 286 108 c 0
EndSplineSet
EndChar

StartChar: dcaron
Encoding: 271 271 134
Width: 751
GlyphClass: 2
Flags: MW
HStem: -14 122<162.5 335> 0 108<274.5 577 274.5 397> 426 122<311 357 229.5 398> 556 179<702 707 527 798 702 702>
VStem: 19 190<185 279 185 288>
LayerCount: 2
Fore
SplineSet
707 735 m 1x58
 577 0 l 1
 397 0 l 1
 411 78 l 1x58
 360 19 l 1
 327 -3 283 -14 229 -14 c 0
 96 -14 19 57 19 197 c 0
 19 379 124 548 335 548 c 0
 379 548 429 538 453 522 c 1
 479 463 l 1xb8
 527 735 l 1
 707 735 l 1x58
922 735 m 1
 922 725 l 1
 798 556 l 1
 702 556 l 1
 798 735 l 1
 922 735 l 1
443 260 m 2
 447 283 l 2
 459 355 443 426 353 426 c 0x78
 269 426 209 332 209 226 c 0
 209 144 247 108 302 108 c 0
 368 108 423 150 443 260 c 2
EndSplineSet
EndChar

StartChar: dcroat
Encoding: 273 273 135
Width: 679
GlyphClass: 2
Flags: MW
HStem: -14 122<162.5 335> 0 108<274.5 577 274.5 397> 426 122<311 357 229.5 398> 575 96<396 499 379 516 696 719> 575 160<379 707 379 707 679 707 527 719 679 679>
VStem: 19 190<185 279 185 288>
LayerCount: 2
Fore
SplineSet
719 575 m 1x4c
 679 575 l 1
 577 0 l 1
 397 0 l 1
 411 78 l 1x4c
 360 19 l 1
 327 -3 283 -14 229 -14 c 0
 96 -14 19 57 19 197 c 0
 19 379 124 548 335 548 c 0
 379 548 429 538 453 522 c 1
 479 463 l 1xac
 499 575 l 1
 379 575 l 1x4c
 396 671 l 1
 516 671 l 1x54
 527 735 l 1
 707 735 l 1x4c
 696 671 l 1
 736 671 l 1x54
 719 575 l 1x4c
443 260 m 2
 447 283 l 2
 459 355 443 426 353 426 c 0x6c
 269 426 209 332 209 226 c 0
 209 144 247 108 302 108 c 0
 368 108 423 150 443 260 c 2
EndSplineSet
EndChar

StartChar: Emacron
Encoding: 274 274 29
Width: 628
GlyphClass: 2
Flags: MW
HStem: 0 140<226 550> 276 140<275 569 250 594> 550 140<298 298 298 637> 760 96<282 566 266 582>
VStem: 21 641
AnchorPoint: "Anchor-0" 269 0 basechar 0
LayerCount: 2
Fore
SplineSet
566 760 m 1
 266 760 l 1
 282 856 l 1
 582 856 l 1
 566 760 l 1
298 550 m 1
 275 416 l 1
 594 416 l 1
 569 276 l 1
 250 276 l 1
 226 140 l 1
 575 140 l 1
 550 0 l 1
 21 0 l 1
 143 690 l 1
 662 690 l 1
 637 550 l 1
 298 550 l 1
EndSplineSet
Position2: "'cpsp' Capital Spacing in Latin lookup 0 subtable" dx=5 dy=0 dh=10 dv=0
EndChar

StartChar: Edotaccent
Encoding: 278 278 27
Width: 628
GlyphClass: 2
Flags: MW
HStem: 0 140<226 550> 276 140<275 569 250 594> 550 140<298 298 298 637> 722 176<401 449.5>
VStem: 332 186<799 821.5>
AnchorPoint: "Anchor-0" 269 0 basechar 0
LayerCount: 2
Fore
SplineSet
414 722 m 0
 363 722 332 750 332 797 c 0
 332 846 366 898 436 898 c 0
 487 898 518 870 518 823 c 0
 518 775 485 722 414 722 c 0
298 550 m 1
 275 416 l 1
 594 416 l 1
 569 276 l 1
 250 276 l 1
 226 140 l 1
 575 140 l 1
 550 0 l 1
 21 0 l 1
 143 690 l 1
 662 690 l 1
 637 550 l 1
 298 550 l 1
EndSplineSet
Position2: "'cpsp' Capital Spacing in Latin lookup 0 subtable" dx=5 dy=0 dh=10 dv=0
EndChar

StartChar: edotaccent
Encoding: 279 279 141
Width: 612
GlyphClass: 2
Flags: MW
HStem: -14 122<257.5 306.5 257.5 342.5> 222 110<201 405 222 405 222 571> 426 122<307 356.5> 575 176<357 405.5>
VStem: 21 180<171 207 207 222 171 312.5> 288 186<652 674.5> 406 183<342 368>
AnchorPoint: "Anchor-0" 261 0 basechar 0
LayerCount: 2
Fore
SplineSet
370 575 m 0xfc
 319 575 288 603 288 650 c 0
 288 699 322 751 392 751 c 0
 443 751 474 723 474 676 c 0
 474 628 441 575 370 575 c 0xfc
201 222 m 1
 201 207 l 2
 201 135 234 108 281 108 c 0
 332 108 368 134 382 175 c 1
 559 175 l 1
 517 54 415 -14 270 -14 c 0
 136 -14 21 46 21 209 c 0
 21 416 161 548 345 548 c 0
 515 548 589 444 589 327 c 0
 589 294 582 255 571 222 c 1xea
 201 222 l 1
330 426 m 0
 284 426 245 391 222 332 c 1
 405 332 l 1
 406 338 406 341 406 343 c 0
 406 393 383 426 330 426 c 0
EndSplineSet
EndChar

StartChar: Eogonek
Encoding: 280 280 30
Width: 628
GlyphClass: 2
Flags: MW
HStem: 0 140<226 369 481.5 500 500 550> 276 140<275 569 250 594> 550 140<298 298 298 637>
VStem: 21 641 265 177<-173 -65>
AnchorPoint: "Anchor-0" 269 0 basechar 0
LayerCount: 2
Fore
SplineSet
298 550 m 1xf0
 275 416 l 1
 594 416 l 1
 569 276 l 1
 250 276 l 1
 226 140 l 1
 575 140 l 1
 550 0 l 1
 500 0 l 2
 463 0 442 -48 442 -82 c 0
 442 -111 458 -121 477 -121 c 0
 491 -121 506 -117 523 -106 c 1
 510 -173 l 1
 476 -202 425 -223 366 -223 c 0
 307 -223 265 -201 265 -145 c 0xe8
 265 -85 301 -37 369 0 c 1
 21 0 l 1
 143 690 l 1
 662 690 l 1
 637 550 l 1
 298 550 l 1xf0
EndSplineSet
Position2: "'cpsp' Capital Spacing in Latin lookup 0 subtable" dx=5 dy=0 dh=10 dv=0
EndChar

StartChar: eogonek
Encoding: 281 281 144
Width: 612
GlyphClass: 2
Flags: MW
HStem: -10 21G 222 110<201 405 222 405 222 571> 426 122<307 356.5>
VStem: 21 180<171 207 207 222 171 312.5> 126 177<-173 -69.5> 406 183<342 368>
AnchorPoint: "Anchor-0" 261 0 basechar 0
LayerCount: 2
Fore
SplineSet
201 222 m 1xf4
 201 207 l 2
 201 135 234 108 281 108 c 0xf4
 332 108 368 134 382 175 c 1
 559 175 l 1
 524 73 445 9 335 -9 c 1
 314 -25 303 -57 303 -82 c 0
 303 -111 319 -121 338 -121 c 0
 352 -121 367 -117 384 -106 c 1
 371 -173 l 1
 337 -202 286 -223 227 -223 c 0
 168 -223 126 -201 126 -145 c 0xec
 126 -90 156 -46 213 -10 c 1
 105 6 21 70 21 209 c 0
 21 416 161 548 345 548 c 0
 515 548 589 444 589 327 c 0
 589 294 582 255 571 222 c 1
 201 222 l 1xf4
330 426 m 0
 284 426 245 391 222 332 c 1
 405 332 l 1
 406 338 406 341 406 343 c 0
 406 393 383 426 330 426 c 0
EndSplineSet
EndChar

StartChar: Gbreve
Encoding: 286 286 33
Width: 778
GlyphClass: 2
Flags: MW
HStem: -14 132<345 358.5> 0 21G<530 670 530 530> 228 140<431 540 406 735> 572 132<408 497.5> 728 132<441 470 380 526.5>
VStem: 62 191<224 380.5 224 408> 377.21 92.79 575 181<453 463 463 463>
AnchorPoint: "Anchor-0" 338 0 basechar 0
LayerCount: 2
Fore
SplineSet
491 728 m 0xbf
 391 728 368 793 380 860 c 1
 470 860 l 1
 466 832 475 813 505 813 c 0
 535 813 552 829 560 860 c 1
 650 860 l 1
 634 769 562 728 491 728 c 0xbf
486 704 m 0xb7
 683 704 766 599 756 463 c 1
 755 453 l 1
 575 453 l 1
 575 463 l 1
 573 537 534 572 461 572 c 0
 355 572 253 476 253 285 c 0
 253 163 310 118 380 118 c 0xb7
 450 118 502 152 540 228 c 1
 406 228 l 1
 431 368 l 1
 735 368 l 1
 670 0 l 1
 530 0 l 1x77
 532 107 l 1
 488 30 l 1
 444 -3 395 -14 322 -14 c 0
 164 -14 62 83 62 264 c 0
 62 552 271 704 486 704 c 0xb7
EndSplineSet
Position2: "'cpsp' Capital Spacing in Latin lookup 0 subtable" dx=5 dy=0 dh=10 dv=0
EndChar

StartChar: Gdotaccent
Encoding: 288 288 35
Width: 778
GlyphClass: 2
Flags: MW
HStem: -14 132<345 358.5> 0 21G<530 670 530 530> 228 140<431 540 406 735> 572 132<408 497.5> 722 176<481 529.5>
VStem: 62 191<224 380.5 224 408> 412 186<799 821.5> 575 181<453 463 463 463>
AnchorPoint: "Anchor-0" 338 0 basechar 0
LayerCount: 2
Fore
SplineSet
494 722 m 0xbe
 443 722 412 750 412 797 c 0
 412 846 446 898 516 898 c 0
 567 898 598 870 598 823 c 0
 598 775 565 722 494 722 c 0xbe
486 704 m 0xb5
 683 704 766 599 756 463 c 1
 755 453 l 1
 575 453 l 1
 575 463 l 1
 573 537 534 572 461 572 c 0
 355 572 253 476 253 285 c 0
 253 163 310 118 380 118 c 0xb5
 450 118 502 152 540 228 c 1
 406 228 l 1
 431 368 l 1
 735 368 l 1
 670 0 l 1
 530 0 l 1x74
 532 107 l 1
 488 30 l 1
 444 -3 395 -14 322 -14 c 0
 164 -14 62 83 62 264 c 0
 62 552 271 704 486 704 c 0xb5
EndSplineSet
Position2: "'cpsp' Capital Spacing in Latin lookup 0 subtable" dx=5 dy=0 dh=10 dv=0
EndChar

StartChar: gdotaccent
Encoding: 289 289 149
Width: 680
GlyphClass: 2
Flags: MW
HStem: -220 132<231 292.5 231 336.5> -8 122<162.5 335> 426 108<311 672> 426 122<311 357 229.5 398> 575 176<401 449.5>
VStem: -6 174<-33 -33> 19 190<185 279 185 288> 332 186<652 674.5>
LayerCount: 2
Fore
SplineSet
414 575 m 0xeb
 363 575 332 603 332 650 c 0
 332 699 366 751 436 751 c 0
 487 751 518 723 518 676 c 0
 518 628 485 575 414 575 c 0xeb
672 534 m 1
 602 136 l 2
 596 103 588 62 582 33 c 0
 545 -142 442 -220 231 -220 c 0
 71 -220 -15 -155 -6 -33 c 1
 -5 -23 l 1
 169 -23 l 1
 168 -33 l 1
 166 -68 203 -88 259 -88 c 0xd5
 326 -88 380 -59 398 13 c 0
 402 29 407 54 412 83 c 1
 413 86 l 1
 360 25 l 1
 327 3 283 -8 229 -8 c 0
 96 -8 19 68 19 197 c 0
 19 379 124 548 335 548 c 0
 379 548 429 538 453 522 c 1
 479 462 l 1xd3
 492 534 l 1
 672 534 l 1
302 114 m 0xd3
 368 114 423 150 443 260 c 1
 443 255 l 1
 448 287 l 1
 447 283 l 1
 459 355 443 426 353 426 c 0
 269 426 209 332 209 226 c 0
 209 144 247 114 302 114 c 0xd3
EndSplineSet
EndChar

StartChar: Gcommaaccent
Encoding: 290 290 34
Width: 778
GlyphClass: 2
Flags: MW
HStem: -216 179<186 406 186 406> -14 132<345 358.5> 0 21G<530 670 530 530> 228 140<431 540 406 735> 572 132<408 497.5>
VStem: 62 191<224 380.5 224 408> 575 181<453 463 463 463>
AnchorPoint: "Anchor-0" 338 0 basechar 0
LayerCount: 2
Fore
SplineSet
486 704 m 0x5e
 683 704 766 599 756 463 c 1
 755 453 l 1
 575 453 l 1
 575 463 l 1
 573 537 534 572 461 572 c 0
 355 572 253 476 253 285 c 0
 253 163 310 118 380 118 c 0x5e
 450 118 502 152 540 228 c 1
 406 228 l 1
 431 368 l 1
 735 368 l 1
 670 0 l 1
 530 0 l 1x3e
 532 107 l 1
 488 30 l 1
 444 -3 395 -14 322 -14 c 0
 164 -14 62 83 62 264 c 0
 62 552 271 704 486 704 c 0x5e
282 -37 m 1xde
 406 -37 l 1
 406 -47 l 1
 282 -216 l 1
 186 -216 l 1
 282 -37 l 1xde
EndSplineSet
Position2: "'cpsp' Capital Spacing in Latin lookup 0 subtable" dx=5 dy=0 dh=10 dv=0
EndChar

StartChar: gcommaaccent
Encoding: 291 291 148
Width: 661
GlyphClass: 2
Flags: MW
HStem: -220 132<231 292.5 231 336.5> -8 122<162.5 335> 426 108<311 672> 426 122<311 357 229.5 398> 567 179<324 544 324 544>
VStem: -6 174<-33 -33> 19 190<185 279 185 288>
LayerCount: 2
Fore
SplineSet
448 567 m 1xea
 324 567 l 1
 324 577 l 1
 448 746 l 1
 544 746 l 1
 448 567 l 1xea
672 534 m 1
 602 136 l 2
 596 103 588 62 582 33 c 0
 545 -142 442 -220 231 -220 c 0
 71 -220 -15 -155 -6 -33 c 1
 -5 -23 l 1
 169 -23 l 1
 168 -33 l 1
 166 -68 203 -88 259 -88 c 0xd4
 326 -88 380 -59 398 13 c 0
 402 29 407 54 412 83 c 1
 413 86 l 1
 360 25 l 1
 327 3 283 -8 229 -8 c 0
 96 -8 19 68 19 197 c 0
 19 379 124 548 335 548 c 0
 379 548 429 538 453 522 c 1
 479 462 l 1xd2
 492 534 l 1
 672 534 l 1
302 114 m 0xd2
 368 114 423 150 443 260 c 1
 443 255 l 1
 448 287 l 1
 447 283 l 1
 459 355 443 426 353 426 c 0
 269 426 209 332 209 226 c 0
 209 144 247 114 302 114 c 0xd2
EndSplineSet
EndChar

StartChar: Hbar
Encoding: 294 294 37
Width: 761
GlyphClass: 2
Flags: MW
HStem: 0 21G<20 200 20 20 476 656 476 476> 268 140<272 523 247 548> 482 96<83 105 66 122 302 561 758 781> 482 208<66 322 66 322 285 285 285 322 142 561 741 778 741 741>
VStem: 20 778<0 578>
LayerCount: 2
Fore
SplineSet
781 482 m 1xd8
 741 482 l 1
 656 0 l 1
 476 0 l 1
 523 268 l 1
 247 268 l 1
 200 0 l 1
 20 0 l 1
 105 482 l 1
 66 482 l 1xd8
 83 578 l 1
 122 578 l 1xe8
 142 690 l 1
 322 690 l 1xd8
 302 578 l 1
 578 578 l 1xe8
 598 690 l 1
 778 690 l 1xd8
 758 578 l 1
 798 578 l 1xe8
 781 482 l 1xd8
561 482 m 1
 285 482 l 1
 272 408 l 1
 548 408 l 1
 561 482 l 1
EndSplineSet
Position2: "'cpsp' Capital Spacing in Latin lookup 0 subtable" dx=5 dy=0 dh=10 dv=0
EndChar

StartChar: hbar
Encoding: 295 295 151
Width: 656
GlyphClass: 2
Flags: MW
HStem: 0 21G<21 201 21 21 381 561 381 381> 426 122<339.5 521.5> 528 20G<442.5 521.5> 575 96<86 122 69 139 319 407> 575 165<69 331 69 331 302 302 302 331 151 407>
VStem: 21 607<0 450.5> 439 189<341.5 450.5>
LayerCount: 2
Fore
SplineSet
467 548 m 0xaa
 576 548 628 490 628 411 c 0
 628 383 624 353 616 308 c 2
 561 0 l 1
 381 0 l 1
 429 268 l 2
 435 303 439 332 439 351 c 0
 439 396 421 426 368 426 c 0xca
 311 426 266 369 244 248 c 1
 201 0 l 1
 21 0 l 1
 122 575 l 1
 69 575 l 1x8c
 86 671 l 1
 139 671 l 1x94
 151 740 l 1
 331 740 l 1x8c
 319 671 l 1
 424 671 l 1x94
 407 575 l 1
 302 575 l 1x8c
 281 458 l 1
 341 517 l 1
 378 537 418 548 467 548 c 0xaa
EndSplineSet
EndChar

StartChar: Imacron
Encoding: 298 298 45
Width: 306
GlyphClass: 2
Flags: MW
HStem: 0 21G<21 201 21 21> 670 20G<143 323 323 323> 760 96<112 396 96 412>
VStem: 21 391
LayerCount: 2
Fore
SplineSet
396 760 m 1
 96 760 l 1
 112 856 l 1
 412 856 l 1
 396 760 l 1
201 0 m 1
 21 0 l 1
 143 690 l 1
 323 690 l 1
 201 0 l 1
EndSplineSet
Position2: "'cpsp' Capital Spacing in Latin lookup 0 subtable" dx=5 dy=0 dh=10 dv=0
EndChar

StartChar: imacron
Encoding: 299 299 159
Width: 290
GlyphClass: 2
Flags: MW
HStem: 0 21G<8 188 8 8> 514 20G<103 283 283 283> 583 96<70 354 54 370>
VStem: 8 362
LayerCount: 2
Fore
SplineSet
354 583 m 1
 54 583 l 1
 70 679 l 1
 370 679 l 1
 354 583 l 1
188 0 m 1
 8 0 l 1
 103 534 l 1
 283 534 l 1
 188 0 l 1
EndSplineSet
EndChar

StartChar: Iogonek
Encoding: 302 302 46
Width: 306
GlyphClass: 2
Flags: MW
HStem: 0 21G<125.5 144 144 201> 670 20G<143 323 323 323>
VStem: -91 177<-173 -65> -91 414
LayerCount: 2
Fore
SplineSet
201 0 m 1xd0
 144 0 l 2
 107 0 86 -48 86 -82 c 0
 86 -111 102 -121 121 -121 c 0
 135 -121 150 -117 167 -106 c 1
 154 -173 l 1
 120 -202 69 -223 10 -223 c 0
 -49 -223 -91 -201 -91 -145 c 0xe0
 -91 -82 -52 -33 22 5 c 1
 143 690 l 1
 323 690 l 1
 201 0 l 1xd0
EndSplineSet
Position2: "'cpsp' Capital Spacing in Latin lookup 0 subtable" dx=5 dy=0 dh=10 dv=0
EndChar

StartChar: iogonek
Encoding: 303 303 160
Width: 290
GlyphClass: 2
Flags: MW
HStem: 0 21G<112.5 131 131 188> 514 20G<103 283 283 283> 575 176<195 243.5>
VStem: -104 177<-173 -65> 126 186<652 674.5>
LayerCount: 2
Fore
SplineSet
208 575 m 0
 157 575 126 603 126 650 c 0
 126 699 160 751 230 751 c 0
 281 751 312 723 312 676 c 0
 312 628 279 575 208 575 c 0
103 534 m 1
 283 534 l 1
 188 0 l 1
 131 0 l 2
 94 0 73 -48 73 -82 c 0
 73 -111 89 -121 108 -121 c 0
 122 -121 137 -117 154 -106 c 1
 141 -173 l 1
 107 -202 56 -223 -3 -223 c 0
 -62 -223 -104 -201 -104 -145 c 0
 -104 -82 -65 -33 9 5 c 1
 103 534 l 1
EndSplineSet
EndChar

StartChar: Idotaccent
Encoding: 304 304 43
Width: 306
GlyphClass: 2
Flags: MW
HStem: 0 21G<21 201 21 21> 670 20G<143 323 323 323> 722 176<231 279.5>
VStem: 162 186<799 821.5>
LayerCount: 2
Fore
SplineSet
266 898 m 0
 317 898 348 870 348 823 c 0
 348 775 315 722 244 722 c 0
 193 722 162 750 162 797 c 0
 162 846 196 898 266 898 c 0
201 0 m 1
 21 0 l 1
 143 690 l 1
 323 690 l 1
 201 0 l 1
EndSplineSet
Position2: "'cpsp' Capital Spacing in Latin lookup 0 subtable" dx=5 dy=0 dh=10 dv=0
EndChar

StartChar: dotlessi
Encoding: 305 305 153
Width: 290
GlyphClass: 2
Flags: MW
HStem: 0 21G<8 188 8 8> 514 20G<103 283 283 283>
VStem: 8 275
LayerCount: 2
Fore
SplineSet
188 0 m 1
 8 0 l 1
 103 534 l 1
 283 534 l 1
 188 0 l 1
EndSplineSet
EndChar

StartChar: IJ
Encoding: 306 306 39
Width: 941
GlyphClass: 2
Flags: MW
HStem: -14 132<553.5 604 553.5 644.5> 0 21G<21 201 21 21> 670 20G<143 323 323 323 762 942 942 942>
VStem: 321.78 185.72
LayerCount: 2
Fore
SplineSet
201 0 m 1x70
 21 0 l 1
 143 690 l 1
 323 690 l 1
 201 0 l 1x70
942 690 m 1
 873 299 l 2
 868 267 864 245 852 194 c 0
 824 73 739 -14 550 -14 c 0
 383 -14 304 84 325 234 c 2
 329 264 l 1
 509 264 l 1
 506 234 l 2
 496 144 528 118 579 118 c 0
 629 118 660 150 675 205 c 0xb0
 681 228 685 250 689 271 c 2
 762 690 l 1
 942 690 l 1
EndSplineSet
Position2: "'cpsp' Capital Spacing in Latin lookup 0 subtable" dx=5 dy=0 dh=10 dv=0
EndChar

StartChar: ij
Encoding: 307 307 158
Width: 560
GlyphClass: 2
Flags: MW
HStem: -210 125<165 280.5> 0 21G<8 188 8 8> 514 20G<103 283 283 283 376 556 556 556> 575 176<195 243.5 462 516>
VStem: 126 186<652 674.5> 394 190<643.5 682.5>
LayerCount: 2
Fore
SplineSet
230 751 m 0
 281 751 312 723 312 676 c 0
 312 628 279 575 208 575 c 0
 157 575 126 603 126 650 c 0
 126 699 160 751 230 751 c 0
495 751 m 0
 553 751 584 723 584 678 c 0
 584 609 549 575 483 575 c 0
 425 575 394 603 394 648 c 0
 394 717 429 751 495 751 c 0
188 0 m 1
 8 0 l 1
 103 534 l 1
 283 534 l 1
 188 0 l 1
556 534 m 1
 465 16 l 2
 462 -4 456 -30 451 -48 c 0
 427 -148 358 -210 203 -210 c 0
 182 -210 161 -209 144 -206 c 1
 165 -85 l 1
 230 -92 261 -79 274 -33 c 0
 278 -19 282 0 285 15 c 2
 376 534 l 1
 556 534 l 1
EndSplineSet
EndChar

StartChar: Kcommaaccent
Encoding: 310 310 49
Width: 715
GlyphClass: 2
Flags: MW
HStem: -216 179<154 374 154 374> 0 21G<21 201 21 21 447 670 447 447> 670 20G<143 323 323 323 586 801 801 801>
VStem: 21 780<0 690>
AnchorPoint: "Anchor-0" 306 0 basechar 0
LayerCount: 2
Fore
SplineSet
436 357 m 1
 670 0 l 1
 447 0 l 1
 296 266 l 1
 238 212 l 1
 201 0 l 1
 21 0 l 1
 143 690 l 1
 323 690 l 1
 269 385 l 1
 586 690 l 1
 801 690 l 1
 436 357 l 1
250 -37 m 1
 374 -37 l 1
 374 -47 l 1
 250 -216 l 1
 154 -216 l 1
 250 -37 l 1
EndSplineSet
Position2: "'cpsp' Capital Spacing in Latin lookup 0 subtable" dx=5 dy=0 dh=10 dv=0
EndChar

StartChar: kcommaaccent
Encoding: 311 311 163
Width: 641
GlyphClass: 2
Flags: MW
HStem: -216 179<124 344 124 344> 0 21G<8 188 8 8 389 608 389 389> 514 20G<470 681 681 681> 715 20G<138 318 318 318>
VStem: 8 673<0 534>
AnchorPoint: "Anchor-0" 276 0 basechar 0
LayerCount: 2
Fore
SplineSet
411 285 m 1
 608 0 l 1
 389 0 l 1
 268 200 l 1
 215 155 l 1
 188 0 l 1
 8 0 l 1
 138 735 l 1
 318 735 l 1
 243 311 l 1
 470 534 l 1
 681 534 l 1
 411 285 l 1
220 -37 m 1
 344 -37 l 1
 344 -47 l 1
 220 -216 l 1
 124 -216 l 1
 220 -37 l 1
EndSplineSet
EndChar

StartChar: Lacute
Encoding: 313 313 51
Width: 616
GlyphClass: 2
Flags: MW
HStem: 0 152<228 550> 670 20G<143 323 323 323> 735 125<187 460 187 460>
VStem: 21 556<0 152>
AnchorPoint: "Anchor-0" 280 0 basechar 0
LayerCount: 2
Fore
SplineSet
283 735 m 1
 187 735 l 1
 300 860 l 1
 460 860 l 1
 283 735 l 1
577 152 m 1
 550 0 l 1
 21 0 l 1
 143 690 l 1
 323 690 l 1
 228 152 l 1
 577 152 l 1
EndSplineSet
Position2: "'cpsp' Capital Spacing in Latin lookup 0 subtable" dx=5 dy=0 dh=10 dv=0
EndChar

StartChar: lacute
Encoding: 314 314 165
Width: 306
GlyphClass: 2
Flags: MW
HStem: -10 117<105 264> 715 20G<135 315 315 315> 777 125<169 442 169 442>
VStem: 23 188<43 145> 23 419
AnchorPoint: "Anchor-0" 116 0 basechar 0
LayerCount: 2
Fore
SplineSet
265 777 m 1xe8
 169 777 l 1
 282 902 l 1
 442 902 l 1
 265 777 l 1xe8
315 735 m 1
 218 192 l 2
 214 170 211 152 211 138 c 0
 211 110 225 105 264 107 c 1
 244 -4 l 1
 216 -8 188 -10 148 -10 c 0
 62 -10 23 14 23 72 c 0
 23 102 28 139 37 189 c 2xf0
 135 735 l 1
 315 735 l 1
EndSplineSet
EndChar

StartChar: lcommaaccent
Encoding: 316 316 167
Width: 306
GlyphClass: 2
Flags: MW
HStem: -216 179<-36 184 -36 184> -10 117<105 264> 715 20G<135 315 315 315>
VStem: -36 351 23 188<43 145>
AnchorPoint: "Anchor-0" 116 0 basechar 0
LayerCount: 2
Fore
SplineSet
315 735 m 1x70
 218 192 l 2
 214 170 211 152 211 138 c 0
 211 110 225 105 264 107 c 1
 244 -4 l 1
 216 -8 188 -10 148 -10 c 0
 62 -10 23 14 23 72 c 0
 23 102 28 139 37 189 c 2x68
 135 735 l 1
 315 735 l 1x70
184 -47 m 1xe8
 60 -216 l 1
 -36 -216 l 1
 60 -37 l 1
 184 -37 l 1
 184 -47 l 1xe8
EndSplineSet
EndChar

StartChar: Ldot
Encoding: 319 319 54
Width: 616
GlyphClass: 2
Flags: MW
HStem: 0 152<228 550> 312 176<429 463> 670 20G<143 323 323 323>
VStem: 351 190<384.5 415.5>
AnchorPoint: "Anchor-0" 280 0 basechar 0
LayerCount: 2
Fore
SplineSet
577 152 m 1
 550 0 l 1
 21 0 l 1
 143 690 l 1
 323 690 l 1
 228 152 l 1
 577 152 l 1
430 312 m 0
 382 312 351 340 351 387 c 0
 351 444 396 488 462 488 c 0
 510 488 541 460 541 413 c 0
 541 356 496 312 430 312 c 0
EndSplineSet
Ligature2: "Ligature Substitution lookup 6 subtable" L periodcentered
Position2: "'cpsp' Capital Spacing in Latin lookup 0 subtable" dx=5 dy=0 dh=10 dv=0
EndChar

StartChar: ldot
Encoding: 320 320 168
Width: 476
GlyphClass: 2
Flags: MW
HStem: -10 117<105 264> 715 20G<135 315 315 315>
VStem: 23 188<43 145> 295 204<387.5 416.5>
AnchorPoint: "Anchor-0" 116 0 basechar 0
LayerCount: 2
Fore
SplineSet
315 735 m 1
 218 192 l 2
 214 170 211 152 211 138 c 0
 211 110 225 105 264 107 c 1
 244 -4 l 1
 216 -8 188 -10 148 -10 c 0
 62 -10 23 14 23 72 c 0
 23 102 28 139 37 189 c 2
 135 735 l 1
 315 735 l 1
415 502 m 0
 461 502 499 476 499 425 c 0
 499 350 450 302 379 302 c 0
 334 302 295 328 295 379 c 0
 295 454 344 502 415 502 c 0
EndSplineSet
Ligature2: "Ligature Substitution lookup 6 subtable" l periodcentered
EndChar

StartChar: Lslash
Encoding: 321 321 55
Width: 659
GlyphClass: 2
Flags: MW
HStem: 0 152<271 593> 518 20G<434 434> 670 20G<186 366 366 366>
VStem: 21 599<152 235>
AnchorPoint: "Anchor-0" 323 0 basechar 0
LayerCount: 2
Fore
SplineSet
620 152 m 1
 593 0 l 1
 64 0 l 1
 113 280 l 1
 21 235 l 1
 41 348 l 1
 133 393 l 1
 186 690 l 1
 366 690 l 1
 330 488 l 1
 434 538 l 1
 414 425 l 1
 310 375 l 1
 271 152 l 1
 620 152 l 1
EndSplineSet
Position2: "'cpsp' Capital Spacing in Latin lookup 0 subtable" dx=5 dy=0 dh=10 dv=0
EndChar

StartChar: lslash
Encoding: 322 322 169
Width: 339
GlyphClass: 2
Flags: MW
HStem: -10 117<128 287> 715 20G<158 338 338 338>
VStem: -5 354<168 477> 46 188<43 145>
AnchorPoint: "Anchor-0" 139 0 basechar 0
LayerCount: 2
Fore
SplineSet
264 322 m 1xe0
 241 192 l 2
 237 170 234 152 234 138 c 0
 234 110 248 105 287 107 c 1
 267 -4 l 1
 239 -8 211 -10 171 -10 c 0
 85 -10 46 14 46 72 c 0
 46 102 51 139 60 189 c 2
 63 207 l 1
 -5 168 l 1
 16 287 l 1
 85 326 l 1xd0
 158 735 l 1
 338 735 l 1
 285 441 l 1
 349 477 l 1
 328 358 l 1
 264 322 l 1xe0
EndSplineSet
EndChar

StartChar: nacute
Encoding: 324 324 172
Width: 643
GlyphClass: 2
Flags: MW
HStem: 0 21G<8 188 8 8 368 548 368 368> 426 108<102 381.5> 528 20G<429.5 508.5> 569 125<320 593 320 593>
VStem: 8 607<0 450.5> 426 189<341.5 450.5>
AnchorPoint: "Anchor-0" 275 0 basechar 0
LayerCount: 2
Fore
SplineSet
416 569 m 1xd8
 320 569 l 1
 433 694 l 1
 593 694 l 1
 416 569 l 1xd8
454 548 m 0xb4
 563 548 615 490 615 411 c 0
 615 383 611 353 603 308 c 2
 548 0 l 1
 368 0 l 1
 416 268 l 2
 422 303 426 332 426 351 c 0
 426 396 408 426 355 426 c 0
 298 426 253 369 231 248 c 1
 188 0 l 1
 8 0 l 1
 102 534 l 1
 282 534 l 1
 268 458 l 1xd4
 328 517 l 1
 365 537 405 548 454 548 c 0xb4
EndSplineSet
EndChar

StartChar: Ncommaaccent
Encoding: 325 325 60
Width: 786
GlyphClass: 2
Flags: MW
HStem: -216 179<204 424 204 424> 0 21G<21 201 21 21 446 681 446 446> 670 20G<143 367 367 367 623 803 803 803>
VStem: 21 782<0 690>
AnchorPoint: "Anchor-0" 356 0 basechar 0
LayerCount: 2
Fore
SplineSet
803 690 m 1
 681 0 l 1
 446 0 l 1
 281 457 l 1
 201 0 l 1
 21 0 l 1
 143 690 l 1
 367 690 l 1
 540 213 l 1
 623 690 l 1
 803 690 l 1
300 -37 m 1
 424 -37 l 1
 424 -47 l 1
 300 -216 l 1
 204 -216 l 1
 300 -37 l 1
EndSplineSet
Position2: "'cpsp' Capital Spacing in Latin lookup 0 subtable" dx=5 dy=0 dh=10 dv=0
EndChar

StartChar: ncommaaccent
Encoding: 326 326 174
Width: 643
GlyphClass: 2
Flags: MW
HStem: -216 179<123 343 123 343> 0 21G<8 188 8 8 368 548 368 368> 426 108<102 381.5> 528 20G<429.5 508.5>
VStem: 8 607<0 450.5> 426 189<341.5 450.5>
AnchorPoint: "Anchor-0" 275 0 basechar 0
LayerCount: 2
Fore
SplineSet
454 548 m 0xd4
 563 548 615 490 615 411 c 0
 615 383 611 353 603 308 c 2
 548 0 l 1
 368 0 l 1
 416 268 l 2
 422 303 426 332 426 351 c 0
 426 396 408 426 355 426 c 0
 298 426 253 369 231 248 c 1
 188 0 l 1
 8 0 l 1
 102 534 l 1
 282 534 l 1
 268 458 l 1xe4
 328 517 l 1
 365 537 405 548 454 548 c 0xd4
219 -37 m 1xe8
 343 -37 l 1
 343 -47 l 1
 219 -216 l 1
 123 -216 l 1
 219 -37 l 1xe8
EndSplineSet
EndChar

StartChar: Eng
Encoding: 330 330 61
Width: 787
GlyphClass: 2
Flags: MW
HStem: -223 132<411 411 411 499> 0 21G<22 202 22 22> 670 20G<143 367 367 367 623 803 803 803>
VStem: 22 781<0 690>
LayerCount: 2
Fore
SplineSet
803 690 m 1
 672 -57 l 2
 650 -183 610 -223 388 -223 c 1
 411 -91 l 1
 472 -85 490 -66 496 -33 c 2
 498 -20 l 1
 278 456 l 1
 202 0 l 1
 22 0 l 1
 143 690 l 1
 367 690 l 1
 551 254 l 1
 623 690 l 1
 803 690 l 1
EndSplineSet
Position2: "'cpsp' Capital Spacing in Latin lookup 0 subtable" dx=5 dy=0 dh=10 dv=0
EndChar

StartChar: eng
Encoding: 331 331 175
Width: 643
GlyphClass: 2
Flags: MW
HStem: -174 132<286 315.5 286 348.5> 0 21G<8 188 8 8 368 368> 426 108<102 381.5> 528 20G<429.5 508.5>
VStem: 426 189<341.5 450.5>
LayerCount: 2
Fore
SplineSet
454 548 m 0xd8
 563 548 615 490 615 411 c 0
 615 383 611 353 603 308 c 2
 545 -18 l 2
 541 -39 538 -50 533 -64 c 0
 499 -152 434 -174 263 -174 c 1
 286 -42 l 1
 345 -42 362 -30 368 0 c 2
 416 268 l 2
 422 303 426 332 426 351 c 0
 426 396 408 426 355 426 c 0
 298 426 253 369 231 248 c 1
 188 0 l 1
 8 0 l 1
 102 534 l 1
 282 534 l 1
 268 458 l 1xe8
 328 517 l 1
 365 537 405 548 454 548 c 0xd8
EndSplineSet
EndChar

StartChar: Omacron
Encoding: 332 332 69
Width: 808
GlyphClass: 2
Flags: MW
HStem: -14 132<353 470.5 353 507> 572 132<391.5 509> 760 96<376 660 360 676>
VStem: 65 190<239.5 354.5 239.5 415> 607 190<335.5 450.5>
LayerCount: 2
Fore
SplineSet
660 760 m 1
 360 760 l 1
 376 856 l 1
 676 856 l 1
 660 760 l 1
467 704 m 0
 678 704 797 576 797 405 c 0
 797 145 619 -14 395 -14 c 0
 184 -14 65 114 65 285 c 0
 65 545 243 704 467 704 c 0
401 118 m 0
 540 118 607 271 607 400 c 0
 607 501 557 572 461 572 c 0
 322 572 255 419 255 290 c 0
 255 189 305 118 401 118 c 0
EndSplineSet
Position2: "'cpsp' Capital Spacing in Latin lookup 0 subtable" dx=5 dy=0 dh=10 dv=0
EndChar

StartChar: omacron
Encoding: 333 333 183
Width: 639
GlyphClass: 2
Flags: MW
HStem: -14 122<269 341 269 394.5> 426 122<299 371> 583 96<242 526 226 542>
VStem: 23 190<193 278.5 193 310> 427 190<255.5 341>
LayerCount: 2
Fore
SplineSet
526 583 m 1
 226 583 l 1
 242 679 l 1
 542 679 l 1
 526 583 l 1
355 548 m 0
 528 548 617 451 617 310 c 0
 617 138 504 -14 285 -14 c 0
 112 -14 23 83 23 224 c 0
 23 396 136 548 355 548 c 0
298 108 m 0
 384 108 427 205 427 306 c 0
 427 376 400 426 342 426 c 0
 256 426 213 329 213 228 c 0
 213 158 240 108 298 108 c 0
EndSplineSet
EndChar

StartChar: ohungarumlaut
Encoding: 337 337 182
Width: 639
GlyphClass: 2
Flags: MW
HStem: -14 122<269 341 269 394.5> 426 122<299 371> 569 125<191 464 191 464 402 464 304 498 402 402>
VStem: 23 190<193 278.5 193 310> 427 190<255.5 341>
LayerCount: 2
Fore
SplineSet
287 569 m 1
 191 569 l 1
 304 694 l 1
 464 694 l 1
 287 569 l 1
402 569 m 1
 515 694 l 1
 675 694 l 1
 498 569 l 1
 402 569 l 1
355 548 m 0xf8
 528 548 617 451 617 310 c 0
 617 138 504 -14 285 -14 c 0
 112 -14 23 83 23 224 c 0
 23 396 136 548 355 548 c 0xf8
298 108 m 0
 384 108 427 205 427 306 c 0
 427 376 400 426 342 426 c 0
 256 426 213 329 213 228 c 0
 213 158 240 108 298 108 c 0
EndSplineSet
EndChar

StartChar: OE
Encoding: 338 338 72
Width: 1150
GlyphClass: 2
Flags: MW
HStem: -14 132<352 376.5> 0 140<748 1072> 276 140<797 1091 772 1116> 550 140<820 820 820 1159> 572 132<395.5 501.5 326 539.5>
VStem: 63 186<224 351 224 381>
LayerCount: 2
Fore
SplineSet
820 550 m 1x74
 797 416 l 1
 1116 416 l 1
 1091 276 l 1
 772 276 l 1
 748 140 l 1
 1097 140 l 1
 1072 0 l 1
 543 0 l 1x74
 561 102 l 1
 518 36 l 1
 459 -4 421 -14 332 -14 c 0
 180 -14 63 79 63 277 c 0
 63 485 194 704 458 704 c 0
 545 704 584 694 627 656 c 1xac
 647 588 l 1
 665 690 l 1
 1184 690 l 1
 1159 550 l 1
 820 550 l 1x74
395 118 m 0xac
 499 118 577 199 604 345 c 1
 623 462 604 572 475 572 c 0
 316 572 249 417 249 285 c 0
 249 163 309 118 395 118 c 0xac
EndSplineSet
Position2: "'cpsp' Capital Spacing in Latin lookup 0 subtable" dx=5 dy=0 dh=10 dv=0
EndChar

StartChar: oe
Encoding: 339 339 186
Width: 1003
GlyphClass: 2
Flags: MW
HStem: -14 122<262.5 304.5 644.5 693.5> 222 110<615 796 615 961 589 796> 422 122<293 369.5 719 745.5>
VStem: 21 186<184.5 260.5 184.5 287.5> 425 163<166 352.5> 797 182<343 370>
LayerCount: 2
Fore
SplineSet
961 222 m 1
 589 222 l 1
 588 212 588 206 588 203 c 0
 588 129 621 108 668 108 c 0
 719 108 755 134 769 175 c 1
 946 175 l 1
 894 54 792 -14 650 -14 c 0
 577 -14 511 10 476 77 c 1
 419 12 342 -14 267 -14 c 0
 114 -14 21 69 21 214 c 0
 21 361 118 544 355 544 c 0
 440 544 507 517 543 450 c 1
 601 516 676 544 762 544 c 0
 909 544 979 444 979 328 c 0
 979 291 972 252 961 222 c 1
288 108 m 0
 390 108 425 241 425 322 c 0
 425 383 395 422 344 422 c 0
 242 422 207 303 207 218 c 0
 207 151 237 108 288 108 c 0
723 422 m 0
 676 422 639 397 615 332 c 1
 796 332 l 1
 797 339 797 342 797 344 c 0
 797 396 768 422 723 422 c 0
EndSplineSet
EndChar

StartChar: Racute
Encoding: 340 340 77
Width: 667
GlyphClass: 2
Flags: MW
HStem: 0 21G<21 201 21 21 415 611 415 415> 262 130<270 288 247 336> 550 140<298 368 298 298> 735 125<347 620 347 620>
VStem: 408 180<113.5 186> 487 196<481.5 509.5>
AnchorPoint: "Anchor-0" 271 0 basechar 0
LayerCount: 2
Fore
SplineSet
443 735 m 1xf8
 347 735 l 1
 460 860 l 1
 620 860 l 1
 443 735 l 1xf8
683 534 m 0xf4
 683 429 622 358 506 328 c 1
 568 301 588 242 588 133 c 0
 588 76 596 33 611 0 c 1
 415 0 l 1
 410 37 408 74 408 153 c 0
 408 219 386 258 344 261 c 0xf8
 324 262 308 262 288 262 c 2
 247 262 l 1
 201 0 l 1
 21 0 l 1
 143 690 l 1
 417 690 l 2
 460 690 488 689 524 685 c 0
 611 675 683 632 683 534 c 0xf4
270 392 m 1
 336 392 l 2
 355 392 371 392 384 393 c 0
 437 397 487 417 487 487 c 0
 487 532 456 546 416 549 c 0
 403 550 387 550 368 550 c 2
 298 550 l 1
 270 392 l 1
EndSplineSet
Position2: "'cpsp' Capital Spacing in Latin lookup 0 subtable" dx=5 dy=0 dh=10 dv=0
EndChar

StartChar: racute
Encoding: 341 341 191
Width: 416
GlyphClass: 2
Flags: MW
HStem: 0 21G<8 188 8 8> 400.12 129.88 400.12 147.88 525 20G<468 468> 569 125<212 485 212 485>
VStem: 8 477
AnchorPoint: "Anchor-0" 98 0 basechar 0
LayerCount: 2
Fore
SplineSet
308 569 m 1xcc
 212 569 l 1
 325 694 l 1
 485 694 l 1
 308 569 l 1xcc
263 425 m 1
 315 501 l 1
 349 533 394 548 428 548 c 0xac
 445 548 456 547 468 545 c 1x9c
 443 398 l 1xac
 347 408 258 389 223 196 c 2
 188 0 l 1
 8 0 l 1
 101 530 l 1
 281 530 l 1
 263 425 l 1
EndSplineSet
EndChar

StartChar: rcommaaccent
Encoding: 343 343 193
Width: 416
GlyphClass: 2
Flags: MW
HStem: -216 179<-54 166 -54 166> 0 21G<8 188 8 8> 400.12 129.88 400.12 147.88 525 20G<468 468>
VStem: -54 522
AnchorPoint: "Anchor-0" 98 0 basechar 0
LayerCount: 2
Fore
SplineSet
428 548 m 0xd4
 445 548 456 547 468 545 c 1xcc
 443 398 l 1xd4
 347 408 258 389 223 196 c 2
 188 0 l 1
 8 0 l 1
 101 530 l 1
 281 530 l 1xe4
 263 425 l 1
 315 501 l 1
 349 533 394 548 428 548 c 0xd4
42 -37 m 1
 166 -37 l 1
 166 -47 l 1
 42 -216 l 1
 -54 -216 l 1
 42 -37 l 1
EndSplineSet
EndChar

StartChar: rcaron
Encoding: 345 345 192
Width: 416
GlyphClass: 2
Flags: MW
HStem: 0 21G<8 188 8 8> 400.12 129.88 400.12 147.88 525 20G<468 468> 569 125<192 192 192 256 322 341>
VStem: 8 460
AnchorPoint: "Anchor-0" 98 0 basechar 0
LayerCount: 2
Fore
SplineSet
192 569 m 1xcc
 152 694 l 1
 256 694 l 1
 275 622 l 1
 322 694 l 1
 425 694 l 1
 341 569 l 1
 192 569 l 1xcc
428 548 m 0xac
 445 548 456 547 468 545 c 1x9c
 443 398 l 1xac
 347 408 258 389 223 196 c 2
 188 0 l 1
 8 0 l 1
 101 530 l 1
 281 530 l 1xcc
 263 425 l 1
 315 501 l 1
 349 533 394 548 428 548 c 0xac
EndSplineSet
EndChar

StartChar: Scedilla
Encoding: 350 350 83
Width: 627
GlyphClass: 2
Flags: MW
HStem: -210 69<190 213 184 251> -88 46 -10 21G<216 216> 572 132<339.5 392.5>
VStem: 15 180<178.5 211> 88 193<480.5 523 480.5 538.5> 257 109<-121.5 -100.5> 398 193<170 207.5> 443 180<477 477>
AnchorPoint: "Anchor-0" 265 0 basechar 0
LayerCount: 2
Fore
SplineSet
623 477 m 1xba80
 443 477 l 1
 445 534 422 572 363 572 c 0
 316 572 281 547 281 499 c 0xb480
 281 462 313 436 411 412 c 0
 537 381 591 315 591 228 c 0
 591 75 454 -6 302 -13 c 1
 282 -42 l 1
 337 -50 366 -73 366 -111 c 0
 366 -179 293 -210 209 -210 c 0
 171 -210 142 -208 123 -203 c 1
 136 -134 l 1
 158 -140 175 -141 193 -141 c 0
 233 -141 257 -131 257 -112 c 0
 257 -89 217 -84 165 -88 c 1
 216 -10 l 1
 84 6 1 76 15 211 c 1
 195 211 l 1xfb
 195 146 244 118 298 118 c 0
 353 118 398 148 398 192 c 0
 398 223 370 254 298 273 c 0
 165 307 88 356 88 460 c 0xb5
 88 617 229 704 380 704 c 0
 562 704 630 605 623 477 c 1xba80
EndSplineSet
Substitution2: "'locl' Localized Forms in Latin lookup 2 subtable" Scommaaccent
Substitution2: "'locl' Localized Forms in Latin lookup 1 subtable" Scommaaccent
Substitution2: "'aalt' Access All Alternates in Latin lookup 0 subtable" Scommaaccent
Position2: "'cpsp' Capital Spacing in Latin lookup 0 subtable" dx=5 dy=0 dh=10 dv=0
EndChar

StartChar: scedilla
Encoding: 351 351 197
Width: 515
GlyphClass: 2
Flags: MW
HStem: -210 69<136 159 130 197> -88 248<111 111> -14 21G<160 160> 374 170<330 359 203.5 506 330 330> 432 112<262 291>
VStem: 44 187<378 406 378 418> 203 109<-121.5 -100.5> 299 188<122 152.5>
AnchorPoint: "Anchor-0" 211 0 basechar 0
LayerCount: 2
Fore
SplineSet
339 318 m 0xad
 444 282 487 236 487 156 c 0xd1
 487 44 385 -17 243 -20 c 1
 228 -42 l 1
 283 -50 312 -73 312 -111 c 0
 312 -179 239 -210 155 -210 c 0
 117 -210 88 -208 69 -203 c 1
 82 -134 l 1
 104 -140 121 -141 139 -141 c 0
 179 -141 203 -131 203 -112 c 0
 203 -89 163 -84 111 -88 c 1xd2
 160 -14 l 1xb2
 56 4 -7 62 -12 160 c 1
 165 160 l 1
 170 111 202 92 240 92 c 0
 275 92 299 107 299 137 c 0
 299 168 276 187 183 220 c 0
 96 251 44 285 44 372 c 0
 44 464 125 544 282 544 c 0
 436 544 500 471 506 374 c 1
 330 374 l 1xd5
 325 411 306 432 276 432 c 0
 248 432 231 417 231 395 c 0
 231 361 250 348 339 318 c 0xad
EndSplineSet
Substitution2: "'locl' Localized Forms in Latin lookup 2 subtable" scommaaccent
Substitution2: "'locl' Localized Forms in Latin lookup 1 subtable" scommaaccent
Substitution2: "'aalt' Access All Alternates in Latin lookup 0 subtable" scommaaccent
EndChar

StartChar: Scaron
Encoding: 352 352 82
Width: 627
GlyphClass: 2
Flags: MW
HStem: -14 132<271 325.5 271 359.5> 572 132<339.5 392.5> 735 125<310 310 310 374 440 459>
VStem: 88 193<480.5 523 480.5 538.5> 398 193<170 207.5> 443 180<477 477>
AnchorPoint: "Anchor-0" 265 0 basechar 0
LayerCount: 2
Fore
SplineSet
310 735 m 1xf4
 270 860 l 1
 374 860 l 1
 393 788 l 1
 440 860 l 1
 543 860 l 1
 459 735 l 1
 310 735 l 1xf4
623 477 m 1
 443 477 l 1xf4
 445 534 422 572 363 572 c 0
 316 572 281 547 281 499 c 0
 281 462 313 436 411 412 c 0
 537 381 591 315 591 228 c 0
 591 67 440 -14 279 -14 c 0
 112 -14 -1 56 15 211 c 1
 195 211 l 1
 195 146 244 118 298 118 c 0
 353 118 398 148 398 192 c 0xf8
 398 223 370 254 298 273 c 0
 165 307 88 356 88 460 c 0
 88 617 229 704 380 704 c 0
 562 704 630 605 623 477 c 1
EndSplineSet
Position2: "'cpsp' Capital Spacing in Latin lookup 0 subtable" dx=5 dy=0 dh=10 dv=0
EndChar

StartChar: scaron
Encoding: 353 353 196
Width: 515
GlyphClass: 2
Flags: MW
HStem: -20 112<221 257.5 221 307> 374 170<330 359 203.5 506 330 330> 432 112<262 291> 569 125<236 236 236 300 366 385>
VStem: 44 187<378 406 378 418> 299 188<122 152.5>
AnchorPoint: "Anchor-0" 211 0 basechar 0
LayerCount: 2
Fore
SplineSet
236 569 m 1x9c
 196 694 l 1
 300 694 l 1
 319 622 l 1
 366 694 l 1
 469 694 l 1
 385 569 l 1
 236 569 l 1x9c
339 318 m 0
 444 282 487 236 487 156 c 0
 487 42 380 -20 234 -20 c 0
 87 -20 -6 40 -12 160 c 1
 165 160 l 1
 170 111 202 92 240 92 c 0
 275 92 299 107 299 137 c 0
 299 168 276 187 183 220 c 0
 96 251 44 285 44 372 c 0
 44 464 125 544 282 544 c 0
 436 544 500 471 506 374 c 1
 330 374 l 1xdc
 325 411 306 432 276 432 c 0
 248 432 231 417 231 395 c 0xbc
 231 361 250 348 339 318 c 0
EndSplineSet
EndChar

StartChar: Tcedilla
Encoding: 354 354 88
Width: 632
GlyphClass: 2
Flags: MW
HStem: -210 69<206 229 200 267> -88 46 0 21G<191 239 191 191 327 371 327 327> 550 140<89 288 63 717 468 468 468 691>
VStem: 273 109<-121.5 -100.5>
AnchorPoint: "Anchor-0" 281 0 basechar 0
LayerCount: 2
Fore
SplineSet
327 0 m 1
 298 -42 l 1
 353 -50 382 -73 382 -111 c 0
 382 -179 309 -210 225 -210 c 0
 187 -210 158 -208 139 -203 c 1
 152 -134 l 1
 174 -140 191 -141 209 -141 c 0
 249 -141 273 -131 273 -112 c 0
 273 -89 233 -84 181 -88 c 1
 239 0 l 1
 191 0 l 1
 288 550 l 1
 63 550 l 1
 89 690 l 1
 717 690 l 1
 691 550 l 1
 468 550 l 1
 371 0 l 1
 327 0 l 1
EndSplineSet
Substitution2: "'locl' Localized Forms in Latin lookup 2 subtable" uni021A
Substitution2: "'locl' Localized Forms in Latin lookup 1 subtable" uni021A
Substitution2: "'aalt' Access All Alternates in Latin lookup 0 subtable" uni021A
Position2: "'cpsp' Capital Spacing in Latin lookup 0 subtable" dx=5 dy=0 dh=10 dv=0
EndChar

StartChar: tcedilla
Encoding: 355 355 203
Width: 395
GlyphClass: 2
Flags: MW
HStem: -210 69<97 120 91 158> -88 46 -14 123.24 -14 126<208 351> -5 21G<127 127> 418 112<49 110 29 129 310 406>
VStem: 58 190<64.5 169.5> 164 109<-121.5 -100.5>
AnchorPoint: "Anchor-0" 172 0 basechar 0
LayerCount: 2
Fore
SplineSet
290 418 m 1x8d
 255 221 l 2
 250 194 248 179 248 160 c 0xa6
 248 114 279 103 351 112 c 1x95
 331 -1 l 1
 290 -10 251 -14 208 -14 c 1xa5
 189 -42 l 1
 244 -50 273 -73 273 -111 c 0
 273 -179 200 -210 116 -210 c 0
 78 -210 49 -208 30 -203 c 1
 43 -134 l 1
 65 -140 82 -141 100 -141 c 0
 140 -141 164 -131 164 -112 c 0
 164 -89 124 -84 72 -88 c 1xcd
 127 -5 l 1
 77 9 58 40 58 89 c 0
 58 114 61 144 70 195 c 2
 110 418 l 1
 29 418 l 1
 49 530 l 1
 129 530 l 1
 154 668 l 1x8e
 334 668 l 1
 310 530 l 1
 426 530 l 1
 406 418 l 1
 290 418 l 1x8d
EndSplineSet
Substitution2: "'locl' Localized Forms in Latin lookup 2 subtable" uni021B
Substitution2: "'locl' Localized Forms in Latin lookup 1 subtable" uni021B
Substitution2: "'aalt' Access All Alternates in Latin lookup 0 subtable" uni021B
EndChar

StartChar: tcaron
Encoding: 357 357 202
Width: 395
GlyphClass: 2
Flags: MW
HStem: -14 123.24 -14 126<151.5 351> 418 112<49 110 29 129 310 406> 571 97<154 448 154 352> 571 179<352 572 352 572>
VStem: 29 543<418 750> 58 190<54.5 169.5>
AnchorPoint: "Anchor-0" 172 0 basechar 0
LayerCount: 2
Fore
SplineSet
572 750 m 1xac
 572 740 l 1
 448 571 l 1
 352 571 l 1
 448 750 l 1
 572 750 l 1xac
310 530 m 1
 426 530 l 1
 406 418 l 1
 290 418 l 1
 255 221 l 2
 250 194 248 179 248 160 c 0xaa
 248 114 279 103 351 112 c 1x6c
 331 -1 l 1
 289 -10 250 -14 206 -14 c 0
 97 -14 58 20 58 89 c 0
 58 114 61 144 70 195 c 2
 110 418 l 1
 29 418 l 1
 49 530 l 1
 129 530 l 1
 154 668 l 1xb2
 334 668 l 1xb4
 310 530 l 1
EndSplineSet
EndChar

StartChar: Tbar
Encoding: 358 358 86
Width: 662
GlyphClass: 2
Flags: MW
HStem: 0 21G<191 371 191 191> 293 96<175 243 158 260 440 518> 550 140<89 288 63 717 468 691 468 468>
VStem: 63 654<550 690>
AnchorPoint: "Anchor-0" 281 0 basechar 0
LayerCount: 2
Fore
SplineSet
468 550 m 1
 440 389 l 1
 535 389 l 1
 518 293 l 1
 423 293 l 1
 371 0 l 1
 191 0 l 1
 243 293 l 1
 158 293 l 1
 175 389 l 1
 260 389 l 1
 288 550 l 1
 63 550 l 1
 89 690 l 1
 717 690 l 1
 691 550 l 1
 468 550 l 1
EndSplineSet
Position2: "'cpsp' Capital Spacing in Latin lookup 0 subtable" dx=5 dy=0 dh=10 dv=0
EndChar

StartChar: tbar
Encoding: 359 359 201
Width: 395
GlyphClass: 2
Flags: MW
HStem: -14 123.24 -14 126<151.5 351> 245 96<42 79 26 96 276 326> 418 112<49 110 29 129 310 406>
VStem: 26 400<245 530> 58 190<54.5 169.5>
AnchorPoint: "Anchor-0" 172 0 basechar 0
LayerCount: 2
Fore
SplineSet
290 418 m 1xb8
 276 341 l 1
 342 341 l 1
 326 245 l 1
 259 245 l 1
 255 221 l 2
 250 194 248 179 248 160 c 0xb4
 248 114 279 103 351 112 c 1x78
 331 -1 l 1
 289 -10 250 -14 206 -14 c 0
 97 -14 58 20 58 89 c 0
 58 114 61 144 70 195 c 2
 79 245 l 1
 26 245 l 1
 42 341 l 1
 96 341 l 1
 110 418 l 1
 29 418 l 1
 49 530 l 1
 129 530 l 1
 154 668 l 1xb4
 334 668 l 1
 310 530 l 1
 426 530 l 1
 406 418 l 1
 290 418 l 1xb8
EndSplineSet
EndChar

StartChar: Umacron
Encoding: 362 362 96
Width: 719
GlyphClass: 2
Flags: MW
HStem: -14 132<325 391.5 325 448.5> 670 20G<143 323 323 323 575 755 755 755> 760 96<328 612 312 628>
VStem: 63 180<181 206.5>
LayerCount: 2
Fore
SplineSet
612 760 m 1
 312 760 l 1
 328 856 l 1
 628 856 l 1
 612 760 l 1
755 690 m 1
 691 323 l 2
 683 278 679 257 669 216 c 0
 636 81 554 -14 343 -14 c 0
 152 -14 63 74 63 188 c 0
 63 225 67 257 80 333 c 2
 143 690 l 1
 323 690 l 1
 249 270 l 2
 245 248 243 231 243 212 c 0
 243 150 294 118 356 118 c 0
 427 118 472 144 493 229 c 0
 496 241 498 251 501 270 c 2
 575 690 l 1
 755 690 l 1
EndSplineSet
Position2: "'cpsp' Capital Spacing in Latin lookup 0 subtable" dx=5 dy=0 dh=10 dv=0
EndChar

StartChar: umacron
Encoding: 363 363 211
Width: 639
GlyphClass: 2
Flags: MW
HStem: -14 21G<130.5 209.5> 0 108<257.5 537 257.5 357> 514 20G<91 271 271 271 451 631 631 631> 583 96<258 542 242 558>
VStem: 24 189<83.5 192.5> 24 607<83.5 534>
LayerCount: 2
Fore
SplineSet
542 583 m 1x74
 242 583 l 1
 258 679 l 1
 558 679 l 1
 542 583 l 1x74
631 534 m 1
 537 0 l 1
 357 0 l 1
 371 76 l 1x74
 311 17 l 1
 274 -3 234 -14 185 -14 c 0xb8
 76 -14 24 44 24 123 c 0
 24 151 28 181 36 226 c 2
 91 534 l 1
 271 534 l 1
 223 266 l 2
 217 231 213 202 213 183 c 0
 213 138 231 108 284 108 c 0x78
 341 108 386 165 408 286 c 1
 451 534 l 1
 631 534 l 1
EndSplineSet
EndChar

StartChar: Uring
Encoding: 366 366 98
Width: 719
GlyphClass: 2
Flags: MW
HStem: -14 132<325 391.5 325 448.5> 670 20G<143 323 323 323 575 755 755 755> 722 66<457 477.5 457 497> 866 66<468.5 489>
VStem: 63 180<181 206.5> 352 84<809 832 809 849> 510 84<822 845>
LayerCount: 2
Fore
SplineSet
489 932 m 0
 551 932 594 892 594 840 c 0
 594 770 538 722 456 722 c 0
 394 722 352 762 352 814 c 0
 352 884 407 932 489 932 c 0
480 866 m 0
 457 866 436 846 436 818 c 0
 436 800 448 788 466 788 c 0
 489 788 510 808 510 836 c 0
 510 854 498 866 480 866 c 0
755 690 m 1
 691 323 l 2
 683 278 679 257 669 216 c 0
 636 81 554 -14 343 -14 c 0
 152 -14 63 74 63 188 c 0
 63 225 67 257 80 333 c 2
 143 690 l 1
 323 690 l 1
 249 270 l 2
 245 248 243 231 243 212 c 0
 243 150 294 118 356 118 c 0
 427 118 472 144 493 229 c 0
 496 241 498 251 501 270 c 2
 575 690 l 1
 755 690 l 1
EndSplineSet
Position2: "'cpsp' Capital Spacing in Latin lookup 0 subtable" dx=5 dy=0 dh=10 dv=0
EndChar

StartChar: uring
Encoding: 367 367 213
Width: 639
GlyphClass: 2
Flags: MW
HStem: -14 21G<130.5 209.5> 0 108<257.5 537 257.5 357> 514 20G<91 271 271 271 451 631 631 631> 567 66<391 417 391 433.5> 715 66<397 423>
VStem: 24 189<83.5 192.5> 286 84<653.5 672 653.5 694> 444 84<676 694.5>
LayerCount: 2
Fore
SplineSet
392 567 m 0x7f
 326 567 286 601 286 659 c 0
 286 729 339 781 424 781 c 0
 488 781 528 747 528 689 c 0
 528 619 475 567 392 567 c 0x7f
414 715 m 0
 380 715 370 681 370 663 c 0
 370 644 382 633 400 633 c 0
 434 633 444 667 444 685 c 0
 444 704 432 715 414 715 c 0
631 534 m 1
 537 0 l 1
 357 0 l 1
 371 76 l 1x7f
 311 17 l 1
 274 -3 234 -14 185 -14 c 0xbf
 76 -14 24 44 24 123 c 0
 24 151 28 181 36 226 c 2
 91 534 l 1
 271 534 l 1
 223 266 l 2
 217 231 213 202 213 183 c 0
 213 138 231 108 284 108 c 0
 341 108 386 165 408 286 c 1
 451 534 l 1
 631 534 l 1
EndSplineSet
EndChar

StartChar: Uhungarumlaut
Encoding: 368 368 95
Width: 719
GlyphClass: 2
Flags: MW
HStem: -14 132<325 391.5 325 448.5> 670 20G<143 323 323 323 575 755 755 755> 736 125<275 548 275 548 486 486 486 548 388 582>
VStem: 63 180<181 206.5>
LayerCount: 2
Fore
SplineSet
371 736 m 1
 275 736 l 1
 388 861 l 1
 548 861 l 1
 371 736 l 1
582 736 m 1
 486 736 l 1
 599 861 l 1
 759 861 l 1
 582 736 l 1
755 690 m 1
 691 323 l 2
 683 278 679 257 669 216 c 0
 636 81 554 -14 343 -14 c 0
 152 -14 63 74 63 188 c 0
 63 225 67 257 80 333 c 2
 143 690 l 1
 323 690 l 1
 249 270 l 2
 245 248 243 231 243 212 c 0
 243 150 294 118 356 118 c 0
 427 118 472 144 493 229 c 0
 496 241 498 251 501 270 c 2
 575 690 l 1
 755 690 l 1
EndSplineSet
Position2: "'cpsp' Capital Spacing in Latin lookup 0 subtable" dx=5 dy=0 dh=10 dv=0
EndChar

StartChar: uhungarumlaut
Encoding: 369 369 210
Width: 639
GlyphClass: 2
Flags: MW
HStem: -14 21G<130.5 209.5> 0 108<257.5 537 257.5 357> 514 20G<91 271 271 271 451 631 631 631> 569 125<207 480 207 480 418 480 320 514 418 418>
VStem: 24 189<83.5 192.5> 24 667<83.5 694>
LayerCount: 2
Fore
SplineSet
303 569 m 1x74
 207 569 l 1
 320 694 l 1
 480 694 l 1
 303 569 l 1x74
418 569 m 1
 531 694 l 1
 691 694 l 1
 514 569 l 1
 418 569 l 1
451 534 m 1
 631 534 l 1
 537 0 l 1
 357 0 l 1
 371 76 l 1x74
 311 17 l 1
 274 -3 234 -14 185 -14 c 0xb8
 76 -14 24 44 24 123 c 0
 24 151 28 181 36 226 c 2
 91 534 l 1
 271 534 l 1
 223 266 l 2
 217 231 213 202 213 183 c 0
 213 138 231 108 284 108 c 0x78
 341 108 386 165 408 286 c 1
 451 534 l 1
EndSplineSet
EndChar

StartChar: Uogonek
Encoding: 370 370 97
Width: 719
GlyphClass: 2
Flags: MW
HStem: -12 21G 670 20G<143 323 323 323 575 755 755 755>
VStem: 63 180<181 206.5> 214 177<-173 -69.5>
LayerCount: 2
Fore
SplineSet
755 690 m 1xe0
 691 323 l 2
 683 278 679 257 669 216 c 0
 641 100 576 13 423 -9 c 1
 402 -24 391 -57 391 -82 c 0
 391 -111 407 -121 426 -121 c 0
 440 -121 455 -117 472 -106 c 1
 459 -173 l 1
 425 -202 374 -223 315 -223 c 0
 256 -223 214 -201 214 -145 c 0xd0
 214 -91 243 -47 297 -12 c 1
 138 1 63 84 63 188 c 0
 63 225 67 257 80 333 c 2
 143 690 l 1
 323 690 l 1
 249 270 l 2
 245 248 243 231 243 212 c 0
 243 150 294 118 356 118 c 0
 427 118 472 144 493 229 c 0
 496 241 498 251 501 270 c 2
 575 690 l 1
 755 690 l 1xe0
EndSplineSet
Position2: "'cpsp' Capital Spacing in Latin lookup 0 subtable" dx=5 dy=0 dh=10 dv=0
EndChar

StartChar: uogonek
Encoding: 371 371 212
Width: 639
GlyphClass: 2
Flags: MW
HStem: -14 122<130.5 312.5> 0 21G<357 373 357 357 485.5 504 504 537> 514 20G<91 271 271 271 451 631 631 631>
VStem: 24 189<83.5 192.5> 24 607<83.5 534> 269 177<-173 -65>
LayerCount: 2
Fore
SplineSet
537 0 m 1x68
 504 0 l 2
 467 0 446 -48 446 -82 c 0
 446 -111 462 -121 481 -121 c 0
 495 -121 510 -117 527 -106 c 1
 514 -173 l 1
 480 -202 429 -223 370 -223 c 0
 311 -223 269 -201 269 -145 c 0
 269 -85 305 -37 373 0 c 1
 357 0 l 1
 371 76 l 1x64
 311 17 l 1
 274 -3 234 -14 185 -14 c 0
 76 -14 24 44 24 123 c 0
 24 151 28 181 36 226 c 2
 91 534 l 1
 271 534 l 1
 223 266 l 2
 217 231 213 202 213 183 c 0
 213 138 231 108 284 108 c 0xb0
 341 108 386 165 408 286 c 1
 451 534 l 1
 631 534 l 1
 537 0 l 1x68
EndSplineSet
EndChar

StartChar: Wcircumflex
Encoding: 372 372 102
Width: 1016
GlyphClass: 2
Flags: MW
HStem: 0 21G<152 393 152 152 569 809 569 569> 0 146<716 716 716 809> 0 155<299 299 299 393 152 299> 670 20G<101 286 286 286 905 1104 1104 1104> 735 125<559 578 475 708 644 644 644 708 559 748>
VStem: 569 154.5
LayerCount: 2
Fore
SplineSet
578 735 m 1x9c
 475 735 l 1
 559 860 l 1
 708 860 l 1
 748 735 l 1
 644 735 l 1
 625 807 l 1
 578 735 l 1x9c
1104 690 m 1
 809 0 l 1
 569 0 l 1
 569 505 l 1
 393 0 l 1
 152 0 l 1
 101 690 l 1
 286 690 l 1
 299 155 l 1x3c
 472 680 l 1
 731 680 l 1
 716 146 l 1x5c
 905 690 l 1
 1104 690 l 1
EndSplineSet
Position2: "'cpsp' Capital Spacing in Latin lookup 0 subtable" dx=5 dy=0 dh=10 dv=0
EndChar

StartChar: wcircumflex
Encoding: 373 373 217
Width: 844
GlyphClass: 2
Flags: MW
HStem: 0 21G<106 307 106 106 443 644 443 443> 0 159<580 580 580 644 443 580> 514 20G<31 229 229 229 713 907 907 907> 569 125<427 446 343 576 512 512 512 576 427 616> 645 49<493 493>
VStem: 440.5 137.5
LayerCount: 2
Fore
SplineSet
446 569 m 1xb4
 343 569 l 1
 427 694 l 1
 576 694 l 1
 616 569 l 1
 512 569 l 1x74
 493 645 l 1xac
 446 569 l 1xb4
907 534 m 1
 644 0 l 1
 443 0 l 1
 438 363 l 1
 307 0 l 1
 106 0 l 1
 31 534 l 1
 229 534 l 1
 235 161 l 1
 362 530 l 1
 576 530 l 1
 580 159 l 1
 713 534 l 1
 907 534 l 1
EndSplineSet
EndChar

StartChar: Ycircumflex
Encoding: 374 374 108
Width: 683
GlyphClass: 2
Flags: MW
HStem: 0 21G<220 400 220 220> 670 20G<99 291 291 291 566 765 765 765> 735 125<388 407 304 537 473 473 473 537 388 577>
VStem: 99 666<690 690>
LayerCount: 2
Fore
SplineSet
407 735 m 1
 304 735 l 1
 388 860 l 1
 537 860 l 1
 577 735 l 1
 473 735 l 1
 454 807 l 1
 407 735 l 1
446 259 m 1
 400 0 l 1
 220 0 l 1
 267 265 l 1
 99 690 l 1
 291 690 l 1
 386 414 l 1
 566 690 l 1
 765 690 l 1
 446 259 l 1
EndSplineSet
Position2: "'cpsp' Capital Spacing in Latin lookup 0 subtable" dx=5 dy=0 dh=10 dv=0
EndChar

StartChar: ycircumflex
Encoding: 375 375 223
Width: 584
GlyphClass: 2
Flags: MW
HStem: -210 116<45.5 73.5 44.5 120.5> 514 20G<31 231 231 231 450 647 647 647> 569 125<288 307 204 437 373 373 373 437 288 477> 645 49<354 354>
VStem: -15 662
LayerCount: 2
Fore
SplineSet
307 569 m 1xe8
 204 569 l 1
 288 694 l 1
 437 694 l 1
 477 569 l 1
 373 569 l 1xe8
 354 645 l 1xd8
 307 569 l 1xe8
647 534 m 1
 344 0 l 2
 256 -155 181 -210 60 -210 c 0
 31 -210 9 -208 -15 -204 c 1
 4 -90 l 1
 20 -93 35 -94 54 -94 c 0
 93 -94 124 -76 146 -33 c 1
 150 -24 l 1
 31 534 l 1
 231 534 l 1
 273 151 l 1
 450 534 l 1
 647 534 l 1
EndSplineSet
EndChar

StartChar: Ydieresis
Encoding: 376 376 109
Width: 683
GlyphClass: 2
Flags: MW
HStem: 0 21G<220 400 220 220> 670 20G<99 291 291 291 566 765 765 765> 722 146<337.5 361.5 537.5 561.5>
VStem: 274 150<779.5 810.5> 474 150<779.5 810.5>
LayerCount: 2
Fore
SplineSet
342 722 m 0
 298 722 274 744 274 783 c 0
 274 838 318 868 357 868 c 0
 399 868 424 847 424 807 c 0
 424 752 381 722 342 722 c 0
542 722 m 0
 498 722 474 744 474 783 c 0
 474 838 518 868 557 868 c 0
 599 868 624 847 624 807 c 0
 624 752 581 722 542 722 c 0
446 259 m 1
 400 0 l 1
 220 0 l 1
 267 265 l 1
 99 690 l 1
 291 690 l 1
 386 414 l 1
 566 690 l 1
 765 690 l 1
 446 259 l 1
EndSplineSet
Position2: "'cpsp' Capital Spacing in Latin lookup 0 subtable" dx=5 dy=0 dh=10 dv=0
EndChar

StartChar: Zacute
Encoding: 377 377 112
Width: 648
GlyphClass: 2
Flags: MW
HStem: 0 140<255 571> 550 140<156 442 131 689> 735 125<370 643 370 643>
VStem: 6 683
LayerCount: 2
Fore
SplineSet
466 735 m 1
 370 735 l 1
 483 860 l 1
 643 860 l 1
 466 735 l 1
664 551 m 1
 255 140 l 1
 596 140 l 1
 571 0 l 1
 6 0 l 1
 30 136 l 1
 442 550 l 1
 131 550 l 1
 156 690 l 1
 689 690 l 1
 664 551 l 1
EndSplineSet
Position2: "'cpsp' Capital Spacing in Latin lookup 0 subtable" dx=5 dy=0 dh=10 dv=0
EndChar

StartChar: zacute
Encoding: 378 378 227
Width: 543
GlyphClass: 2
Flags: MW
HStem: 0 112<215 472> 418 112<95 322 76 556> 569 125<266 539 266 539>
VStem: -21 577<0 530>
LayerCount: 2
Fore
SplineSet
362 569 m 1
 266 569 l 1
 379 694 l 1
 539 694 l 1
 362 569 l 1
537 420 m 1
 215 112 l 1
 491 112 l 1
 472 0 l 1
 -21 0 l 1
 -3 105 l 1
 322 418 l 1
 76 418 l 1
 95 530 l 1
 556 530 l 1
 537 420 l 1
EndSplineSet
EndChar

StartChar: Zdotaccent
Encoding: 379 379 114
Width: 648
GlyphClass: 2
Flags: MW
HStem: 0 140<255 571> 550 140<156 442 131 689> 722 176<414 462.5>
VStem: 345 186<799 821.5>
LayerCount: 2
Fore
SplineSet
427 722 m 0
 376 722 345 750 345 797 c 0
 345 846 379 898 449 898 c 0
 500 898 531 870 531 823 c 0
 531 775 498 722 427 722 c 0
664 551 m 1
 255 140 l 1
 596 140 l 1
 571 0 l 1
 6 0 l 1
 30 136 l 1
 442 550 l 1
 131 550 l 1
 156 690 l 1
 689 690 l 1
 664 551 l 1
EndSplineSet
Position2: "'cpsp' Capital Spacing in Latin lookup 0 subtable" dx=5 dy=0 dh=10 dv=0
EndChar

StartChar: zdotaccent
Encoding: 380 380 229
Width: 543
GlyphClass: 2
Flags: MW
HStem: 0 112<215 472> 418 112<95 322 76 556> 575 176<314 362.5>
VStem: 245 186<652 674.5>
LayerCount: 2
Fore
SplineSet
327 575 m 0
 276 575 245 603 245 650 c 0
 245 699 279 751 349 751 c 0
 400 751 431 723 431 676 c 0
 431 628 398 575 327 575 c 0
537 420 m 1
 215 112 l 1
 491 112 l 1
 472 0 l 1
 -21 0 l 1
 -3 105 l 1
 322 418 l 1
 76 418 l 1
 95 530 l 1
 556 530 l 1
 537 420 l 1
EndSplineSet
EndChar

StartChar: Zcaron
Encoding: 381 381 113
Width: 648
GlyphClass: 2
Flags: MW
HStem: 0 140<255 571> 550 140<156 442 131 689> 735 125<351 351 351 415 481 500>
VStem: 6 683
LayerCount: 2
Fore
SplineSet
351 735 m 1
 311 860 l 1
 415 860 l 1
 434 788 l 1
 481 860 l 1
 584 860 l 1
 500 735 l 1
 351 735 l 1
664 551 m 1
 255 140 l 1
 596 140 l 1
 571 0 l 1
 6 0 l 1
 30 136 l 1
 442 550 l 1
 131 550 l 1
 156 690 l 1
 689 690 l 1
 664 551 l 1
EndSplineSet
Position2: "'cpsp' Capital Spacing in Latin lookup 0 subtable" dx=5 dy=0 dh=10 dv=0
EndChar

StartChar: zcaron
Encoding: 382 382 228
Width: 543
GlyphClass: 2
Flags: MW
HStem: 0 112<215 472> 418 112<95 322 76 556> 569 125<246 246 246 310 376 395>
VStem: -21 577<0 530>
LayerCount: 2
Fore
SplineSet
246 569 m 1
 206 694 l 1
 310 694 l 1
 329 622 l 1
 376 694 l 1
 479 694 l 1
 395 569 l 1
 246 569 l 1
537 420 m 1
 215 112 l 1
 491 112 l 1
 472 0 l 1
 -21 0 l 1
 -3 105 l 1
 322 418 l 1
 76 418 l 1
 95 530 l 1
 556 530 l 1
 537 420 l 1
EndSplineSet
EndChar

StartChar: Scommaaccent
Encoding: 536 536 84
Width: 627
GlyphClass: 2
Flags: MW
HStem: -216 179<113 333 113 333> -14 132<271 325.5 271 359.5> 572 132<339.5 392.5>
VStem: 88 193<480.5 523 480.5 538.5> 398 193<170 207.5> 443 180<477 477>
AnchorPoint: "Anchor-0" 265 0 basechar 0
LayerCount: 2
Fore
SplineSet
380 704 m 0x74
 562 704 630 605 623 477 c 1
 443 477 l 1x74
 445 534 422 572 363 572 c 0
 316 572 281 547 281 499 c 0
 281 462 313 436 411 412 c 0
 537 381 591 315 591 228 c 0
 591 67 440 -14 279 -14 c 0
 112 -14 -1 56 15 211 c 1
 195 211 l 1
 195 146 244 118 298 118 c 0
 353 118 398 148 398 192 c 0x78
 398 223 370 254 298 273 c 0
 165 307 88 356 88 460 c 0
 88 617 229 704 380 704 c 0x74
333 -47 m 1xf4
 209 -216 l 1
 113 -216 l 1
 209 -37 l 1
 333 -37 l 1
 333 -47 l 1xf4
EndSplineSet
Position2: "'cpsp' Capital Spacing in Latin lookup 0 subtable" dx=5 dy=0 dh=10 dv=0
EndChar

StartChar: scommaaccent
Encoding: 537 537 198
Width: 515
GlyphClass: 2
Flags: MW
HStem: -216 179<59 279 59 279> -20 112<221 257.5 221 307> 374 170<330 359 203.5 506 330 330> 432 112<262 291>
VStem: 44 187<378 406 378 418> 299 188<122 152.5>
AnchorPoint: "Anchor-0" 211 0 basechar 0
LayerCount: 2
Fore
SplineSet
282 544 m 0x6c
 436 544 500 471 506 374 c 1
 330 374 l 1x6c
 325 411 306 432 276 432 c 0
 248 432 231 417 231 395 c 0x5c
 231 361 250 348 339 318 c 0
 444 282 487 236 487 156 c 0
 487 42 380 -20 234 -20 c 0
 87 -20 -6 40 -12 160 c 1
 165 160 l 1
 170 111 202 92 240 92 c 0
 275 92 299 107 299 137 c 0
 299 168 276 187 183 220 c 0
 96 251 44 285 44 372 c 0
 44 464 125 544 282 544 c 0x6c
279 -47 m 1xec
 155 -216 l 1
 59 -216 l 1
 155 -37 l 1
 279 -37 l 1
 279 -47 l 1xec
EndSplineSet
EndChar

StartChar: uni021A
Encoding: 538 538 89
Width: 632
GlyphClass: 2
Flags: MW
HStem: -216 179<129 349 129 349> 0 21G<191 371 191 191> 550 140<89 288 63 717 468 691 468 468>
VStem: 63 654<550 690>
AnchorPoint: "Anchor-0" 281 0 basechar 0
LayerCount: 2
Fore
SplineSet
691 550 m 1
 468 550 l 1
 371 0 l 1
 191 0 l 1
 288 550 l 1
 63 550 l 1
 89 690 l 1
 717 690 l 1
 691 550 l 1
225 -37 m 1
 349 -37 l 1
 349 -47 l 1
 225 -216 l 1
 129 -216 l 1
 225 -37 l 1
EndSplineSet
Position2: "'cpsp' Capital Spacing in Latin lookup 0 subtable" dx=5 dy=0 dh=10 dv=0
EndChar

StartChar: uni021B
Encoding: 539 539 204
Width: 395
GlyphClass: 2
Flags: MW
HStem: -216 179<20 240 20 240> -14 123.24 -14 126<151.5 351> 418 112<49 110 29 129 310 406>
VStem: 20 406 58 190<54.5 169.5>
AnchorPoint: "Anchor-0" 172 0 basechar 0
LayerCount: 2
Fore
SplineSet
290 418 m 1x58
 255 221 l 2
 250 194 248 179 248 160 c 0x54
 248 114 279 103 351 112 c 1x38
 331 -1 l 1
 289 -10 250 -14 206 -14 c 0
 97 -14 58 20 58 89 c 0
 58 114 61 144 70 195 c 2
 110 418 l 1
 29 418 l 1
 49 530 l 1
 129 530 l 1
 154 668 l 1x54
 334 668 l 1
 310 530 l 1
 426 530 l 1
 406 418 l 1
 290 418 l 1x58
116 -37 m 1xd4
 240 -37 l 1
 240 -47 l 1
 116 -216 l 1
 20 -216 l 1
 116 -37 l 1xd4
EndSplineSet
EndChar

StartChar: circumflex
Encoding: 710 710 330
Width: 300
Flags: MW
HStem: 569 125<89 108 5 238 174 238 89 278 174 174> 645 49<155 155>
VStem: 5 273<569 569>
LayerCount: 2
Fore
SplineSet
174 569 m 1xa0
 155 645 l 1x60
 108 569 l 1
 5 569 l 1
 89 694 l 1
 238 694 l 1
 278 569 l 1
 174 569 l 1xa0
EndSplineSet
EndChar

StartChar: caron
Encoding: 711 711 328
Width: 300
Flags: MW
HStem: 569 125<65 129 195 214 65 65>
VStem: 25 273<694 694>
LayerCount: 2
Fore
SplineSet
298 694 m 1
 214 569 l 1
 65 569 l 1
 25 694 l 1
 129 694 l 1
 148 622 l 1
 195 694 l 1
 298 694 l 1
EndSplineSet
EndChar

StartChar: breve
Encoding: 728 728 327
Width: 300
Flags: MW
HStem: 567 85<137 167 137 173.5> 567 129<88 117 27 173.5>
VStem: 24.21 92.79
LayerCount: 2
Fore
SplineSet
207 696 m 1x60
 297 696 l 1
 281 605 209 567 138 567 c 0
 38 567 15 629 27 696 c 1
 117 696 l 1x60
 113 671 122 652 152 652 c 0xa0
 182 652 199 668 207 696 c 1x60
EndSplineSet
EndChar

StartChar: dotaccent
Encoding: 729 729 332
Width: 300
Flags: MW
HStem: 575 176<127 175.5>
VStem: 58 186<652 674.5>
LayerCount: 2
Fore
SplineSet
162 751 m 0
 213 751 244 723 244 676 c 0
 244 628 211 575 140 575 c 0
 89 575 58 603 58 650 c 0
 58 699 92 751 162 751 c 0
EndSplineSet
EndChar

StartChar: ring
Encoding: 730 730 337
Width: 300
Flags: MW
HStem: 567 66<134 160 134 176.5> 715 66<140 166>
VStem: 29 84<653.5 672 653.5 694> 187 84<676 694.5>
LayerCount: 2
Fore
SplineSet
167 781 m 0
 231 781 271 747 271 689 c 0
 271 619 218 567 135 567 c 0
 69 567 29 601 29 659 c 0
 29 729 82 781 167 781 c 0
157 715 m 0
 123 715 113 681 113 663 c 0
 113 644 125 633 143 633 c 0
 177 633 187 667 187 685 c 0
 187 704 175 715 157 715 c 0
EndSplineSet
EndChar

StartChar: ogonek
Encoding: 731 731 336
Width: 300
Flags: MW
HStem: -223 223<128.5 292> 0 21G<273.5 292>
VStem: 57 177<-173 -65> 57 258<-173 -106>
LayerCount: 2
Fore
SplineSet
170 5 m 1x90
 292 0 l 1
 255 0 234 -48 234 -82 c 0x60
 234 -111 250 -121 269 -121 c 0
 283 -121 298 -117 315 -106 c 1
 302 -173 l 1
 268 -202 217 -223 158 -223 c 0
 99 -223 57 -201 57 -145 c 0xa0
 57 -82 96 -33 170 5 c 1x90
EndSplineSet
EndChar

StartChar: tilde
Encoding: 732 732 338
Width: 300
Flags: MW
HStem: 569 103<211 214.5 203.5 253> 569 134<230 253> 572 134<47 70 -26 90>
VStem: -26 352<572 703>
LayerCount: 2
Fore
SplineSet
78 706 m 0x30
 102 706 121 703 162 685 c 0
 185 675 198 672 209 672 c 0x90
 220 672 226 681 230 703 c 1
 326 703 l 1
 309 610 284 569 222 569 c 0x50
 200 569 182 571 138 590 c 0
 117 599 105 603 93 603 c 0
 82 603 74 594 70 572 c 1
 -26 572 l 1
 -9 665 16 706 78 706 c 0x30
EndSplineSet
EndChar

StartChar: hungarumlaut
Encoding: 733 733 334
Width: 300
Flags: MW
HStem: 569 125<-43 230 -43 230 168 168 168 230 70 264>
VStem: -43 484<569 694>
LayerCount: 2
Fore
SplineSet
53 569 m 1
 -43 569 l 1
 70 694 l 1
 230 694 l 1
 53 569 l 1
264 569 m 1
 168 569 l 1
 281 694 l 1
 441 694 l 1
 264 569 l 1
EndSplineSet
EndChar

StartChar: uni0326
Encoding: 806 806 339
Width: 0
GlyphClass: 4
Flags: MW
HStem: -216 179<20 240 20 240>
VStem: 20 220<-216 -47>
AnchorPoint: "Anchor-0" 172 0 mark 0
LayerCount: 2
Fore
SplineSet
240 -47 m 1
 116 -216 l 1
 20 -216 l 1
 116 -37 l 1
 240 -37 l 1
 240 -47 l 1
EndSplineSet
EndChar

StartChar: Wgrave
Encoding: 7808 7808 104
Width: 1016
GlyphClass: 2
Flags: MW
HStem: 0 21G<152 393 152 152 569 809 569 569> 0 146<716 716 716 809> 0 155<299 299 299 393 152 299> 670 20G<101 286 286 286 905 1104 1104 1104> 735 125<576 576 576 603 443 672>
VStem: 569 154.5
LayerCount: 2
Fore
SplineSet
576 735 m 1x9c
 443 860 l 1
 603 860 l 1
 672 735 l 1
 576 735 l 1x9c
1104 690 m 1
 809 0 l 1
 569 0 l 1
 569 505 l 1
 393 0 l 1
 152 0 l 1
 101 690 l 1
 286 690 l 1
 299 155 l 1x3c
 472 680 l 1
 731 680 l 1
 716 146 l 1x5c
 905 690 l 1
 1104 690 l 1
EndSplineSet
Position2: "'cpsp' Capital Spacing in Latin lookup 0 subtable" dx=5 dy=0 dh=10 dv=0
EndChar

StartChar: wgrave
Encoding: 7809 7809 219
Width: 844
GlyphClass: 2
Flags: MW
HStem: 0 21G<106 307 106 106 443 644 443 443> 0 159<580 580 580 644 443 580> 514 20G<31 229 229 229 713 907 907 907> 569 125<448 448 448 475 315 544>
VStem: 440.5 137.5
LayerCount: 2
Fore
SplineSet
448 569 m 1xb8
 315 694 l 1
 475 694 l 1
 544 569 l 1
 448 569 l 1xb8
907 534 m 1
 644 0 l 1
 443 0 l 1
 438 363 l 1
 307 0 l 1
 106 0 l 1
 31 534 l 1
 229 534 l 1
 235 161 l 1
 362 530 l 1
 576 530 l 1
 580 159 l 1x78
 713 534 l 1
 907 534 l 1
EndSplineSet
EndChar

StartChar: Wacute
Encoding: 7810 7810 101
Width: 1016
GlyphClass: 2
Flags: MW
HStem: 0 21G<152 393 152 152 569 809 569 569> 0 146<716 716 716 809> 0 155<299 299 299 393 152 299> 670 20G<101 286 286 286 905 1104 1104 1104> 735 125<557 830 557 830>
VStem: 569 154.5
LayerCount: 2
Fore
SplineSet
653 735 m 1x9c
 557 735 l 1
 670 860 l 1
 830 860 l 1
 653 735 l 1x9c
1104 690 m 1
 809 0 l 1
 569 0 l 1
 569 505 l 1
 393 0 l 1
 152 0 l 1
 101 690 l 1
 286 690 l 1
 299 155 l 1x3c
 472 680 l 1
 731 680 l 1
 716 146 l 1x5c
 905 690 l 1
 1104 690 l 1
EndSplineSet
Position2: "'cpsp' Capital Spacing in Latin lookup 0 subtable" dx=5 dy=0 dh=10 dv=0
EndChar

StartChar: wacute
Encoding: 7811 7811 216
Width: 844
GlyphClass: 2
Flags: MW
HStem: 0 21G<106 307 106 106 443 644 443 443> 0 159<580 580 580 644 443 580> 514 20G<31 229 229 229 713 907 907 907> 569 125<421 694 421 694>
VStem: 440.5 137.5
LayerCount: 2
Fore
SplineSet
517 569 m 1xb8
 421 569 l 1
 534 694 l 1
 694 694 l 1
 517 569 l 1xb8
907 534 m 1
 644 0 l 1
 443 0 l 1
 438 363 l 1
 307 0 l 1
 106 0 l 1
 31 534 l 1
 229 534 l 1
 235 161 l 1
 362 530 l 1
 576 530 l 1
 580 159 l 1x78
 713 534 l 1
 907 534 l 1
EndSplineSet
EndChar

StartChar: Wdieresis
Encoding: 7812 7812 103
Width: 1016
GlyphClass: 2
Flags: MW
HStem: 0 21G<152 393 152 152 569 809 569 569> 0 146<716 716 716 809> 0 155<299 299 299 393 152 299> 670 20G<101 286 286 286 905 1104 1104 1104> 722 146<508.5 532.5 708.5 732.5>
VStem: 445 150<779.5 810.5> 569 154.5 645 150<779.5 810.5>
LayerCount: 2
Fore
SplineSet
513 722 m 0x9d
 469 722 445 744 445 783 c 0
 445 838 489 868 528 868 c 0
 570 868 595 847 595 807 c 0
 595 752 552 722 513 722 c 0x9d
713 722 m 0
 669 722 645 744 645 783 c 0
 645 838 689 868 728 868 c 0
 770 868 795 847 795 807 c 0
 795 752 752 722 713 722 c 0
1104 690 m 1
 809 0 l 1
 569 0 l 1
 569 505 l 1
 393 0 l 1
 152 0 l 1
 101 690 l 1
 286 690 l 1
 299 155 l 1x3a
 472 680 l 1
 731 680 l 1
 716 146 l 1x5a
 905 690 l 1
 1104 690 l 1
EndSplineSet
Position2: "'cpsp' Capital Spacing in Latin lookup 0 subtable" dx=5 dy=0 dh=10 dv=0
EndChar

StartChar: wdieresis
Encoding: 7813 7813 218
Width: 844
GlyphClass: 2
Flags: MW
HStem: 0 21G<106 307 106 106 443 644 443 443> 0 159<580 580 580 644 443 580> 514 20G<31 229 229 229 713 907 907 907> 569 146<370.5 394.5 570.5 594.5>
VStem: 307 150<626.5 657.5> 440.5 137.5 507 150<626.5 657.5>
LayerCount: 2
Fore
SplineSet
375 569 m 0xb8
 331 569 307 591 307 630 c 0
 307 685 351 715 390 715 c 0
 432 715 457 694 457 654 c 0
 457 599 414 569 375 569 c 0xb8
575 569 m 0xb4
 531 569 507 591 507 630 c 0xb4
 507 685 551 715 590 715 c 0
 632 715 657 694 657 654 c 0xb2
 657 599 614 569 575 569 c 0xb4
907 534 m 1x74
 644 0 l 1
 443 0 l 1
 438 363 l 1
 307 0 l 1
 106 0 l 1
 31 534 l 1
 229 534 l 1
 235 161 l 1
 362 530 l 1
 576 530 l 1
 580 159 l 1
 713 534 l 1
 907 534 l 1x74
EndSplineSet
EndChar

StartChar: Ygrave
Encoding: 7922 7922 110
Width: 683
GlyphClass: 2
Flags: MW
HStem: 0 21G<220 400 220 220> 670 20G<99 291 291 291 566 765 765 765> 735 125<405 405 405 432 272 501>
VStem: 99 666<690 690>
LayerCount: 2
Fore
SplineSet
405 735 m 1
 272 860 l 1
 432 860 l 1
 501 735 l 1
 405 735 l 1
446 259 m 1
 400 0 l 1
 220 0 l 1
 267 265 l 1
 99 690 l 1
 291 690 l 1
 386 414 l 1
 566 690 l 1
 765 690 l 1
 446 259 l 1
EndSplineSet
Position2: "'cpsp' Capital Spacing in Latin lookup 0 subtable" dx=5 dy=0 dh=10 dv=0
EndChar

StartChar: ygrave
Encoding: 7923 7923 225
Width: 584
GlyphClass: 2
Flags: MW
HStem: -210 116<45.5 73.5 44.5 120.5> 514 20G<31 231 231 231 450 647 647 647> 569 125<309 309 309 336 176 405>
VStem: -15 662
LayerCount: 2
Fore
SplineSet
309 569 m 1
 176 694 l 1
 336 694 l 1
 405 569 l 1
 309 569 l 1
647 534 m 1
 344 0 l 2
 256 -155 181 -210 60 -210 c 0
 31 -210 9 -208 -15 -204 c 1
 4 -90 l 1
 20 -93 35 -94 54 -94 c 0
 93 -94 124 -76 146 -33 c 1
 150 -24 l 1
 31 534 l 1
 231 534 l 1
 273 151 l 1
 450 534 l 1
 647 534 l 1
EndSplineSet
EndChar

StartChar: endash
Encoding: 8211 8211 270
Width: 500
Flags: MW
HStem: 242 96<98 402 82 418>
VStem: 82 336<242 338>
LayerCount: 2
Fore
SplineSet
402 242 m 1
 82 242 l 1
 98 338 l 1
 418 338 l 1
 402 242 l 1
EndSplineSet
EndChar

StartChar: emdash
Encoding: 8212 8212 269
Width: 1000
Flags: MW
HStem: 242 96<98 902 82 918>
VStem: 82 836<242 338>
LayerCount: 2
Fore
SplineSet
902 242 m 1
 82 242 l 1
 98 338 l 1
 918 338 l 1
 902 242 l 1
EndSplineSet
EndChar

StartChar: quoteleft
Encoding: 8216 8216 279
Width: 286
Flags: MW
HStem: 394 296<214 220 53 352>
VStem: 53 299<394 690 404 690>
LayerCount: 2
Fore
SplineSet
53 404 m 1
 214 690 l 1
 352 690 l 1
 220 394 l 1
 53 394 l 1
 53 404 l 1
EndSplineSet
EndChar

StartChar: quoteright
Encoding: 8217 8217 280
Width: 285
Flags: MW
HStem: 394 296<163 169 31 330> 670 20G<163 330 330 330>
VStem: 31 299<394 680>
LayerCount: 2
Fore
SplineSet
330 680 m 1x60
 169 394 l 1
 31 394 l 1xa0
 163 690 l 1
 330 690 l 1
 330 680 l 1x60
EndSplineSet
EndChar

StartChar: quotesinglbase
Encoding: 8218 8218 281
Width: 283
Flags: MW
HStem: -124 296<31 37 -101 198>
VStem: -101 299<-124 162>
LayerCount: 2
Fore
SplineSet
198 162 m 1
 37 -124 l 1
 -101 -124 l 1
 31 172 l 1
 198 172 l 1
 198 162 l 1
EndSplineSet
EndChar

StartChar: quotedblleft
Encoding: 8220 8220 277
Width: 536
Flags: MW
HStem: 394 296<214 220 53 352 303 303 303 352 464 470>
VStem: 53 549<394 690 404 690>
LayerCount: 2
Fore
SplineSet
53 404 m 1
 214 690 l 1
 352 690 l 1
 220 394 l 1
 53 394 l 1
 53 404 l 1
303 404 m 1
 464 690 l 1
 602 690 l 1
 470 394 l 1
 303 394 l 1
 303 404 l 1
EndSplineSet
EndChar

StartChar: quotedblright
Encoding: 8221 8221 278
Width: 535
Flags: MW
HStem: 394 296<163 169 31 330 281 281 281 330 413 419>
VStem: 31 549<394 680>
LayerCount: 2
Fore
SplineSet
330 680 m 1
 169 394 l 1
 31 394 l 1
 163 690 l 1
 330 690 l 1
 330 680 l 1
580 680 m 1
 419 394 l 1
 281 394 l 1
 413 690 l 1
 580 690 l 1
 580 680 l 1
EndSplineSet
EndChar

StartChar: quotedblbase
Encoding: 8222 8222 276
Width: 533
Flags: MW
HStem: -124 296<31 37 -101 198 149 149 149 198 281 287>
VStem: -101 549<-124 162>
LayerCount: 2
Fore
SplineSet
198 162 m 1
 37 -124 l 1
 -101 -124 l 1
 31 172 l 1
 198 172 l 1
 198 162 l 1
448 162 m 1
 287 -124 l 1
 149 -124 l 1
 281 172 l 1
 448 172 l 1
 448 162 l 1
EndSplineSet
EndChar

StartChar: dagger
Encoding: 8224 8224 319
Width: 600
Flags: MW
HStem: 340 146 670 20G<269 431 431 431>
VStem: 39 524<338 488>
LayerCount: 2
Fore
SplineSet
537 338 m 1
 359 342 l 1
 281 -160 l 1
 119 -160 l 1
 219 342 l 1
 39 338 l 1
 65 488 l 1
 243 484 l 1
 269 690 l 1
 431 690 l 1
 385 484 l 1
 563 488 l 1
 537 338 l 1
EndSplineSet
EndChar

StartChar: daggerdbl
Encoding: 8225 8225 320
Width: 570
Flags: MW
HStem: 44 146 340 146 670 20G<259 421 421 421>
VStem: -23 576<42 488>
LayerCount: 2
Fore
SplineSet
348 342 m 1
 320 188 l 1
 501 192 l 1
 475 42 l 1
 297 46 l 1
 271 -160 l 1
 109 -160 l 1
 155 46 l 1
 -23 42 l 1
 3 192 l 1
 182 188 l 1
 210 342 l 1
 29 338 l 1
 55 488 l 1
 233 484 l 1
 259 690 l 1
 421 690 l 1
 375 484 l 1
 553 488 l 1
 527 338 l 1
 348 342 l 1
EndSplineSet
EndChar

StartChar: bullet
Encoding: 8226 8226 246
Width: 392
Flags: MW
HStem: 175 260<169.5 222.5>
VStem: 62 268<290 320>
LayerCount: 2
Fore
SplineSet
219 435 m 0
 283 435 330 402 330 336 c 0
 330 244 272 175 173 175 c 0
 109 175 62 208 62 274 c 0
 62 366 120 435 219 435 c 0
EndSplineSet
EndChar

StartChar: ellipsis
Encoding: 8230 8230 249
Width: 883
Flags: MW
HStem: -14 200<73.5 108.5 373.5 408.5 673.5 708.5>
VStem: -11 204<71.5 100.5> 289 204<71.5 100.5> 589 204<71.5 100.5>
LayerCount: 2
Fore
SplineSet
109 186 m 0
 155 186 193 160 193 109 c 0
 193 34 144 -14 73 -14 c 0
 28 -14 -11 12 -11 63 c 0
 -11 138 38 186 109 186 c 0
409 186 m 0
 455 186 493 160 493 109 c 0
 493 34 444 -14 373 -14 c 0
 328 -14 289 12 289 63 c 0
 289 138 338 186 409 186 c 0
709 186 m 0
 755 186 793 160 793 109 c 0
 793 34 744 -14 673 -14 c 0
 628 -14 589 12 589 63 c 0
 589 138 638 186 709 186 c 0
EndSplineSet
EndChar

StartChar: perthousand
Encoding: 8240 8240 306
Width: 1138
Flags: MW
HStem: -14 84<571.5 604.5 571.5 635 907.5 940.5> 0 21G<60 203 60 60> 240 84<585.5 618.5 921.5 954.5> 366 84<211.5 244.5 211.5 275> 620 84<225.5 258.5> 670 20G<628 771 771 771>
VStem: 71 108<489.5 540 489.5 559> 291 108<530 580.5> 431 108<109.5 160 109.5 179> 651 108<150 200.5> 767 108<109.5 160 109.5 179> 987 108<150 200.5>
LayerCount: 2
Fore
SplineSet
215 366 m 0xbbd0
 129 366 71 417 71 509 c 0
 71 609 135 704 255 704 c 0
 341 704 399 653 399 561 c 0
 399 461 335 366 215 366 c 0xbbd0
771 690 m 1x4440
 203 0 l 1
 60 0 l 1
 628 690 l 1
 771 690 l 1x4440
245 620 m 0xbbd0
 206 620 179 569 179 511 c 0
 179 468 198 450 225 450 c 0
 264 450 291 501 291 559 c 0
 291 602 272 620 245 620 c 0xbbd0
615 324 m 0
 701 324 759 273 759 181 c 0
 759 81 695 -14 575 -14 c 0
 489 -14 431 37 431 129 c 0
 431 229 495 324 615 324 c 0
951 324 m 0
 1037 324 1095 273 1095 181 c 0
 1095 81 1031 -14 911 -14 c 0
 825 -14 767 37 767 129 c 0xa030
 767 229 831 324 951 324 c 0
585 70 m 0
 624 70 651 121 651 179 c 0
 651 222 632 240 605 240 c 0
 566 240 539 189 539 131 c 0
 539 88 558 70 585 70 c 0
921 70 m 0xa030
 960 70 987 121 987 179 c 0
 987 222 968 240 941 240 c 0
 902 240 875 189 875 131 c 0
 875 88 894 70 921 70 c 0xa030
EndSplineSet
EndChar

StartChar: guilsinglleft
Encoding: 8249 8249 274
Width: 439
Flags: MW
HStem: 82 332<275 342 217 416>
VStem: 109 307<248 414>
LayerCount: 2
Fore
SplineSet
240 238 m 1
 342 82 l 1
 217 82 l 1
 109 248 l 1
 275 414 l 1
 416 414 l 1
 240 238 l 1
EndSplineSet
EndChar

StartChar: guilsinglright
Encoding: 8250 8250 275
Width: 451
Flags: MW
HStem: 82 332<90 157 16 215>
VStem: 16 307<82 248>
LayerCount: 2
Fore
SplineSet
323 248 m 1
 157 82 l 1
 16 82 l 1
 192 258 l 1
 90 414 l 1
 215 414 l 1
 323 248 l 1
EndSplineSet
EndChar

StartChar: fraction
Encoding: 8260 8260 243
Width: 299
Flags: MW
HStem: 0 21G<-197 -64 -197 -197> 670 20G<371 504 504 504>
VStem: -197 701<0 690>
LayerCount: 2
Fore
SplineSet
-64 0 m 1
 -197 0 l 1
 371 690 l 1
 504 690 l 1
 -64 0 l 1
EndSplineSet
EndChar

StartChar: Euro
Encoding: 8364 8364 286
Width: 662
Flags: MW
HStem: -14 132<379 396.5> 224 96<46 105 19 106 293 454 293 293> 370 96<89 112 62 135 317 496> 572 132<432.5 492>
VStem: 19 649<224 642> 109 182
LayerCount: 2
Fore
SplineSet
468 572 m 0xf8
 397 572 346 543 317 466 c 1
 524 466 l 1
 496 370 l 1
 295 370 l 1
 294 354 292 338 291 320 c 1
 480 320 l 1
 454 224 l 1
 293 224 l 1
 304 143 349 118 409 118 c 0
 473 118 523 131 572 157 c 1
 548 25 l 1
 495 0 443 -14 350 -14 c 0
 206 -14 116 64 105 224 c 1
 19 224 l 1
 46 320 l 1
 106 320 l 1
 108 337 110 353 112 370 c 1
 62 370 l 1
 89 466 l 1
 135 466 l 1xf4
 181 600 284 704 482 704 c 0
 576 704 637 679 668 642 c 1
 587 531 l 1
 549 561 516 572 468 572 c 0xf8
EndSplineSet
EndChar

StartChar: trademark
Encoding: 8482 8482 325
Width: 537
Flags: MW
HStem: 456 203<76 359 76 359 232 359 268 292 268 416 419 476> 615 45<40 104 32 244 164 236 164 164>
VStem: 320.5 42
LayerCount: 2
Fore
SplineSet
164 615 m 1x60
 136 456 l 1
 76 456 l 1
 104 615 l 1
 32 615 l 1
 40 660 l 1
 244 660 l 1
 236 615 l 1
 164 615 l 1x60
512 659 m 1xa0
 476 456 l 1
 416 456 l 1
 443 598 l 1
 387 460 l 1
 325 460 l 1
 316 597 l 1
 292 456 l 1
 232 456 l 1xa0
 268 659 l 1
 359 659 l 1x60
 366 519 l 1
 419 659 l 1
 512 659 l 1xa0
EndSplineSet
EndChar

StartChar: partialdiff
Encoding: 8706 8706 304
Width: 662
Flags: MW
HStem: -14 132<288.5 347.5 288.5 428> 383 132<308.5 377.5> 626 132<357.5 388.5>
VStem: 45 190<180.5 245 180.5 285.5> 462 183<493.5 542.5>
LayerCount: 2
Fore
SplineSet
400 758 m 0
 564 758 645 660 645 485 c 0
 645 236 563 -14 293 -14 c 0
 146 -14 45 50 45 214 c 0
 45 357 125 515 344 515 c 0
 412 515 445 495 461 468 c 1
 462 479 462 489 462 498 c 0
 462 587 428 626 349 626 c 0
 304 626 261 613 217 587 c 1
 183 702 l 1
 257 742 315 758 400 758 c 0
313 118 m 0
 382 118 423 199 444 332 c 1
 431 372 397 383 358 383 c 0
 259 383 235 280 235 210 c 0
 235 151 264 118 313 118 c 0
EndSplineSet
EndChar

StartChar: product
Encoding: 8719 8719 309
Width: 662
Flags: MW
HStem: 550 140<92 124 67 680 304 418 304 304 598 655 598 598>
VStem: 7 673
LayerCount: 2
Fore
SplineSet
655 550 m 1
 598 550 l 1
 481 -110 l 1
 301 -110 l 1
 418 550 l 1
 304 550 l 1
 187 -110 l 1
 7 -110 l 1
 124 550 l 1
 67 550 l 1
 92 690 l 1
 680 690 l 1
 655 550 l 1
EndSplineSet
EndChar

StartChar: summation
Encoding: 8721 8721 311
Width: 662
Flags: MW
HStem: -110 140<215 536> 550 140<329 647 329 329> 562 128<126 672>
VStem: -23 695
LayerCount: 2
Fore
SplineSet
647 550 m 1xd0
 329 550 l 1xd0
 495 295 l 1
 215 30 l 1
 561 30 l 1
 536 -110 l 1
 -23 -110 l 1
 0 18 l 1
 294 301 l 1
 126 562 l 1xb0
 149 690 l 1
 672 690 l 1
 647 550 l 1xd0
EndSplineSet
EndChar

StartChar: minus
Encoding: 8722 8722 301
Width: 662
Flags: MW
HStem: 269 96<121 555 105 571>
VStem: 105 466<269 365>
LayerCount: 2
Fore
SplineSet
555 269 m 1
 105 269 l 1
 121 365 l 1
 571 365 l 1
 555 269 l 1
EndSplineSet
EndChar

StartChar: radical
Encoding: 8730 8730 310
Width: 662
Flags: MW
HStem: 222 88<58 124 42 221>
VStem: 42 668<222 780>
LayerCount: 2
Fore
SplineSet
710 780 m 1
 318 -160 l 1
 184 -160 l 1
 124 222 l 1
 42 222 l 1
 58 310 l 1
 221 310 l 1
 269 -51 l 1
 604 780 l 1
 710 780 l 1
EndSplineSet
EndChar

StartChar: infinity
Encoding: 8734 8734 296
Width: 1036
Flags: MW
HStem: -14 122<266 298 676 747> 422 122<294 366 744 776>
VStem: 23 190<192.5 267 192.5 303> 824 190<263 337>
LayerCount: 2
Fore
SplineSet
790 544 m 0
 927 544 1014 462 1014 307 c 0
 1014 147 913 -14 702 -14 c 0
 594 -14 522 13 483 99 c 1
 417 13 344 -14 252 -14 c 0
 115 -14 23 68 23 223 c 0
 23 383 127 544 340 544 c 0
 448 544 523 517 562 431 c 1
 628 517 698 544 790 544 c 0
421 265 m 1
 425 381 392 422 340 422 c 0
 248 422 213 304 213 230 c 0
 213 155 243 108 289 108 c 0
 341 108 390 151 421 265 c 1
702 108 m 0
 792 108 824 226 824 300 c 0
 824 374 799 422 753 422 c 0
 701 422 653 379 625 265 c 1
 617 149 650 108 702 108 c 0
EndSplineSet
EndChar

StartChar: integral
Encoding: 8747 8747 297
Width: 662
Flags: MW
HStem: -160 96<198.5 252 198.5 285> 658 96<421 474.5>
VStem: 258 110<484 542.5 484 569> 305 110<51.5 110>
LayerCount: 2
Fore
SplineSet
465 754 m 0xe0
 504 754 532 749 555 732 c 1
 524 642 l 1
 505 654 487 658 462 658 c 0
 380 658 368 579 368 506 c 0xe0
 368 462 375 403 392 304 c 0
 408 215 415 155 415 86 c 0
 415 -36 362 -160 208 -160 c 0
 169 -160 141 -155 118 -138 c 1
 149 -48 l 1
 168 -60 186 -64 211 -64 c 0
 293 -64 305 15 305 88 c 0xd0
 305 132 298 191 281 290 c 0
 265 379 258 439 258 508 c 0
 258 630 311 754 465 754 c 0xe0
EndSplineSet
EndChar

StartChar: approxequal
Encoding: 8776 8776 289
Width: 630
Flags: MW
HStem: 115 105<394.5 416.5> 191 105<178.5 201.5> 315 105<429.5 452.5> 391 105<214.5 236.5>
VStem: 48 535<208 403>
LayerCount: 2
Fore
SplineSet
241 496 m 0x98
 282 496 305 484 355 455 c 0
 403 427 418 420 441 420 c 0
 475 420 504 435 536 466 c 1
 583 403 l 1
 530 335 479 315 426 315 c 0xa8
 385 315 361 327 311 356 c 0
 263 384 248 391 225 391 c 0
 191 391 162 376 130 345 c 1
 83 408 l 1
 136 476 188 496 241 496 c 0x98
205 296 m 0x68
 246 296 270 284 320 255 c 0
 368 227 383 220 406 220 c 0
 440 220 469 235 501 266 c 1
 548 203 l 1
 495 135 443 115 390 115 c 0xa8
 349 115 326 127 276 156 c 0
 228 184 213 191 190 191 c 0
 156 191 127 176 95 145 c 1
 48 208 l 1
 101 276 152 296 205 296 c 0x68
EndSplineSet
EndChar

StartChar: notequal
Encoding: 8800 8800 303
Width: 662
Flags: MW
HStem: 173 88<87 178 72 237 342 562 87 283> 373 88<122 312 107 371 476 597 122 417>
VStem: 72 540<173 461>
LayerCount: 2
Fore
SplineSet
417 373 m 1
 342 261 l 1
 577 261 l 1
 562 173 l 1
 283 173 l 1
 209 62 l 1
 104 62 l 1
 178 173 l 1
 72 173 l 1
 87 261 l 1
 237 261 l 1
 312 373 l 1
 107 373 l 1
 122 461 l 1
 371 461 l 1
 445 572 l 1
 550 572 l 1
 476 461 l 1
 612 461 l 1
 597 373 l 1
 417 373 l 1
EndSplineSet
EndChar

StartChar: lessequal
Encoding: 8804 8804 299
Width: 662
Flags: MW
HStem: 0 96<89 512 72 529>
VStem: 72 532<0 520>
LayerCount: 2
Fore
SplineSet
584 410 m 1
 229 320 l 1
 552 224 l 1
 533 120 l 1
 117 252 l 1
 141 388 l 1
 604 520 l 1
 584 410 l 1
89 96 m 1
 529 96 l 1
 512 0 l 1
 72 0 l 1
 89 96 l 1
EndSplineSet
EndChar

StartChar: greaterequal
Encoding: 8805 8805 295
Width: 662
Flags: MW
HStem: 0 96<73 486 56 503>
VStem: 56 499<0 388>
LayerCount: 2
Fore
SplineSet
555 388 m 1
 531 252 l 1
 77 120 l 1
 97 230 l 1
 444 320 l 1
 130 416 l 1
 148 520 l 1
 555 388 l 1
73 96 m 1
 503 96 l 1
 486 0 l 1
 56 0 l 1
 73 96 l 1
EndSplineSet
EndChar

StartChar: lozenge
Encoding: 9674 9674 312
Width: 554
Flags: MW
HStem: 0 21G<140 292 140 140> 0 114<236 236 236 292 140 236> 576 114<318 318> 670 20G<262 414 414 414>
VStem: 44 466<345 345>
LayerCount: 2
Fore
SplineSet
510 345 m 1x98
 292 0 l 1
 140 0 l 1
 44 345 l 1
 262 690 l 1
 414 690 l 1
 510 345 l 1x98
378 345 m 1
 318 576 l 1
 176 345 l 1
 236 114 l 1x68
 378 345 l 1
EndSplineSet
EndChar

StartChar: fi
Encoding: 64257 64257 231
Width: 631
GlyphClass: 3
Flags: MW
HStem: 0 21G<13 193 13 13 349 529 349 349> 418 112<59 87 39 106 286 422> 633.35 112.65
VStem: 13 609<0 530>
LayerCount: 2
Fore
SplineSet
622 530 m 1
 529 0 l 1
 349 0 l 1
 422 418 l 1
 267 418 l 1
 193 0 l 1
 13 0 l 1
 87 418 l 1
 39 418 l 1
 59 530 l 1
 106 530 l 1
 107 534 l 2
 110 550 114 574 118 592 c 0
 144 692 236 754 391 754 c 0
 432 754 453 751 480 746 c 1
 459 629 l 1
 356 644 308 621 295 574 c 0
 291 560 289 547 287 534 c 1
 286 530 l 1
 622 530 l 1
EndSplineSet
Ligature2: "'liga' Standard Ligatures in Latin lookup 4 subtable" f i
EndChar

StartChar: fl
Encoding: 64258 64258 232
Width: 661
GlyphClass: 3
Flags: MW
HStem: -10 117<460 619> 0 21G<12 192 12 12> 418 112<59 86 39 106 286 375> 632 122<372 414>
VStem: 378 188<43 145>
LayerCount: 2
Fore
SplineSet
566 138 m 0xb8
 566 110 580 105 619 107 c 1
 599 -4 l 1
 571 -8 543 -10 503 -10 c 0
 417 -10 378 14 378 72 c 0xb8
 378 102 383 139 392 189 c 2
 470 624 l 1
 443 631 428 632 400 632 c 0
 344 632 305 613 295 574 c 0
 291 560 289 547 287 534 c 1
 286 530 l 1
 395 530 l 1
 375 418 l 1
 266 418 l 1
 192 0 l 1
 12 0 l 1x78
 86 418 l 1
 39 418 l 1
 59 530 l 1
 106 530 l 1
 107 534 l 1
 109 550 114 574 118 592 c 0
 143 692 226 754 431 754 c 0
 521 754 593 745 658 730 c 1
 669 730 l 1
 573 192 l 2
 569 170 566 152 566 138 c 0xb8
EndSplineSet
Ligature2: "'liga' Standard Ligatures in Latin lookup 4 subtable" f l
EndChar

StartChar: .notdef
Encoding: 65536 -1 0
Width: 577
Flags: MW
HStem: 0 50<157 497 157 577> 650 50<157 497 157 157>
LayerCount: 2
Fore
SplineSet
77 0 m 1
 77 700 l 1
 577 700 l 1
 577 0 l 1
 77 0 l 1
327 395 m 1
 497 650 l 1
 157 650 l 1
 327 395 l 1
357 350 m 1
 527 95 l 1
 527 605 l 1
 357 350 l 1
157 50 m 1
 497 50 l 1
 327 305 l 1
 157 50 l 1
127 605 m 1
 127 95 l 1
 297 350 l 1
 127 605 l 1
EndSplineSet
EndChar

StartChar: a.alt
Encoding: 65537 -1 230
Width: 679
GlyphClass: 2
Flags: MW
HStem: -14 122<162.5 335> 0 108<272 577 272 397> 426 108<311 671> 426 122<311 357 229.5 398>
VStem: 19 190<185 279 185 288>
LayerCount: 2
Fore
SplineSet
671 534 m 1x68
 577 0 l 1
 397 0 l 1
 411 78 l 1x58
 360 19 l 1
 327 -3 283 -14 229 -14 c 0
 96 -14 19 57 19 197 c 0
 19 379 124 548 335 548 c 0
 379 548 429 538 453 522 c 1
 479 463 l 1x98
 491 534 l 1
 671 534 l 1x68
443 260 m 2
 447 283 l 2
 459 355 443 426 353 426 c 0
 269 426 209 332 209 226 c 0
 209 144 242 108 302 108 c 0
 368 108 423 150 443 260 c 2
EndSplineSet
EndChar

StartChar: braceleft.001
Encoding: 65538 -1 268
Width: 430
Flags: MW
HStem: -80 96<177 287 265 270> 684 96<371 383 383 405>
VStem: 102 102<34 43.5> 163 102<257 268> 206 100<492 545>
LayerCount: 2
Fore
SplineSet
422 780 m 1xc8
 405 684 l 1
 383 684 l 2
 329 684 306 669 306 555 c 0xc8
 306 429 286 368 198 351 c 1
 244 339 265 313 265 273 c 0xd0
 265 241 259 204 235 145 c 0
 209 80 204 68 204 48 c 0
 204 20 223 16 265 16 c 2
 287 16 l 1
 270 -80 l 1
 219 -80 l 2
 135 -80 102 -31 102 25 c 0xe0
 102 62 108 80 138 155 c 0
 157 203 163 237 163 257 c 0
 163 279 149 299 91 302 c 1xd0
 107 398 l 1
 190 403 206 428 206 545 c 0
 207 728 244 780 371 780 c 2
 422 780 l 1xc8
EndSplineSet
EndChar
